<?xml version="1.0" encoding="UTF-8" standalone="no"?><svg xmlns="http://www.w3.org/2000/svg" xmlns:xlink="http://www.w3.org/1999/xlink" contentStyleType="text/css" height="2788px" preserveAspectRatio="none" style="width:2129px;height:2788px;background:#FFFFFF;" version="1.1" viewBox="0 0 2129 2788" width="2129px" zoomAndPan="magnify"><defs/><g><rect fill="#DDDDDD" height="2776.4141" style="stroke:#181818;stroke-width:0.5;" width="552" x="1" y="6"/><text fill="#000000" font-family="sans-serif" font-size="13" font-weight="bold" lengthAdjust="spacing" textLength="45" x="254.5" y="19.4951">Cliente</text><rect fill="#DDDDDD" height="2776.4141" style="stroke:#181818;stroke-width:0.5;" width="1239.5" x="740" y="6"/><text fill="#000000" font-family="sans-serif" font-size="13" font-weight="bold" lengthAdjust="spacing" textLength="54" x="1332.75" y="19.4951">Servidor</text><rect fill="#FFFFFF" height="2556.4922" style="stroke:#181818;stroke-width:1.0;" width="10" x="37" y="136.3125"/><rect fill="#FFFFFF" height="2556.4922" style="stroke:#181818;stroke-width:1.0;" width="10" x="175" y="136.3125"/><rect fill="#FFFFFF" height="2526.1406" style="stroke:#181818;stroke-width:1.0;" width="10" x="325" y="166.6641"/><rect fill="#FFFFFF" height="1907.6563" style="stroke:#181818;stroke-width:1.0;" width="10" x="488" y="709.4453"/><rect fill="#FFFFFF" height="1953.0078" style="stroke:#181818;stroke-width:1.0;" width="10" x="788" y="739.7969"/><rect fill="#FFFFFF" height="881.7109" style="stroke:#181818;stroke-width:1.0;" width="10" x="1063" y="770.1484"/><rect fill="#FFFFFF" height="671.8984" style="stroke:#181818;stroke-width:1.0;" width="10" x="1338" y="800.5"/><rect fill="#FFFFFF" height="1616.7891" style="stroke:#181818;stroke-width:1.0;" width="10" x="1676" y="939.6094"/><rect fill="#FFFFFF" height="828.0078" style="stroke:#181818;stroke-width:1.0;" width="10" x="1927" y="969.9609"/><rect height="304.3203" style="stroke:#000000;stroke-width:1.5;fill:none;" width="251" x="240" y="359.4219"/><rect height="271.9688" style="stroke:#000000;stroke-width:1.5;fill:none;" width="231" x="250" y="384.7734"/><rect height="1167.0547" style="stroke:#000000;stroke-width:1.5;fill:none;" width="1826" x="240" y="1517.75"/><rect height="214.2969" style="stroke:#000000;stroke-width:1.5;fill:none;" width="309" x="250" y="1963.7266"/><line style="stroke:#181818;stroke-width:0.5;fill:none;stroke-dasharray:5.0,5.0;" x1="42" x2="42" y1="103.9609" y2="2701.8047"/><line style="stroke:#181818;stroke-width:0.5;fill:none;stroke-dasharray:5.0,5.0;" x1="180" x2="180" y1="103.9609" y2="2701.8047"/><line style="stroke:#181818;stroke-width:0.5;fill:none;stroke-dasharray:5.0,5.0;" x1="330" x2="330" y1="103.9609" y2="2701.8047"/><line style="stroke:#181818;stroke-width:0.5;fill:none;stroke-dasharray:5.0,5.0;" x1="493" x2="493" y1="103.9609" y2="2701.8047"/><line style="stroke:#181818;stroke-width:0.5;fill:none;stroke-dasharray:5.0,5.0;" x1="793" x2="793" y1="103.9609" y2="2701.8047"/><line style="stroke:#181818;stroke-width:0.5;fill:none;stroke-dasharray:5.0,5.0;" x1="1068" x2="1068" y1="103.9609" y2="2701.8047"/><line style="stroke:#181818;stroke-width:0.5;fill:none;stroke-dasharray:5.0,5.0;" x1="1343" x2="1343" y1="103.9609" y2="2701.8047"/><line style="stroke:#181818;stroke-width:0.5;fill:none;stroke-dasharray:5.0,5.0;" x1="1681" x2="1681" y1="103.9609" y2="2701.8047"/><line style="stroke:#181818;stroke-width:0.5;fill:none;stroke-dasharray:5.0,5.0;" x1="1931.5" x2="1931.5" y1="103.9609" y2="2701.8047"/><text fill="#000000" font-family="sans-serif" font-size="14" lengthAdjust="spacing" textLength="68" x="5" y="100.8848">Empleador</text><ellipse cx="42" cy="34.8516" fill="#E2E2F0" rx="8" ry="8" style="stroke:#181818;stroke-width:0.5;"/><path d="M42,42.8516 L42,69.8516 M29,50.8516 L55,50.8516 M42,69.8516 L29,84.8516 M42,69.8516 L55,84.8516 " fill="none" style="stroke:#181818;stroke-width:0.5;"/><text fill="#000000" font-family="sans-serif" font-size="14" lengthAdjust="spacing" textLength="68" x="5" y="2715.3379">Empleador</text><ellipse cx="42" cy="2726.9141" fill="#E2E2F0" rx="8" ry="8" style="stroke:#181818;stroke-width:0.5;"/><path d="M42,2734.9141 L42,2761.9141 M29,2742.9141 L55,2742.9141 M42,2761.9141 L29,2776.9141 M42,2761.9141 L55,2776.9141 " fill="none" style="stroke:#181818;stroke-width:0.5;"/><rect fill="#E2E2F0" height="49.2188" rx="2.5" ry="2.5" style="stroke:#181818;stroke-width:0.5;" width="140" x="110" y="53.7422"/><text fill="#000000" font-family="sans-serif" font-size="14" font-style="italic" lengthAdjust="spacing" textLength="41" x="159.5" y="75.2754">«GUI»</text><text fill="#000000" font-family="sans-serif" font-size="14" lengthAdjust="spacing" textLength="126" x="117" y="92.8848">RegistrarEmpleador</text><rect fill="#E2E2F0" height="49.2188" rx="2.5" ry="2.5" style="stroke:#181818;stroke-width:0.5;" width="140" x="110" y="2700.8047"/><text fill="#000000" font-family="sans-serif" font-size="14" font-style="italic" lengthAdjust="spacing" textLength="41" x="159.5" y="2722.3379">«GUI»</text><text fill="#000000" font-family="sans-serif" font-size="14" lengthAdjust="spacing" textLength="126" x="117" y="2739.9473">RegistrarEmpleador</text><rect fill="#E2E2F0" height="49.2188" rx="2.5" ry="2.5" style="stroke:#181818;stroke-width:0.5;" width="140" x="260" y="53.7422"/><text fill="#000000" font-family="sans-serif" font-size="14" font-style="italic" lengthAdjust="spacing" textLength="78" x="291" y="75.2754">«Controller»</text><text fill="#000000" font-family="sans-serif" font-size="14" lengthAdjust="spacing" textLength="126" x="267" y="92.8848">RegistrarEmpleador</text><rect fill="#E2E2F0" height="49.2188" rx="2.5" ry="2.5" style="stroke:#181818;stroke-width:0.5;" width="140" x="260" y="2700.8047"/><text fill="#000000" font-family="sans-serif" font-size="14" font-style="italic" lengthAdjust="spacing" textLength="78" x="291" y="2722.3379">«Controller»</text><text fill="#000000" font-family="sans-serif" font-size="14" lengthAdjust="spacing" textLength="126" x="267" y="2739.9473">RegistrarEmpleador</text><rect fill="#E2E2F0" height="49.2188" rx="2.5" ry="2.5" style="stroke:#181818;stroke-width:0.5;" width="112" x="437" y="53.7422"/><text fill="#000000" font-family="sans-serif" font-size="14" font-style="italic" lengthAdjust="spacing" textLength="46" x="470" y="75.2754">«DAO»</text><text fill="#000000" font-family="sans-serif" font-size="14" lengthAdjust="spacing" textLength="98" x="444" y="92.8848">EmpleadorDAO</text><rect fill="#E2E2F0" height="49.2188" rx="2.5" ry="2.5" style="stroke:#181818;stroke-width:0.5;" width="112" x="437" y="2700.8047"/><text fill="#000000" font-family="sans-serif" font-size="14" font-style="italic" lengthAdjust="spacing" textLength="46" x="470" y="2722.3379">«DAO»</text><text fill="#000000" font-family="sans-serif" font-size="14" lengthAdjust="spacing" textLength="98" x="444" y="2739.9473">EmpleadorDAO</text><rect fill="#E2E2F0" height="49.2188" rx="2.5" ry="2.5" style="stroke:#181818;stroke-width:0.5;" width="98" x="744" y="53.7422"/><text fill="#000000" font-family="sans-serif" font-size="14" font-style="italic" lengthAdjust="spacing" textLength="38" x="774" y="75.2754">«API»</text><text fill="#000000" font-family="sans-serif" font-size="14" lengthAdjust="spacing" textLength="84" x="751" y="92.8848">ElCamelloAPI</text><rect fill="#E2E2F0" height="49.2188" rx="2.5" ry="2.5" style="stroke:#181818;stroke-width:0.5;" width="98" x="744" y="2700.8047"/><text fill="#000000" font-family="sans-serif" font-size="14" font-style="italic" lengthAdjust="spacing" textLength="38" x="774" y="2722.3379">«API»</text><text fill="#000000" font-family="sans-serif" font-size="14" lengthAdjust="spacing" textLength="84" x="751" y="2739.9473">ElCamelloAPI</text><rect fill="#E2E2F0" height="49.2188" rx="2.5" ry="2.5" style="stroke:#181818;stroke-width:0.5;" width="118" x="1009" y="53.7422"/><text fill="#000000" font-family="sans-serif" font-size="14" font-style="italic" lengthAdjust="spacing" textLength="97" x="1019.5" y="75.2754">«Componente»</text><text fill="#000000" font-family="sans-serif" font-size="14" lengthAdjust="spacing" textLength="104" x="1016" y="92.8848">GestionUsuarios</text><rect fill="#E2E2F0" height="49.2188" rx="2.5" ry="2.5" style="stroke:#181818;stroke-width:0.5;" width="118" x="1009" y="2700.8047"/><text fill="#000000" font-family="sans-serif" font-size="14" font-style="italic" lengthAdjust="spacing" textLength="97" x="1019.5" y="2722.3379">«Componente»</text><text fill="#000000" font-family="sans-serif" font-size="14" lengthAdjust="spacing" textLength="104" x="1016" y="2739.9473">GestionUsuarios</text><rect fill="#E2E2F0" height="49.2188" rx="2.5" ry="2.5" style="stroke:#181818;stroke-width:0.5;" width="112" x="1287" y="53.7422"/><text fill="#000000" font-family="sans-serif" font-size="14" font-style="italic" lengthAdjust="spacing" textLength="46" x="1320" y="75.2754">«DAO»</text><text fill="#000000" font-family="sans-serif" font-size="14" lengthAdjust="spacing" textLength="98" x="1294" y="92.8848">EmpleadorDAO</text><rect fill="#E2E2F0" height="49.2188" rx="2.5" ry="2.5" style="stroke:#181818;stroke-width:0.5;" width="112" x="1287" y="2700.8047"/><text fill="#000000" font-family="sans-serif" font-size="14" font-style="italic" lengthAdjust="spacing" textLength="46" x="1320" y="2722.3379">«DAO»</text><text fill="#000000" font-family="sans-serif" font-size="14" lengthAdjust="spacing" textLength="98" x="1294" y="2739.9473">EmpleadorDAO</text><rect fill="#E2E2F0" height="49.2188" rx="2.5" ry="2.5" style="stroke:#181818;stroke-width:0.5;" width="92" x="1635" y="53.7422"/><text fill="#000000" font-family="sans-serif" font-size="14" font-style="italic" lengthAdjust="spacing" textLength="46" x="1658" y="75.2754">«DAO»</text><text fill="#000000" font-family="sans-serif" font-size="14" lengthAdjust="spacing" textLength="78" x="1642" y="92.8848">UsuarioDAO</text><rect fill="#E2E2F0" height="49.2188" rx="2.5" ry="2.5" style="stroke:#181818;stroke-width:0.5;" width="92" x="1635" y="2700.8047"/><text fill="#000000" font-family="sans-serif" font-size="14" font-style="italic" lengthAdjust="spacing" textLength="46" x="1658" y="2722.3379">«DAO»</text><text fill="#000000" font-family="sans-serif" font-size="14" lengthAdjust="spacing" textLength="78" x="1642" y="2739.9473">UsuarioDAO</text><text fill="#000000" font-family="sans-serif" font-size="14" lengthAdjust="spacing" textLength="81" x="1888.5" y="100.8848">elCamelloDB</text><path d="M1914,50.3516 C1914,40.3516 1932,40.3516 1932,40.3516 C1932,40.3516 1950,40.3516 1950,50.3516 L1950,76.3516 C1950,86.3516 1932,86.3516 1932,86.3516 C1932,86.3516 1914,86.3516 1914,76.3516 L1914,50.3516 " fill="#E2E2F0" style="stroke:#181818;stroke-width:1.5;"/><path d="M1914,50.3516 C1914,60.3516 1932,60.3516 1932,60.3516 C1932,60.3516 1950,60.3516 1950,50.3516 " fill="none" style="stroke:#181818;stroke-width:1.5;"/><text fill="#000000" font-family="sans-serif" font-size="14" lengthAdjust="spacing" textLength="81" x="1888.5" y="2715.3379">elCamelloDB</text><path d="M1914,2728.4141 C1914,2718.4141 1932,2718.4141 1932,2718.4141 C1932,2718.4141 1950,2718.4141 1950,2728.4141 L1950,2754.4141 C1950,2764.4141 1932,2764.4141 1932,2764.4141 C1932,2764.4141 1914,2764.4141 1914,2754.4141 L1914,2728.4141 " fill="#E2E2F0" style="stroke:#181818;stroke-width:1.5;"/><path d="M1914,2728.4141 C1914,2738.4141 1932,2738.4141 1932,2738.4141 C1932,2738.4141 1950,2738.4141 1950,2728.4141 " fill="none" style="stroke:#181818;stroke-width:1.5;"/><rect fill="#FFFFFF" height="2556.4922" style="stroke:#181818;stroke-width:1.0;" width="10" x="37" y="136.3125"/><rect fill="#FFFFFF" height="2556.4922" style="stroke:#181818;stroke-width:1.0;" width="10" x="175" y="136.3125"/><rect fill="#FFFFFF" height="2526.1406" style="stroke:#181818;stroke-width:1.0;" width="10" x="325" y="166.6641"/><rect fill="#FFFFFF" height="1907.6563" style="stroke:#181818;stroke-width:1.0;" width="10" x="488" y="709.4453"/><rect fill="#FFFFFF" height="1953.0078" style="stroke:#181818;stroke-width:1.0;" width="10" x="788" y="739.7969"/><rect fill="#FFFFFF" height="881.7109" style="stroke:#181818;stroke-width:1.0;" width="10" x="1063" y="770.1484"/><rect fill="#FFFFFF" height="671.8984" style="stroke:#181818;stroke-width:1.0;" width="10" x="1338" y="800.5"/><rect fill="#FFFFFF" height="1616.7891" style="stroke:#181818;stroke-width:1.0;" width="10" x="1676" y="939.6094"/><rect fill="#FFFFFF" height="828.0078" style="stroke:#181818;stroke-width:1.0;" width="10" x="1927" y="969.9609"/><polygon fill="#181818" points="163,132.3125,173,136.3125,163,140.3125,167,136.3125" style="stroke:#181818;stroke-width:1.0;"/><line style="stroke:#181818;stroke-width:1.0;" x1="47" x2="169" y1="136.3125" y2="136.3125"/><text fill="#000000" font-family="sans-serif" font-size="13" lengthAdjust="spacing" textLength="114" x="54" y="131.4561">btnSiguiente_click()</text><polygon fill="#181818" points="313,162.6641,323,166.6641,313,170.6641,317,166.6641" style="stroke:#181818;stroke-width:1.0;"/><line style="stroke:#181818;stroke-width:1.0;" x1="185" x2="319" y1="166.6641" y2="166.6641"/><text fill="#000000" font-family="sans-serif" font-size="13" lengthAdjust="spacing" textLength="94" x="192" y="161.8076">CargarVentana()</text><line style="stroke:#181818;stroke-width:1.0;" x1="335" x2="377" y1="197.0156" y2="197.0156"/><line style="stroke:#181818;stroke-width:1.0;" x1="377" x2="377" y1="197.0156" y2="210.0156"/><line style="stroke:#181818;stroke-width:1.0;" x1="336" x2="377" y1="210.0156" y2="210.0156"/><line style="stroke:#181818;stroke-width:1.0;" x1="336" x2="346" y1="210.0156" y2="206.0156"/><line style="stroke:#181818;stroke-width:1.0;" x1="336" x2="346" y1="210.0156" y2="214.0156"/><text fill="#000000" font-family="sans-serif" font-size="13" lengthAdjust="spacing" textLength="94" x="342" y="192.1592">CargarVentana()</text><polygon fill="#181818" points="163,236.3672,173,240.3672,163,244.3672,167,240.3672" style="stroke:#181818;stroke-width:1.0;"/><line style="stroke:#181818;stroke-width:1.0;" x1="47" x2="169" y1="240.3672" y2="240.3672"/><text fill="#000000" font-family="sans-serif" font-size="13" lengthAdjust="spacing" textLength="81" x="54" y="235.5107">capturarDatos</text><polygon fill="#181818" points="163,266.7188,173,270.7188,163,274.7188,167,270.7188" style="stroke:#181818;stroke-width:1.0;"/><line style="stroke:#181818;stroke-width:1.0;" x1="47" x2="169" y1="270.7188" y2="270.7188"/><text fill="#000000" font-family="sans-serif" font-size="13" lengthAdjust="spacing" textLength="100" x="54" y="265.8623">btnGuardar_Click</text><polygon fill="#181818" points="313,297.0703,323,301.0703,313,305.0703,317,301.0703" style="stroke:#181818;stroke-width:1.0;"/><line style="stroke:#181818;stroke-width:1.0;" x1="185" x2="319" y1="301.0703" y2="301.0703"/><text fill="#000000" font-family="sans-serif" font-size="13" lengthAdjust="spacing" textLength="100" x="192" y="296.2139">btnGuardar_Click</text><line style="stroke:#181818;stroke-width:1.0;" x1="335" x2="377" y1="331.4219" y2="331.4219"/><line style="stroke:#181818;stroke-width:1.0;" x1="377" x2="377" y1="331.4219" y2="344.4219"/><line style="stroke:#181818;stroke-width:1.0;" x1="336" x2="377" y1="344.4219" y2="344.4219"/><line style="stroke:#181818;stroke-width:1.0;" x1="336" x2="346" y1="344.4219" y2="340.4219"/><line style="stroke:#181818;stroke-width:1.0;" x1="336" x2="346" y1="344.4219" y2="348.4219"/><text fill="#000000" font-family="sans-serif" font-size="13" lengthAdjust="spacing" textLength="137" x="342" y="326.5654">validarCampos(isNuevo)</text><path d="M240,359.4219 L313,359.4219 L313,367.7734 L303,377.7734 L240,377.7734 L240,359.4219 " fill="#EEEEEE" style="stroke:#000000;stroke-width:1.5;"/><rect fill="none" height="304.3203" style="stroke:#000000;stroke-width:1.5;" width="251" x="240" y="359.4219"/><text fill="#000000" font-family="sans-serif" font-size="13" font-weight="bold" lengthAdjust="spacing" textLength="28" x="255" y="373.917">loop</text><text fill="#000000" font-family="sans-serif" font-size="11" font-weight="bold" lengthAdjust="spacing" textLength="135" x="328" y="372.8408">[validarCampos == false]</text><path d="M250,384.7734 L311,384.7734 L311,393.125 L301,403.125 L250,403.125 L250,384.7734 " fill="#EEEEEE" style="stroke:#000000;stroke-width:1.5;"/><rect fill="none" height="271.9688" style="stroke:#000000;stroke-width:1.5;" width="231" x="250" y="384.7734"/><text fill="#000000" font-family="sans-serif" font-size="13" font-weight="bold" lengthAdjust="spacing" textLength="16" x="265" y="399.2686">alt</text><text fill="#000000" font-family="sans-serif" font-size="11" font-weight="bold" lengthAdjust="spacing" textLength="89" x="326" y="398.1924">[camposVacios]</text><line style="stroke:#181818;stroke-width:1.0;" x1="335" x2="377" y1="441.8281" y2="441.8281"/><line style="stroke:#181818;stroke-width:1.0;" x1="377" x2="377" y1="441.8281" y2="454.8281"/><line style="stroke:#181818;stroke-width:1.0;" x1="336" x2="377" y1="454.8281" y2="454.8281"/><line style="stroke:#181818;stroke-width:1.0;" x1="336" x2="346" y1="454.8281" y2="450.8281"/><line style="stroke:#181818;stroke-width:1.0;" x1="336" x2="346" y1="454.8281" y2="458.8281"/><text fill="#000000" font-family="sans-serif" font-size="13" lengthAdjust="spacing" textLength="49" x="342" y="420.6201">mensaje</text><text fill="#000000" font-family="sans-serif" font-size="13" lengthAdjust="spacing" textLength="88" x="342" y="436.9717">CamposVacios</text><line style="stroke:#000000;stroke-width:1.0;stroke-dasharray:2.0,2.0;" x1="250" x2="481" y1="463.8281" y2="463.8281"/><text fill="#000000" font-family="sans-serif" font-size="11" font-weight="bold" lengthAdjust="spacing" textLength="90" x="255" y="475.2471">[fotografiaVacia]</text><line style="stroke:#181818;stroke-width:1.0;" x1="335" x2="377" y1="517.3672" y2="517.3672"/><line style="stroke:#181818;stroke-width:1.0;" x1="377" x2="377" y1="517.3672" y2="530.3672"/><line style="stroke:#181818;stroke-width:1.0;" x1="336" x2="377" y1="530.3672" y2="530.3672"/><line style="stroke:#181818;stroke-width:1.0;" x1="336" x2="346" y1="530.3672" y2="526.3672"/><line style="stroke:#181818;stroke-width:1.0;" x1="336" x2="346" y1="530.3672" y2="534.3672"/><text fill="#000000" font-family="sans-serif" font-size="13" lengthAdjust="spacing" textLength="49" x="342" y="496.1592">mensaje</text><text fill="#000000" font-family="sans-serif" font-size="13" lengthAdjust="spacing" textLength="90" x="342" y="512.5107">FotografiaVacia</text><line style="stroke:#000000;stroke-width:1.0;stroke-dasharray:2.0,2.0;" x1="250" x2="481" y1="539.3672" y2="539.3672"/><text fill="#000000" font-family="sans-serif" font-size="11" font-weight="bold" lengthAdjust="spacing" textLength="68" x="255" y="550.7861">[videoVacio]</text><line style="stroke:#181818;stroke-width:1.0;" x1="335" x2="377" y1="576.5547" y2="576.5547"/><line style="stroke:#181818;stroke-width:1.0;" x1="377" x2="377" y1="576.5547" y2="589.5547"/><line style="stroke:#181818;stroke-width:1.0;" x1="336" x2="377" y1="589.5547" y2="589.5547"/><line style="stroke:#181818;stroke-width:1.0;" x1="336" x2="346" y1="589.5547" y2="585.5547"/><line style="stroke:#181818;stroke-width:1.0;" x1="336" x2="346" y1="589.5547" y2="593.5547"/><text fill="#000000" font-family="sans-serif" font-size="13" lengthAdjust="spacing" textLength="115" x="342" y="571.6982">mensajeVideoVacio</text><line style="stroke:#000000;stroke-width:1.0;stroke-dasharray:2.0,2.0;" x1="250" x2="481" y1="598.5547" y2="598.5547"/><text fill="#000000" font-family="sans-serif" font-size="11" font-weight="bold" lengthAdjust="spacing" textLength="79" x="255" y="609.9736">[fechaInvalida]</text><line style="stroke:#181818;stroke-width:1.0;" x1="335" x2="377" y1="635.7422" y2="635.7422"/><line style="stroke:#181818;stroke-width:1.0;" x1="377" x2="377" y1="635.7422" y2="648.7422"/><line style="stroke:#181818;stroke-width:1.0;" x1="336" x2="377" y1="648.7422" y2="648.7422"/><line style="stroke:#181818;stroke-width:1.0;" x1="336" x2="346" y1="648.7422" y2="644.7422"/><line style="stroke:#181818;stroke-width:1.0;" x1="336" x2="346" y1="648.7422" y2="652.7422"/><text fill="#000000" font-family="sans-serif" font-size="13" lengthAdjust="spacing" textLength="127" x="342" y="630.8857">mensajeFechaInvalida</text><polygon fill="#181818" points="476,705.4453,486,709.4453,476,713.4453,480,709.4453" style="stroke:#181818;stroke-width:1.0;"/><line style="stroke:#181818;stroke-width:1.0;" x1="335" x2="482" y1="709.4453" y2="709.4453"/><text fill="#000000" font-family="sans-serif" font-size="13" lengthAdjust="spacing" textLength="89" x="342" y="688.2373">PostEmpleador</text><text fill="#000000" font-family="sans-serif" font-size="13" lengthAdjust="spacing" textLength="118" x="342" y="704.5889">(usuario, empleador)</text><polygon fill="#181818" points="776,735.7969,786,739.7969,776,743.7969,780,739.7969" style="stroke:#181818;stroke-width:1.0;"/><line style="stroke:#181818;stroke-width:1.0;" x1="498" x2="782" y1="739.7969" y2="739.7969"/><text fill="#000000" font-family="sans-serif" font-size="13" font-weight="bold" lengthAdjust="spacing" textLength="36" x="505" y="734.9404">POST</text><text fill="#000000" font-family="sans-serif" font-size="13" lengthAdjust="spacing" textLength="123" x="545" y="734.9404">/perfilEmpleadores</text><polygon fill="#181818" points="1051,766.1484,1061,770.1484,1051,774.1484,1055,770.1484" style="stroke:#181818;stroke-width:1.0;"/><line style="stroke:#181818;stroke-width:1.0;" x1="798" x2="1057" y1="770.1484" y2="770.1484"/><text fill="#000000" font-family="sans-serif" font-size="13" lengthAdjust="spacing" textLength="246" x="805" y="765.292">postEmpleador(empleadorNuevo, callback)</text><polygon fill="#181818" points="1326,796.5,1336,800.5,1326,804.5,1330,800.5" style="stroke:#181818;stroke-width:1.0;"/><line style="stroke:#181818;stroke-width:1.0;" x1="1073" x2="1332" y1="800.5" y2="800.5"/><text fill="#000000" font-family="sans-serif" font-size="13" lengthAdjust="spacing" textLength="246" x="1080" y="795.6436">postEmpleador(empleadorNuevo, callback)</text><line style="stroke:#181818;stroke-width:1.0;" x1="1348" x2="1390" y1="879.9063" y2="879.9063"/><line style="stroke:#181818;stroke-width:1.0;" x1="1390" x2="1390" y1="879.9063" y2="892.9063"/><line style="stroke:#181818;stroke-width:1.0;" x1="1349" x2="1390" y1="892.9063" y2="892.9063"/><line style="stroke:#181818;stroke-width:1.0;" x1="1349" x2="1359" y1="892.9063" y2="888.9063"/><line style="stroke:#181818;stroke-width:1.0;" x1="1349" x2="1359" y1="892.9063" y2="896.9063"/><text fill="#000000" font-family="sans-serif" font-size="13" lengthAdjust="spacing" textLength="109" x="1355" y="825.9951">comprobarRegistro</text><text fill="#000000" font-family="sans-serif" font-size="13" lengthAdjust="spacing" textLength="194" x="1355" y="842.3467">(empleadorNuevo.nombreUsuario,</text><text fill="#000000" font-family="sans-serif" font-size="13" lengthAdjust="spacing" textLength="204" x="1355" y="858.6982">empleadorNuevo.correoElectronico,</text><text fill="#000000" font-family="sans-serif" font-size="13" lengthAdjust="spacing" textLength="314" x="1355" y="875.0498">function (codigoRespuesta, cuerpoRespuestaRegistro)</text><polygon fill="#181818" points="1664,935.6094,1674,939.6094,1664,943.6094,1668,939.6094" style="stroke:#181818;stroke-width:1.0;"/><line style="stroke:#181818;stroke-width:1.0;" x1="1348" x2="1670" y1="939.6094" y2="939.6094"/><text fill="#000000" font-family="sans-serif" font-size="13" lengthAdjust="spacing" textLength="62" x="1355" y="918.4014">putUsuario</text><text fill="#000000" font-family="sans-serif" font-size="13" lengthAdjust="spacing" textLength="106" x="1355" y="934.7529">(usuario, callback)</text><polygon fill="#181818" points="1915,965.9609,1925,969.9609,1915,973.9609,1919,969.9609" style="stroke:#181818;stroke-width:1.0;"/><line style="stroke:#181818;stroke-width:1.0;" x1="1686" x2="1921" y1="969.9609" y2="969.9609"/><text fill="#000000" font-family="sans-serif" font-size="13" lengthAdjust="spacing" textLength="159" x="1693" y="965.1045">INSERT INTO perfil_usuario</text><path d="M1942,982.9609 L1942,1139.9609 L2104,1139.9609 L2104,992.9609 L2094,982.9609 L1942,982.9609 " fill="#FEFFDD" style="stroke:#181818;stroke-width:0.5;"/><path d="M2094,982.9609 L2094,992.9609 L2104,992.9609 L2094,982.9609 " fill="#FEFFDD" style="stroke:#181818;stroke-width:0.5;"/><text fill="#000000" font-family="sans-serif" font-size="13" font-weight="bold" lengthAdjust="spacing" textLength="62" x="1948" y="1001.4561">PAYLOAD</text><text fill="#000000" font-family="sans-serif" font-size="13" lengthAdjust="spacing" textLength="4" x="1948" y="1017.8076"> </text><text fill="#000000" font-family="sans-serif" font-size="13" lengthAdjust="spacing" textLength="69" x="1948" y="1034.1592">clave: string</text><text fill="#000000" font-family="sans-serif" font-size="13" lengthAdjust="spacing" textLength="65" x="1948" y="1050.5107">estatus: int</text><text fill="#000000" font-family="sans-serif" font-size="13" lengthAdjust="spacing" textLength="105" x="1948" y="1066.8623">idPerfilUsuario: int</text><text fill="#000000" font-family="sans-serif" font-size="13" lengthAdjust="spacing" textLength="141" x="1948" y="1083.2139">correoElectronico: string</text><text fill="#000000" font-family="sans-serif" font-size="13" lengthAdjust="spacing" textLength="127" x="1948" y="1099.5654">nombreUsuario: string</text><text fill="#000000" font-family="sans-serif" font-size="13" lengthAdjust="spacing" textLength="105" x="1948" y="1115.917">tipoUsuario: string</text><text fill="#000000" font-family="sans-serif" font-size="13" lengthAdjust="spacing" textLength="4" x="1948" y="1132.2686"> </text><line style="stroke:#181818;stroke-width:1.0;" x1="1686" x2="1696" y1="1167.4766" y2="1163.4766"/><line style="stroke:#181818;stroke-width:1.0;" x1="1686" x2="1696" y1="1167.4766" y2="1171.4766"/><line style="stroke:#181818;stroke-width:1.0;stroke-dasharray:2.0,2.0;" x1="1686" x2="1926" y1="1167.4766" y2="1167.4766"/><text fill="#000000" font-family="sans-serif" font-size="13" lengthAdjust="spacing" textLength="99" x="1703" y="1162.6201">response.insertId</text><line style="stroke:#181818;stroke-width:1.0;" x1="1348" x2="1358" y1="1197.8281" y2="1193.8281"/><line style="stroke:#181818;stroke-width:1.0;" x1="1348" x2="1358" y1="1197.8281" y2="1201.8281"/><line style="stroke:#181818;stroke-width:1.0;stroke-dasharray:2.0,2.0;" x1="1348" x2="1675" y1="1197.8281" y2="1197.8281"/><text fill="#000000" font-family="sans-serif" font-size="13" lengthAdjust="spacing" textLength="99" x="1365" y="1192.9717">response.insertId</text><polygon fill="#181818" points="1915,1224.1797,1925,1228.1797,1915,1232.1797,1919,1228.1797" style="stroke:#181818;stroke-width:1.0;"/><line style="stroke:#181818;stroke-width:1.0;" x1="1348" x2="1921" y1="1228.1797" y2="1228.1797"/><text fill="#000000" font-family="sans-serif" font-size="13" lengthAdjust="spacing" textLength="177" x="1355" y="1223.3232">INSERT INTO perfil_empleador</text><path d="M1942,1241.1797 L1942,1414.1797 L2122,1414.1797 L2122,1251.1797 L2112,1241.1797 L1942,1241.1797 " fill="#FEFFDD" style="stroke:#181818;stroke-width:0.5;"/><path d="M2112,1241.1797 L2112,1251.1797 L2122,1251.1797 L2112,1241.1797 " fill="#FEFFDD" style="stroke:#181818;stroke-width:0.5;"/><text fill="#000000" font-family="sans-serif" font-size="13" font-weight="bold" lengthAdjust="spacing" textLength="62" x="1948" y="1259.6748">PAYLOAD</text><text fill="#000000" font-family="sans-serif" font-size="13" lengthAdjust="spacing" textLength="4" x="1948" y="1276.0264"> </text><text fill="#000000" font-family="sans-serif" font-size="13" lengthAdjust="spacing" textLength="123" x="1948" y="1292.3779">idPerfilEmpleador: int</text><text fill="#000000" font-family="sans-serif" font-size="13" lengthAdjust="spacing" textLength="159" x="1948" y="1308.7295">nombreOrganizacion: string</text><text fill="#000000" font-family="sans-serif" font-size="13" lengthAdjust="spacing" textLength="83" x="1948" y="1325.0811">nombre: string</text><text fill="#000000" font-family="sans-serif" font-size="13" lengthAdjust="spacing" textLength="92" x="1948" y="1341.4326">direccion: string</text><text fill="#000000" font-family="sans-serif" font-size="13" lengthAdjust="spacing" textLength="129" x="1948" y="1357.7842">fechaNacimiento: date</text><text fill="#000000" font-family="sans-serif" font-size="13" lengthAdjust="spacing" textLength="85" x="1948" y="1374.1357">telefono: string</text><text fill="#000000" font-family="sans-serif" font-size="13" lengthAdjust="spacing" textLength="117" x="1948" y="1390.4873">amonestaciones: int</text><text fill="#000000" font-family="sans-serif" font-size="13" lengthAdjust="spacing" textLength="4" x="1948" y="1406.8389"> </text><polygon fill="#181818" points="1359,1438.0469,1349,1442.0469,1359,1446.0469,1355,1442.0469" style="stroke:#181818;stroke-width:1.0;"/><line style="stroke:#181818;stroke-width:1.0;" x1="1353" x2="1926" y1="1442.0469" y2="1442.0469"/><text fill="#000000" font-family="sans-serif" font-size="13" lengthAdjust="spacing" textLength="99" x="1365" y="1437.1904">response.insertId</text><polygon fill="#181818" points="809,1468.3984,799,1472.3984,809,1476.3984,805,1472.3984" style="stroke:#181818;stroke-width:1.0;"/><line style="stroke:#181818;stroke-width:1.0;" x1="803" x2="1342" y1="1472.3984" y2="1472.3984"/><text fill="#000000" font-family="sans-serif" font-size="13" lengthAdjust="spacing" textLength="157" x="815" y="1467.542">callback(201, idEmpleador)</text><polygon fill="#181818" points="509,1498.75,499,1502.75,509,1506.75,505,1502.75" style="stroke:#181818;stroke-width:1.0;"/><line style="stroke:#181818;stroke-width:1.0;" x1="503" x2="787" y1="1502.75" y2="1502.75"/><text fill="#000000" font-family="sans-serif" font-size="13" font-weight="bold" lengthAdjust="spacing" textLength="85" x="515" y="1497.8936">CREATED 201</text><path d="M240,1517.75 L301,1517.75 L301,1526.1016 L291,1536.1016 L240,1536.1016 L240,1517.75 " fill="#EEEEEE" style="stroke:#000000;stroke-width:1.5;"/><rect fill="none" height="1167.0547" style="stroke:#000000;stroke-width:1.5;" width="1826" x="240" y="1517.75"/><text fill="#000000" font-family="sans-serif" font-size="13" font-weight="bold" lengthAdjust="spacing" textLength="16" x="255" y="1532.2451">alt</text><text fill="#000000" font-family="sans-serif" font-size="11" font-weight="bold" lengthAdjust="spacing" textLength="57" x="316" y="1531.1689">[CREATED]</text><polygon fill="#181818" points="776,1554.4531,786,1558.4531,776,1562.4531,780,1558.4531" style="stroke:#181818;stroke-width:1.0;"/><line style="stroke:#181818;stroke-width:1.0;" x1="498" x2="782" y1="1558.4531" y2="1558.4531"/><text fill="#000000" font-family="sans-serif" font-size="13" font-weight="bold" lengthAdjust="spacing" textLength="44" x="505" y="1553.5967">PATCH</text><text fill="#000000" font-family="sans-serif" font-size="13" lengthAdjust="spacing" textLength="218" x="553" y="1553.5967">/PerfilUsuarios/:idUsuario/fotografia</text><polygon fill="#181818" points="1051,1601.1563,1061,1605.1563,1051,1609.1563,1055,1605.1563" style="stroke:#181818;stroke-width:1.0;"/><line style="stroke:#181818;stroke-width:1.0;" x1="798" x2="1057" y1="1605.1563" y2="1605.1563"/><text fill="#000000" font-family="sans-serif" font-size="13" lengthAdjust="spacing" textLength="133" x="805" y="1583.9482">patchFotografiaUsuario</text><text fill="#000000" font-family="sans-serif" font-size="13" lengthAdjust="spacing" textLength="178" x="805" y="1600.2998">(idUsuario, fotografia, callback)</text><polygon fill="#181818" points="1664,1647.8594,1674,1651.8594,1664,1655.8594,1668,1651.8594" style="stroke:#181818;stroke-width:1.0;"/><line style="stroke:#181818;stroke-width:1.0;" x1="1068" x2="1670" y1="1651.8594" y2="1651.8594"/><text fill="#000000" font-family="sans-serif" font-size="13" lengthAdjust="spacing" textLength="133" x="1075" y="1630.6514">patchFotografiaUsuario</text><text fill="#000000" font-family="sans-serif" font-size="13" lengthAdjust="spacing" textLength="178" x="1075" y="1647.0029">(idUsuario, fotografia, callback)</text><polygon fill="#181818" points="1915,1678.2109,1925,1682.2109,1915,1686.2109,1919,1682.2109" style="stroke:#181818;stroke-width:1.0;"/><line style="stroke:#181818;stroke-width:1.0;" x1="1686" x2="1921" y1="1682.2109" y2="1682.2109"/><text fill="#000000" font-family="sans-serif" font-size="13" lengthAdjust="spacing" textLength="217" x="1693" y="1677.3545">UPDATE perfil_usuario SET fotografia</text><path d="M1942,1695.2109 L1942,1770.2109 L2056,1770.2109 L2056,1705.2109 L2046,1695.2109 L1942,1695.2109 " fill="#FEFFDD" style="stroke:#181818;stroke-width:0.5;"/><path d="M2046,1695.2109 L2046,1705.2109 L2056,1705.2109 L2046,1695.2109 " fill="#FEFFDD" style="stroke:#181818;stroke-width:0.5;"/><text fill="#000000" font-family="sans-serif" font-size="13" font-weight="bold" lengthAdjust="spacing" textLength="62" x="1948" y="1713.7061">PAYLOAD</text><text fill="#000000" font-family="sans-serif" font-size="13" lengthAdjust="spacing" textLength="4" x="1948" y="1730.0576"> </text><text fill="#000000" font-family="sans-serif" font-size="13" lengthAdjust="spacing" textLength="93" x="1948" y="1746.4092">fotografia: byte[]</text><text fill="#000000" font-family="sans-serif" font-size="13" lengthAdjust="spacing" textLength="4" x="1948" y="1762.7607"> </text><line style="stroke:#181818;stroke-width:1.0;" x1="1686" x2="1696" y1="1797.9688" y2="1793.9688"/><line style="stroke:#181818;stroke-width:1.0;" x1="1686" x2="1696" y1="1797.9688" y2="1801.9688"/><line style="stroke:#181818;stroke-width:1.0;stroke-dasharray:2.0,2.0;" x1="1686" x2="1931" y1="1797.9688" y2="1797.9688"/><text fill="#000000" font-family="sans-serif" font-size="13" lengthAdjust="spacing" textLength="53" x="1703" y="1793.1123">response</text><polygon fill="#181818" points="809,1824.3203,799,1828.3203,809,1832.3203,805,1828.3203" style="stroke:#181818;stroke-width:1.0;"/><line style="stroke:#181818;stroke-width:1.0;" x1="803" x2="1675" y1="1828.3203" y2="1828.3203"/><text fill="#000000" font-family="sans-serif" font-size="13" lengthAdjust="spacing" textLength="138" x="815" y="1823.4639">callback(200, response)</text><polygon fill="#181818" points="509,1854.6719,499,1858.6719,509,1862.6719,505,1858.6719" style="stroke:#181818;stroke-width:1.0;"/><line style="stroke:#181818;stroke-width:1.0;" x1="503" x2="787" y1="1858.6719" y2="1858.6719"/><text fill="#000000" font-family="sans-serif" font-size="13" font-weight="bold" lengthAdjust="spacing" textLength="44" x="515" y="1853.8154">200 OK</text><line style="stroke:#181818;stroke-width:1.0;" x1="335" x2="345" y1="1889.0234" y2="1885.0234"/><line style="stroke:#181818;stroke-width:1.0;" x1="335" x2="345" y1="1889.0234" y2="1893.0234"/><line style="stroke:#181818;stroke-width:1.0;stroke-dasharray:2.0,2.0;" x1="335" x2="487" y1="1889.0234" y2="1889.0234"/><text fill="#000000" font-family="sans-serif" font-size="13" lengthAdjust="spacing" textLength="53" x="352" y="1884.167">response</text><line style="stroke:#181818;stroke-width:1.0;" x1="335" x2="377" y1="1935.7266" y2="1935.7266"/><line style="stroke:#181818;stroke-width:1.0;" x1="377" x2="377" y1="1935.7266" y2="1948.7266"/><line style="stroke:#181818;stroke-width:1.0;" x1="336" x2="377" y1="1948.7266" y2="1948.7266"/><line style="stroke:#181818;stroke-width:1.0;" x1="336" x2="346" y1="1948.7266" y2="1944.7266"/><line style="stroke:#181818;stroke-width:1.0;" x1="336" x2="346" y1="1948.7266" y2="1952.7266"/><text fill="#000000" font-family="sans-serif" font-size="13" lengthAdjust="spacing" textLength="49" x="342" y="1914.5186">mensaje</text><text fill="#000000" font-family="sans-serif" font-size="13" lengthAdjust="spacing" textLength="30" x="342" y="1930.8701">Exito</text><path d="M250,1963.7266 L311,1963.7266 L311,1972.0781 L301,1982.0781 L250,1982.0781 L250,1963.7266 " fill="#EEEEEE" style="stroke:#000000;stroke-width:1.5;"/><rect fill="none" height="214.2969" style="stroke:#000000;stroke-width:1.5;" width="309" x="250" y="1963.7266"/><text fill="#000000" font-family="sans-serif" font-size="13" font-weight="bold" lengthAdjust="spacing" textLength="16" x="265" y="1978.2217">alt</text><text fill="#000000" font-family="sans-serif" font-size="11" font-weight="bold" lengthAdjust="spacing" textLength="142" x="326" y="1977.1455">[INTERNAL ERROR SERVER]</text><line style="stroke:#181818;stroke-width:1.0;" x1="335" x2="345" y1="2004.4297" y2="2000.4297"/><line style="stroke:#181818;stroke-width:1.0;" x1="335" x2="345" y1="2004.4297" y2="2008.4297"/><line style="stroke:#181818;stroke-width:1.0;stroke-dasharray:2.0,2.0;" x1="335" x2="487" y1="2004.4297" y2="2004.4297"/><text fill="#000000" font-family="sans-serif" font-size="13" lengthAdjust="spacing" textLength="20" x="352" y="1999.5732">null</text><line style="stroke:#181818;stroke-width:1.0;" x1="335" x2="377" y1="2051.1328" y2="2051.1328"/><line style="stroke:#181818;stroke-width:1.0;" x1="377" x2="377" y1="2051.1328" y2="2064.1328"/><line style="stroke:#181818;stroke-width:1.0;" x1="336" x2="377" y1="2064.1328" y2="2064.1328"/><line style="stroke:#181818;stroke-width:1.0;" x1="336" x2="346" y1="2064.1328" y2="2060.1328"/><line style="stroke:#181818;stroke-width:1.0;" x1="336" x2="346" y1="2064.1328" y2="2068.1328"/><text fill="#000000" font-family="sans-serif" font-size="13" lengthAdjust="spacing" textLength="49" x="342" y="2029.9248">mensaje</text><text fill="#000000" font-family="sans-serif" font-size="13" lengthAdjust="spacing" textLength="113" x="342" y="2046.2764">ErrorInternoServidor</text><line style="stroke:#000000;stroke-width:1.0;stroke-dasharray:2.0,2.0;" x1="250" x2="559" y1="2073.1328" y2="2073.1328"/><text fill="#000000" font-family="sans-serif" font-size="11" font-weight="bold" lengthAdjust="spacing" textLength="68" x="255" y="2084.5518">[NOT FOUND]</text><line style="stroke:#181818;stroke-width:1.0;" x1="335" x2="345" y1="2110.3203" y2="2106.3203"/><line style="stroke:#181818;stroke-width:1.0;" x1="335" x2="345" y1="2110.3203" y2="2114.3203"/><line style="stroke:#181818;stroke-width:1.0;stroke-dasharray:2.0,2.0;" x1="335" x2="487" y1="2110.3203" y2="2110.3203"/><text fill="#000000" font-family="sans-serif" font-size="13" lengthAdjust="spacing" textLength="20" x="352" y="2105.4639">null</text><line style="stroke:#181818;stroke-width:1.0;" x1="335" x2="377" y1="2157.0234" y2="2157.0234"/><line style="stroke:#181818;stroke-width:1.0;" x1="377" x2="377" y1="2157.0234" y2="2170.0234"/><line style="stroke:#181818;stroke-width:1.0;" x1="336" x2="377" y1="2170.0234" y2="2170.0234"/><line style="stroke:#181818;stroke-width:1.0;" x1="336" x2="346" y1="2170.0234" y2="2166.0234"/><line style="stroke:#181818;stroke-width:1.0;" x1="336" x2="346" y1="2170.0234" y2="2174.0234"/><text fill="#000000" font-family="sans-serif" font-size="13" lengthAdjust="spacing" textLength="49" x="342" y="2135.8154">mensaje</text><text fill="#000000" font-family="sans-serif" font-size="13" lengthAdjust="spacing" textLength="129" x="342" y="2152.167">PeticionNoEncontrada</text><line style="stroke:#000000;stroke-width:1.0;stroke-dasharray:2.0,2.0;" x1="240" x2="2066" y1="2186.0234" y2="2186.0234"/><text fill="#000000" font-family="sans-serif" font-size="11" font-weight="bold" lengthAdjust="spacing" textLength="142" x="245" y="2197.4424">[INTERNAL ERROR SERVER]</text><polygon fill="#181818" points="809,2219.2109,799,2223.2109,809,2227.2109,805,2223.2109" style="stroke:#181818;stroke-width:1.0;"/><line style="stroke:#181818;stroke-width:1.0;" x1="803" x2="1675" y1="2223.2109" y2="2223.2109"/><text fill="#000000" font-family="sans-serif" font-size="13" lengthAdjust="spacing" textLength="134" x="815" y="2218.3545">callback(500, mensaje)</text><polygon fill="#181818" points="509,2249.5625,499,2253.5625,509,2257.5625,505,2253.5625" style="stroke:#181818;stroke-width:1.0;"/><line style="stroke:#181818;stroke-width:1.0;" x1="503" x2="787" y1="2253.5625" y2="2253.5625"/><text fill="#000000" font-family="sans-serif" font-size="13" font-weight="bold" lengthAdjust="spacing" textLength="194" x="515" y="2248.7061">500 INTERNAL SERVER ERROR</text><line style="stroke:#181818;stroke-width:1.0;" x1="335" x2="345" y1="2283.9141" y2="2279.9141"/><line style="stroke:#181818;stroke-width:1.0;" x1="335" x2="345" y1="2283.9141" y2="2287.9141"/><line style="stroke:#181818;stroke-width:1.0;stroke-dasharray:2.0,2.0;" x1="335" x2="487" y1="2283.9141" y2="2283.9141"/><text fill="#000000" font-family="sans-serif" font-size="13" lengthAdjust="spacing" textLength="20" x="352" y="2279.0576">null</text><line style="stroke:#181818;stroke-width:1.0;" x1="335" x2="377" y1="2330.6172" y2="2330.6172"/><line style="stroke:#181818;stroke-width:1.0;" x1="377" x2="377" y1="2330.6172" y2="2343.6172"/><line style="stroke:#181818;stroke-width:1.0;" x1="336" x2="377" y1="2343.6172" y2="2343.6172"/><line style="stroke:#181818;stroke-width:1.0;" x1="336" x2="346" y1="2343.6172" y2="2339.6172"/><line style="stroke:#181818;stroke-width:1.0;" x1="336" x2="346" y1="2343.6172" y2="2347.6172"/><text fill="#000000" font-family="sans-serif" font-size="13" lengthAdjust="spacing" textLength="49" x="342" y="2309.4092">mensaje</text><text fill="#000000" font-family="sans-serif" font-size="13" lengthAdjust="spacing" textLength="113" x="342" y="2325.7607">ErrorInternoServidor</text><line style="stroke:#000000;stroke-width:1.0;stroke-dasharray:2.0,2.0;" x1="240" x2="2066" y1="2352.6172" y2="2352.6172"/><text fill="#000000" font-family="sans-serif" font-size="11" font-weight="bold" lengthAdjust="spacing" textLength="140" x="245" y="2364.0361">[UNPROCESSABLE ENTITY]</text><polygon fill="#181818" points="809,2385.8047,799,2389.8047,809,2393.8047,805,2389.8047" style="stroke:#181818;stroke-width:1.0;"/><line style="stroke:#181818;stroke-width:1.0;" x1="803" x2="1675" y1="2389.8047" y2="2389.8047"/><text fill="#000000" font-family="sans-serif" font-size="13" lengthAdjust="spacing" textLength="134" x="815" y="2384.9482">callback(422, mensaje)</text><polygon fill="#181818" points="509,2416.1563,499,2420.1563,509,2424.1563,505,2420.1563" style="stroke:#181818;stroke-width:1.0;"/><line style="stroke:#181818;stroke-width:1.0;" x1="503" x2="787" y1="2420.1563" y2="2420.1563"/><text fill="#000000" font-family="sans-serif" font-size="13" font-weight="bold" lengthAdjust="spacing" textLength="189" x="515" y="2415.2998">422 UNPROCESSABLE ENTITY</text><line style="stroke:#181818;stroke-width:1.0;" x1="335" x2="345" y1="2450.5078" y2="2446.5078"/><line style="stroke:#181818;stroke-width:1.0;" x1="335" x2="345" y1="2450.5078" y2="2454.5078"/><line style="stroke:#181818;stroke-width:1.0;stroke-dasharray:2.0,2.0;" x1="335" x2="487" y1="2450.5078" y2="2450.5078"/><text fill="#000000" font-family="sans-serif" font-size="13" lengthAdjust="spacing" textLength="20" x="352" y="2445.6514">null</text><line style="stroke:#181818;stroke-width:1.0;" x1="335" x2="377" y1="2497.2109" y2="2497.2109"/><line style="stroke:#181818;stroke-width:1.0;" x1="377" x2="377" y1="2497.2109" y2="2510.2109"/><line style="stroke:#181818;stroke-width:1.0;" x1="336" x2="377" y1="2510.2109" y2="2510.2109"/><line style="stroke:#181818;stroke-width:1.0;" x1="336" x2="346" y1="2510.2109" y2="2506.2109"/><line style="stroke:#181818;stroke-width:1.0;" x1="336" x2="346" y1="2510.2109" y2="2514.2109"/><text fill="#000000" font-family="sans-serif" font-size="13" lengthAdjust="spacing" textLength="49" x="342" y="2476.0029">mensaje</text><text fill="#000000" font-family="sans-serif" font-size="13" lengthAdjust="spacing" textLength="139" x="342" y="2492.3545">InstruccionNoprocesada</text><line style="stroke:#000000;stroke-width:1.0;stroke-dasharray:2.0,2.0;" x1="240" x2="2066" y1="2519.2109" y2="2519.2109"/><text fill="#000000" font-family="sans-serif" font-size="11" font-weight="bold" lengthAdjust="spacing" textLength="68" x="245" y="2530.6299">[NOT FOUND]</text><polygon fill="#181818" points="809,2552.3984,799,2556.3984,809,2560.3984,805,2556.3984" style="stroke:#181818;stroke-width:1.0;"/><line style="stroke:#181818;stroke-width:1.0;" x1="803" x2="1680" y1="2556.3984" y2="2556.3984"/><text fill="#000000" font-family="sans-serif" font-size="13" lengthAdjust="spacing" textLength="134" x="815" y="2551.542">callback(404, mensaje)</text><polygon fill="#181818" points="509,2582.75,499,2586.75,509,2590.75,505,2586.75" style="stroke:#181818;stroke-width:1.0;"/><line style="stroke:#181818;stroke-width:1.0;" x1="503" x2="787" y1="2586.75" y2="2586.75"/><text fill="#000000" font-family="sans-serif" font-size="13" font-weight="bold" lengthAdjust="spacing" textLength="101" x="515" y="2581.8936">404 NOT FOUND</text><line style="stroke:#181818;stroke-width:1.0;" x1="335" x2="345" y1="2617.1016" y2="2613.1016"/><line style="stroke:#181818;stroke-width:1.0;" x1="335" x2="345" y1="2617.1016" y2="2621.1016"/><line style="stroke:#181818;stroke-width:1.0;stroke-dasharray:2.0,2.0;" x1="335" x2="492" y1="2617.1016" y2="2617.1016"/><text fill="#000000" font-family="sans-serif" font-size="13" lengthAdjust="spacing" textLength="20" x="352" y="2612.2451">null</text><line style="stroke:#181818;stroke-width:1.0;" x1="335" x2="377" y1="2663.8047" y2="2663.8047"/><line style="stroke:#181818;stroke-width:1.0;" x1="377" x2="377" y1="2663.8047" y2="2676.8047"/><line style="stroke:#181818;stroke-width:1.0;" x1="336" x2="377" y1="2676.8047" y2="2676.8047"/><line style="stroke:#181818;stroke-width:1.0;" x1="336" x2="346" y1="2676.8047" y2="2672.8047"/><line style="stroke:#181818;stroke-width:1.0;" x1="336" x2="346" y1="2676.8047" y2="2680.8047"/><text fill="#000000" font-family="sans-serif" font-size="13" lengthAdjust="spacing" textLength="49" x="342" y="2642.5967">mensaje</text><text fill="#000000" font-family="sans-serif" font-size="13" lengthAdjust="spacing" textLength="129" x="342" y="2658.9482">PeticionNoEncontrada</text><!--MD5=[2ca241a1815da833dc8c8c3c9e0c62fe]
@startuml

box Cliente
    actor Empleador as a
    participant RegistrarEmpleador as b <<GUI>> 
    participant RegistrarEmpleador as c <<Controller>>
    participant EmpleadorDAO as d <<DAO>>

end box

box Servidor
    participant ElCamelloAPI as e <<API>>
    participant GestionUsuarios as f <<Componente>>
    participant EmpleadorDAO as g <<DAO>>
    participant UsuarioDAO as h <<DAO>>
    database elCamelloDB as db
end box

a -> b: btnSiguiente_click()
activate a
activate b

b -> c: CargarVentana()
activate c

c ->> c: CargarVentana()

a -> b: capturarDatos

a -> b : btnGuardar_Click

b -> c: btnGuardar_Click

c ->> c: validarCampos(isNuevo)

loop validarCampos == false

     alt camposVacios

        c ->> c: mensaje\nCamposVacios 

    else fotografiaVacia

        c ->> c: mensaje\nFotografiaVacia

    else videoVacio

        c ->> c: mensajeVideoVacio

    else fechaInvalida

        c ->> c: mensajeFechaInvalida

    end

end

c -> d: PostEmpleador\n(usuario, empleador)
activate d

d -> e: **POST** /perfilEmpleadores
activate e

e -> f: postEmpleador(empleadorNuevo, callback)
activate f

f -> g: postEmpleador(empleadorNuevo, callback)
activate g

g ->> g: comprobarRegistro\n(empleadorNuevo.nombreUsuario, \nempleadorNuevo.correoElectronico, \nfunction (codigoRespuesta, cuerpoRespuestaRegistro)

g -> h: putUsuario\n(usuario, callback)
activate h

h -> db: INSERT INTO perfil_usuario
activate db

note right of db
**PAYLOAD**

clave: string
estatus: int
idPerfilUsuario: int
correoElectronico: string
nombreUsuario: string 
tipoUsuario: string

end note

db - ->> h: response.insertId

h - ->> g: response.insertId

g -> db: INSERT INTO perfil_empleador

note right of db
**PAYLOAD**

idPerfilEmpleador: int
nombreOrganizacion: string
nombre: string
direccion: string
fechaNacimiento: date
telefono: string
amonestaciones: int

end note

db -> g: response.insertId

g -> e: callback(201, idEmpleador)
deactivate g

e -> d: **CREATED 201**

alt CREATED

    d -> e: **PATCH** /PerfilUsuarios/:idUsuario/fotografia

    e -> f: patchFotografiaUsuario\n(idUsuario, fotografia, callback)

    f -> h: patchFotografiaUsuario\n(idUsuario, fotografia, callback)
    deactivate f

    h -> db: UPDATE perfil_usuario SET fotografia

    note right of db
    **PAYLOAD**
    
    fotografia: byte[]

    end note

    db - ->> h: response
    deactivate db

    h -> e: callback(200, response)

    e -> d: **200 OK**

    d - ->> c: response

    c ->> c: mensaje\nExito

    alt INTERNAL ERROR SERVER

        d - ->> c: null

        c ->> c: mensaje\nErrorInternoServidor

    else NOT FOUND

        d - ->> c: null

        c ->> c: mensaje\nPeticionNoEncontrada

    end

else INTERNAL ERROR SERVER

    h -> e: callback(500, mensaje)

    e -> d: **500 INTERNAL SERVER ERROR **

    d - ->> c: null

    c ->> c: mensaje\nErrorInternoServidor

else UNPROCESSABLE ENTITY

    h -> e: callback(422, mensaje)

    e -> d: **422 UNPROCESSABLE ENTITY**

    d - ->> c: null

    c ->> c: mensaje\nInstruccionNoprocesada

else NOT FOUND

    h -> e: callback(404, mensaje)
    deactivate h

    e -> d: **404 NOT FOUND**

    d - ->> c: null

    deactivate d

    c ->> c: mensaje\nPeticionNoEncontrada

end

@enduml

PlantUML version 1.2022.5(Sat Apr 30 05:55:52 CDT 2022)
(GPL source distribution)
Java Runtime: Java(TM) SE Runtime Environment
JVM: Java HotSpot(TM) 64-Bit Server VM
Default Encoding: Cp1252
Language: es
Country: MX
--></g></svg>