<?xml version="1.0" encoding="UTF-8" standalone="no"?><svg xmlns="http://www.w3.org/2000/svg" xmlns:xlink="http://www.w3.org/1999/xlink" contentStyleType="text/css" height="1430px" preserveAspectRatio="none" style="width:1620px;height:1430px;background:#FFFFFF;" version="1.1" viewBox="0 0 1620 1430" width="1620px" zoomAndPan="magnify"><defs/><g><rect fill="#DDDDDD" height="1418.0078" style="stroke:#181818;stroke-width:0.5;" width="609.5" x="1" y="6"/><text fill="#000000" font-family="sans-serif" font-size="13" font-weight="bold" lengthAdjust="spacing" textLength="45" x="283.25" y="19.4951">Cliente</text><rect fill="#DDDDDD" height="1418.0078" style="stroke:#181818;stroke-width:0.5;" width="770.5" x="728.5" y="6"/><text fill="#000000" font-family="sans-serif" font-size="13" font-weight="bold" lengthAdjust="spacing" textLength="54" x="1086.75" y="19.4951">Servidor</text><rect fill="#FFFFFF" height="1198.0859" style="stroke:#181818;stroke-width:1.0;" width="10" x="46.5" y="136.3125"/><rect fill="#FFFFFF" height="1198.0859" style="stroke:#181818;stroke-width:1.0;" width="10" x="166.5" y="136.3125"/><rect fill="#FFFFFF" height="1167.7344" style="stroke:#181818;stroke-width:1.0;" width="10" x="356.5" y="166.6641"/><rect fill="#FFFFFF" height="1121.0313" style="stroke:#181818;stroke-width:1.0;" width="10" x="548.5" y="213.3672"/><rect fill="#FFFFFF" height="1037.9766" style="stroke:#181818;stroke-width:1.0;" width="10" x="776.5" y="296.4219"/><rect fill="#FFFFFF" height="76.7031" style="stroke:#181818;stroke-width:1.0;" width="10" x="929.5" y="343.125"/><rect fill="#FFFFFF" height="944.5703" style="stroke:#181818;stroke-width:1.0;" width="10" x="1105.5" y="389.8281"/><rect fill="#FFFFFF" height="132.1094" style="stroke:#181818;stroke-width:1.0;" width="10" x="1446.5" y="526.2344"/><rect height="502.2969" style="stroke:#000000;stroke-width:1.5;fill:none;" width="909" x="288" y="824.1016"/><line style="stroke:#181818;stroke-width:0.5;fill:none;stroke-dasharray:5.0,5.0;" x1="51" x2="51" y1="103.9609" y2="1343.3984"/><line style="stroke:#181818;stroke-width:0.5;fill:none;stroke-dasharray:5.0,5.0;" x1="171" x2="171" y1="103.9609" y2="1343.3984"/><line style="stroke:#181818;stroke-width:0.5;fill:none;stroke-dasharray:5.0,5.0;" x1="361" x2="361" y1="103.9609" y2="1343.3984"/><line style="stroke:#181818;stroke-width:0.5;fill:none;stroke-dasharray:5.0,5.0;" x1="553.5" x2="553.5" y1="103.9609" y2="1343.3984"/><line style="stroke:#181818;stroke-width:0.5;fill:none;stroke-dasharray:5.0,5.0;" x1="781.5" x2="781.5" y1="103.9609" y2="1343.3984"/><line style="stroke:#181818;stroke-width:0.5;fill:none;stroke-dasharray:5.0,5.0;" x1="934" x2="934" y1="103.9609" y2="1343.3984"/><line style="stroke:#181818;stroke-width:0.5;fill:none;stroke-dasharray:5.0,5.0;" x1="1110" x2="1110" y1="103.9609" y2="1343.3984"/><line style="stroke:#181818;stroke-width:0.5;fill:none;stroke-dasharray:5.0,5.0;" x1="1451" x2="1451" y1="103.9609" y2="1343.3984"/><text fill="#000000" font-family="sans-serif" font-size="14" lengthAdjust="spacing" textLength="87" x="5" y="100.8848">Administrador</text><ellipse cx="51.5" cy="34.8516" fill="#E2E2F0" rx="8" ry="8" style="stroke:#181818;stroke-width:0.5;"/><path d="M51.5,42.8516 L51.5,69.8516 M38.5,50.8516 L64.5,50.8516 M51.5,69.8516 L38.5,84.8516 M51.5,69.8516 L64.5,84.8516 " fill="none" style="stroke:#181818;stroke-width:0.5;"/><text fill="#000000" font-family="sans-serif" font-size="14" lengthAdjust="spacing" textLength="87" x="5" y="1356.9316">Administrador</text><ellipse cx="51.5" cy="1368.5078" fill="#E2E2F0" rx="8" ry="8" style="stroke:#181818;stroke-width:0.5;"/><path d="M51.5,1376.5078 L51.5,1403.5078 M38.5,1384.5078 L64.5,1384.5078 M51.5,1403.5078 L38.5,1418.5078 M51.5,1403.5078 L64.5,1418.5078 " fill="none" style="stroke:#181818;stroke-width:0.5;"/><rect fill="#E2E2F0" height="49.2188" rx="2.5" ry="2.5" style="stroke:#181818;stroke-width:0.5;" width="127" x="108" y="53.7422"/><text fill="#000000" font-family="sans-serif" font-size="14" font-style="italic" lengthAdjust="spacing" textLength="41" x="151" y="75.2754">«GUI»</text><text fill="#000000" font-family="sans-serif" font-size="14" lengthAdjust="spacing" textLength="113" x="115" y="92.8848">categoriasEmpleo</text><rect fill="#E2E2F0" height="49.2188" rx="2.5" ry="2.5" style="stroke:#181818;stroke-width:0.5;" width="127" x="108" y="1342.3984"/><text fill="#000000" font-family="sans-serif" font-size="14" font-style="italic" lengthAdjust="spacing" textLength="41" x="151" y="1363.9316">«GUI»</text><text fill="#000000" font-family="sans-serif" font-size="14" lengthAdjust="spacing" textLength="113" x="115" y="1381.541">categoriasEmpleo</text><rect fill="#E2E2F0" height="49.2188" rx="2.5" ry="2.5" style="stroke:#181818;stroke-width:0.5;" width="127" x="298" y="53.7422"/><text fill="#000000" font-family="sans-serif" font-size="14" font-style="italic" lengthAdjust="spacing" textLength="78" x="322.5" y="75.2754">«Controller»</text><text fill="#000000" font-family="sans-serif" font-size="14" lengthAdjust="spacing" textLength="113" x="305" y="92.8848">categoriasEmpleo</text><rect fill="#E2E2F0" height="49.2188" rx="2.5" ry="2.5" style="stroke:#181818;stroke-width:0.5;" width="127" x="298" y="1342.3984"/><text fill="#000000" font-family="sans-serif" font-size="14" font-style="italic" lengthAdjust="spacing" textLength="78" x="322.5" y="1363.9316">«Controller»</text><text fill="#000000" font-family="sans-serif" font-size="14" lengthAdjust="spacing" textLength="113" x="305" y="1381.541">categoriasEmpleo</text><rect fill="#E2E2F0" height="49.2188" rx="2.5" ry="2.5" style="stroke:#181818;stroke-width:0.5;" width="106" x="500.5" y="53.7422"/><text fill="#000000" font-family="sans-serif" font-size="14" font-style="italic" lengthAdjust="spacing" textLength="46" x="530.5" y="75.2754">«DAO»</text><text fill="#000000" font-family="sans-serif" font-size="14" lengthAdjust="spacing" textLength="92" x="507.5" y="92.8848">CategoriaDAO</text><rect fill="#E2E2F0" height="49.2188" rx="2.5" ry="2.5" style="stroke:#181818;stroke-width:0.5;" width="106" x="500.5" y="1342.3984"/><text fill="#000000" font-family="sans-serif" font-size="14" font-style="italic" lengthAdjust="spacing" textLength="46" x="530.5" y="1363.9316">«DAO»</text><text fill="#000000" font-family="sans-serif" font-size="14" lengthAdjust="spacing" textLength="92" x="507.5" y="1381.541">CategoriaDAO</text><rect fill="#E2E2F0" height="49.2188" rx="2.5" ry="2.5" style="stroke:#181818;stroke-width:0.5;" width="98" x="732.5" y="53.7422"/><text fill="#000000" font-family="sans-serif" font-size="14" font-style="italic" lengthAdjust="spacing" textLength="38" x="762.5" y="75.2754">«API»</text><text fill="#000000" font-family="sans-serif" font-size="14" lengthAdjust="spacing" textLength="84" x="739.5" y="92.8848">ElCamelloAPI</text><rect fill="#E2E2F0" height="49.2188" rx="2.5" ry="2.5" style="stroke:#181818;stroke-width:0.5;" width="98" x="732.5" y="1342.3984"/><text fill="#000000" font-family="sans-serif" font-size="14" font-style="italic" lengthAdjust="spacing" textLength="38" x="762.5" y="1363.9316">«API»</text><text fill="#000000" font-family="sans-serif" font-size="14" lengthAdjust="spacing" textLength="84" x="739.5" y="1381.541">ElCamelloAPI</text><rect fill="#E2E2F0" height="49.2188" rx="2.5" ry="2.5" style="stroke:#181818;stroke-width:0.5;" width="179" x="845" y="53.7422"/><text fill="#000000" font-family="sans-serif" font-size="14" font-style="italic" lengthAdjust="spacing" textLength="97" x="886" y="75.2754">«Componente»</text><text fill="#000000" font-family="sans-serif" font-size="14" lengthAdjust="spacing" textLength="165" x="852" y="92.8848">GestionCategoriasEmpleo</text><rect fill="#E2E2F0" height="49.2188" rx="2.5" ry="2.5" style="stroke:#181818;stroke-width:0.5;" width="179" x="845" y="1342.3984"/><text fill="#000000" font-family="sans-serif" font-size="14" font-style="italic" lengthAdjust="spacing" textLength="97" x="886" y="1363.9316">«Componente»</text><text fill="#000000" font-family="sans-serif" font-size="14" lengthAdjust="spacing" textLength="165" x="852" y="1381.541">GestionCategoriasEmpleo</text><rect fill="#E2E2F0" height="49.2188" rx="2.5" ry="2.5" style="stroke:#181818;stroke-width:0.5;" width="153" x="1034" y="53.7422"/><text fill="#000000" font-family="sans-serif" font-size="14" font-style="italic" lengthAdjust="spacing" textLength="46" x="1087.5" y="75.2754">«DAO»</text><text fill="#000000" font-family="sans-serif" font-size="14" lengthAdjust="spacing" textLength="139" x="1041" y="92.8848">CategoriaEmpleoDAO</text><rect fill="#E2E2F0" height="49.2188" rx="2.5" ry="2.5" style="stroke:#181818;stroke-width:0.5;" width="153" x="1034" y="1342.3984"/><text fill="#000000" font-family="sans-serif" font-size="14" font-style="italic" lengthAdjust="spacing" textLength="46" x="1087.5" y="1363.9316">«DAO»</text><text fill="#000000" font-family="sans-serif" font-size="14" lengthAdjust="spacing" textLength="139" x="1041" y="1381.541">CategoriaEmpleoDAO</text><text fill="#000000" font-family="sans-serif" font-size="14" lengthAdjust="spacing" textLength="81" x="1408" y="100.8848">elCamelloDB</text><path d="M1433.5,50.3516 C1433.5,40.3516 1451.5,40.3516 1451.5,40.3516 C1451.5,40.3516 1469.5,40.3516 1469.5,50.3516 L1469.5,76.3516 C1469.5,86.3516 1451.5,86.3516 1451.5,86.3516 C1451.5,86.3516 1433.5,86.3516 1433.5,76.3516 L1433.5,50.3516 " fill="#E2E2F0" style="stroke:#181818;stroke-width:1.5;"/><path d="M1433.5,50.3516 C1433.5,60.3516 1451.5,60.3516 1451.5,60.3516 C1451.5,60.3516 1469.5,60.3516 1469.5,50.3516 " fill="none" style="stroke:#181818;stroke-width:1.5;"/><text fill="#000000" font-family="sans-serif" font-size="14" lengthAdjust="spacing" textLength="81" x="1408" y="1356.9316">elCamelloDB</text><path d="M1433.5,1370.0078 C1433.5,1360.0078 1451.5,1360.0078 1451.5,1360.0078 C1451.5,1360.0078 1469.5,1360.0078 1469.5,1370.0078 L1469.5,1396.0078 C1469.5,1406.0078 1451.5,1406.0078 1451.5,1406.0078 C1451.5,1406.0078 1433.5,1406.0078 1433.5,1396.0078 L1433.5,1370.0078 " fill="#E2E2F0" style="stroke:#181818;stroke-width:1.5;"/><path d="M1433.5,1370.0078 C1433.5,1380.0078 1451.5,1380.0078 1451.5,1380.0078 C1451.5,1380.0078 1469.5,1380.0078 1469.5,1370.0078 " fill="none" style="stroke:#181818;stroke-width:1.5;"/><rect fill="#FFFFFF" height="1198.0859" style="stroke:#181818;stroke-width:1.0;" width="10" x="46.5" y="136.3125"/><rect fill="#FFFFFF" height="1198.0859" style="stroke:#181818;stroke-width:1.0;" width="10" x="166.5" y="136.3125"/><rect fill="#FFFFFF" height="1167.7344" style="stroke:#181818;stroke-width:1.0;" width="10" x="356.5" y="166.6641"/><rect fill="#FFFFFF" height="1121.0313" style="stroke:#181818;stroke-width:1.0;" width="10" x="548.5" y="213.3672"/><rect fill="#FFFFFF" height="1037.9766" style="stroke:#181818;stroke-width:1.0;" width="10" x="776.5" y="296.4219"/><rect fill="#FFFFFF" height="76.7031" style="stroke:#181818;stroke-width:1.0;" width="10" x="929.5" y="343.125"/><rect fill="#FFFFFF" height="944.5703" style="stroke:#181818;stroke-width:1.0;" width="10" x="1105.5" y="389.8281"/><rect fill="#FFFFFF" height="132.1094" style="stroke:#181818;stroke-width:1.0;" width="10" x="1446.5" y="526.2344"/><polygon fill="#181818" points="154.5,132.3125,164.5,136.3125,154.5,140.3125,158.5,136.3125" style="stroke:#181818;stroke-width:1.0;"/><line style="stroke:#181818;stroke-width:1.0;" x1="56.5" x2="160.5" y1="136.3125" y2="136.3125"/><text fill="#000000" font-family="sans-serif" font-size="13" lengthAdjust="spacing" textLength="74" x="63.5" y="131.4561">capturarDato</text><polygon fill="#181818" points="344.5,162.6641,354.5,166.6641,344.5,170.6641,348.5,166.6641" style="stroke:#181818;stroke-width:1.0;"/><line style="stroke:#181818;stroke-width:1.0;" x1="176.5" x2="350.5" y1="166.6641" y2="166.6641"/><text fill="#000000" font-family="sans-serif" font-size="13" lengthAdjust="spacing" textLength="161" x="183.5" y="161.8076">btnRegistrarCategoria_Click</text><polygon fill="#181818" points="536.5,209.3672,546.5,213.3672,536.5,217.3672,540.5,213.3672" style="stroke:#181818;stroke-width:1.0;"/><line style="stroke:#181818;stroke-width:1.0;" x1="366.5" x2="542.5" y1="213.3672" y2="213.3672"/><text fill="#000000" font-family="sans-serif" font-size="13" lengthAdjust="spacing" textLength="82" x="373.5" y="192.1592">PostCategoria</text><text fill="#000000" font-family="sans-serif" font-size="13" lengthAdjust="spacing" textLength="163" x="373.5" y="208.5107">(string nombre, string token)</text><path d="M563,226.3672 L563,268.3672 L713,268.3672 L713,236.3672 L703,226.3672 L563,226.3672 " fill="#FEFFDD" style="stroke:#181818;stroke-width:0.5;"/><path d="M703,226.3672 L703,236.3672 L713,236.3672 L703,226.3672 " fill="#FEFFDD" style="stroke:#181818;stroke-width:0.5;"/><text fill="#000000" font-family="sans-serif" font-size="13" font-weight="bold" lengthAdjust="spacing" textLength="61" x="569" y="244.8623">HEADERS</text><text fill="#000000" font-family="sans-serif" font-size="13" lengthAdjust="spacing" textLength="129" x="569" y="261.2139">x-access-token: string</text><polygon fill="#181818" points="764.5,292.4219,774.5,296.4219,764.5,300.4219,768.5,296.4219" style="stroke:#181818;stroke-width:1.0;"/><line style="stroke:#181818;stroke-width:1.0;" x1="558.5" x2="770.5" y1="296.4219" y2="296.4219"/><text fill="#000000" font-family="sans-serif" font-size="13" font-weight="bold" lengthAdjust="spacing" textLength="36" x="565.5" y="291.5654">POST</text><text fill="#000000" font-family="sans-serif" font-size="13" lengthAdjust="spacing" textLength="124" x="605.5" y="291.5654">/categoriasEmpleo</text><polygon fill="#181818" points="917.5,339.125,927.5,343.125,917.5,347.125,921.5,343.125" style="stroke:#181818;stroke-width:1.0;"/><line style="stroke:#181818;stroke-width:1.0;" x1="786.5" x2="923.5" y1="343.125" y2="343.125"/><text fill="#000000" font-family="sans-serif" font-size="13" lengthAdjust="spacing" textLength="124" x="793.5" y="321.917">postCategoriaEmpleo</text><text fill="#000000" font-family="sans-serif" font-size="13" lengthAdjust="spacing" textLength="107" x="793.5" y="338.2686">(nombre, callback)</text><polygon fill="#181818" points="1093.5,385.8281,1103.5,389.8281,1093.5,393.8281,1097.5,389.8281" style="stroke:#181818;stroke-width:1.0;"/><line style="stroke:#181818;stroke-width:1.0;" x1="939.5" x2="1099.5" y1="389.8281" y2="389.8281"/><text fill="#000000" font-family="sans-serif" font-size="13" lengthAdjust="spacing" textLength="124" x="946.5" y="368.6201">postCategoriaEmpleo</text><text fill="#000000" font-family="sans-serif" font-size="13" lengthAdjust="spacing" textLength="107" x="946.5" y="384.9717">(nombre, callback)</text><line style="stroke:#181818;stroke-width:1.0;" x1="1115.5" x2="1157.5" y1="482.8828" y2="482.8828"/><line style="stroke:#181818;stroke-width:1.0;" x1="1157.5" x2="1157.5" y1="482.8828" y2="495.8828"/><line style="stroke:#181818;stroke-width:1.0;" x1="1116.5" x2="1157.5" y1="495.8828" y2="495.8828"/><line style="stroke:#181818;stroke-width:1.0;" x1="1116.5" x2="1126.5" y1="495.8828" y2="491.8828"/><line style="stroke:#181818;stroke-width:1.0;" x1="1116.5" x2="1126.5" y1="495.8828" y2="499.8828"/><text fill="#000000" font-family="sans-serif" font-size="13" lengthAdjust="spacing" textLength="109" x="1122.5" y="445.3232">comprobarRegistro</text><text fill="#000000" font-family="sans-serif" font-size="13" lengthAdjust="spacing" textLength="51" x="1122.5" y="461.6748">(nombre,</text><text fill="#000000" font-family="sans-serif" font-size="13" lengthAdjust="spacing" textLength="317" x="1122.5" y="478.0264">function(codigoRespuesta, cuerpoRespuestaCateogira)</text><polygon fill="#181818" points="1434.5,522.2344,1444.5,526.2344,1434.5,530.2344,1438.5,526.2344" style="stroke:#181818;stroke-width:1.0;"/><line style="stroke:#181818;stroke-width:1.0;" x1="1115.5" x2="1440.5" y1="526.2344" y2="526.2344"/><text fill="#000000" font-family="sans-serif" font-size="13" lengthAdjust="spacing" textLength="185" x="1122.5" y="521.3779">INSERT INTO categoria_empleo</text><path d="M1461,539.2344 L1461,630.2344 L1613,630.2344 L1613,549.2344 L1603,539.2344 L1461,539.2344 " fill="#FEFFDD" style="stroke:#181818;stroke-width:0.5;"/><path d="M1603,539.2344 L1603,549.2344 L1613,549.2344 L1603,539.2344 " fill="#FEFFDD" style="stroke:#181818;stroke-width:0.5;"/><text fill="#000000" font-family="sans-serif" font-size="13" font-weight="bold" lengthAdjust="spacing" textLength="62" x="1467" y="557.7295">PAYLOAD</text><text fill="#000000" font-family="sans-serif" font-size="13" lengthAdjust="spacing" textLength="4" x="1467" y="574.0811"> </text><text fill="#000000" font-family="sans-serif" font-size="13" lengthAdjust="spacing" textLength="131" x="1467" y="590.4326">idCategoriaEmpleo: int</text><text fill="#000000" font-family="sans-serif" font-size="13" lengthAdjust="spacing" textLength="83" x="1467" y="606.7842">nombre: string</text><text fill="#000000" font-family="sans-serif" font-size="13" lengthAdjust="spacing" textLength="4" x="1467" y="623.1357"> </text><line style="stroke:#181818;stroke-width:1.0;" x1="1115.5" x2="1125.5" y1="658.3438" y2="654.3438"/><line style="stroke:#181818;stroke-width:1.0;" x1="1115.5" x2="1125.5" y1="658.3438" y2="662.3438"/><line style="stroke:#181818;stroke-width:1.0;stroke-dasharray:2.0,2.0;" x1="1115.5" x2="1450.5" y1="658.3438" y2="658.3438"/><text fill="#000000" font-family="sans-serif" font-size="13" lengthAdjust="spacing" textLength="99" x="1132.5" y="653.4873">response.insertId</text><polygon fill="#181818" points="797.5,684.6953,787.5,688.6953,797.5,692.6953,793.5,688.6953" style="stroke:#181818;stroke-width:1.0;"/><line style="stroke:#181818;stroke-width:1.0;" x1="791.5" x2="1104.5" y1="688.6953" y2="688.6953"/><text fill="#000000" font-family="sans-serif" font-size="13" lengthAdjust="spacing" textLength="184" x="803.5" y="683.8389">callback(201, response.insertId)</text><polygon fill="#181818" points="569.5,715.0469,559.5,719.0469,569.5,723.0469,565.5,719.0469" style="stroke:#181818;stroke-width:1.0;"/><line style="stroke:#181818;stroke-width:1.0;" x1="563.5" x2="775.5" y1="719.0469" y2="719.0469"/><text fill="#000000" font-family="sans-serif" font-size="13" font-weight="bold" lengthAdjust="spacing" textLength="85" x="575.5" y="714.1904">201 CREATED</text><line style="stroke:#181818;stroke-width:1.0;" x1="366.5" x2="376.5" y1="749.3984" y2="745.3984"/><line style="stroke:#181818;stroke-width:1.0;" x1="366.5" x2="376.5" y1="749.3984" y2="753.3984"/><line style="stroke:#181818;stroke-width:1.0;stroke-dasharray:2.0,2.0;" x1="366.5" x2="547.5" y1="749.3984" y2="749.3984"/><text fill="#000000" font-family="sans-serif" font-size="13" lengthAdjust="spacing" textLength="99" x="383.5" y="744.542">response.insertId</text><line style="stroke:#181818;stroke-width:1.0;" x1="366.5" x2="408.5" y1="796.1016" y2="796.1016"/><line style="stroke:#181818;stroke-width:1.0;" x1="408.5" x2="408.5" y1="796.1016" y2="809.1016"/><line style="stroke:#181818;stroke-width:1.0;" x1="367.5" x2="408.5" y1="809.1016" y2="809.1016"/><line style="stroke:#181818;stroke-width:1.0;" x1="367.5" x2="377.5" y1="809.1016" y2="805.1016"/><line style="stroke:#181818;stroke-width:1.0;" x1="367.5" x2="377.5" y1="809.1016" y2="813.1016"/><text fill="#000000" font-family="sans-serif" font-size="13" lengthAdjust="spacing" textLength="49" x="373.5" y="774.8936">mensaje</text><text fill="#000000" font-family="sans-serif" font-size="13" lengthAdjust="spacing" textLength="30" x="373.5" y="791.2451">Exito</text><path d="M288,824.1016 L349,824.1016 L349,832.4531 L339,842.4531 L288,842.4531 L288,824.1016 " fill="#EEEEEE" style="stroke:#000000;stroke-width:1.5;"/><rect fill="none" height="502.2969" style="stroke:#000000;stroke-width:1.5;" width="909" x="288" y="824.1016"/><text fill="#000000" font-family="sans-serif" font-size="13" font-weight="bold" lengthAdjust="spacing" textLength="16" x="303" y="838.5967">alt</text><text fill="#000000" font-family="sans-serif" font-size="11" font-weight="bold" lengthAdjust="spacing" textLength="142" x="364" y="837.5205">[INTERNAL ERROR SERVER]</text><polygon fill="#181818" points="797.5,860.8047,787.5,864.8047,797.5,868.8047,793.5,864.8047" style="stroke:#181818;stroke-width:1.0;"/><line style="stroke:#181818;stroke-width:1.0;" x1="791.5" x2="1104.5" y1="864.8047" y2="864.8047"/><text fill="#000000" font-family="sans-serif" font-size="13" lengthAdjust="spacing" textLength="134" x="803.5" y="859.9482">callback(500, mensaje)</text><polygon fill="#181818" points="569.5,891.1563,559.5,895.1563,569.5,899.1563,565.5,895.1563" style="stroke:#181818;stroke-width:1.0;"/><line style="stroke:#181818;stroke-width:1.0;" x1="563.5" x2="775.5" y1="895.1563" y2="895.1563"/><text fill="#000000" font-family="sans-serif" font-size="13" font-weight="bold" lengthAdjust="spacing" textLength="194" x="575.5" y="890.2998">500 INTERNAL SERVER ERROR</text><polygon fill="#181818" points="377.5,921.5078,367.5,925.5078,377.5,929.5078,373.5,925.5078" style="stroke:#181818;stroke-width:1.0;"/><line style="stroke:#181818;stroke-width:1.0;" x1="371.5" x2="547.5" y1="925.5078" y2="925.5078"/><text fill="#000000" font-family="sans-serif" font-size="13" lengthAdjust="spacing" textLength="20" x="383.5" y="920.6514">null</text><line style="stroke:#181818;stroke-width:1.0;" x1="366.5" x2="408.5" y1="972.2109" y2="972.2109"/><line style="stroke:#181818;stroke-width:1.0;" x1="408.5" x2="408.5" y1="972.2109" y2="985.2109"/><line style="stroke:#181818;stroke-width:1.0;" x1="367.5" x2="408.5" y1="985.2109" y2="985.2109"/><line style="stroke:#181818;stroke-width:1.0;" x1="367.5" x2="377.5" y1="985.2109" y2="981.2109"/><line style="stroke:#181818;stroke-width:1.0;" x1="367.5" x2="377.5" y1="985.2109" y2="989.2109"/><text fill="#000000" font-family="sans-serif" font-size="13" lengthAdjust="spacing" textLength="49" x="373.5" y="951.0029">mensaje</text><text fill="#000000" font-family="sans-serif" font-size="13" lengthAdjust="spacing" textLength="113" x="373.5" y="967.3545">ErrorInternoServidor</text><line style="stroke:#000000;stroke-width:1.0;stroke-dasharray:2.0,2.0;" x1="288" x2="1197" y1="994.2109" y2="994.2109"/><text fill="#000000" font-family="sans-serif" font-size="11" font-weight="bold" lengthAdjust="spacing" textLength="140" x="293" y="1005.6299">[UNPROCESSABLE ENTITY]</text><polygon fill="#181818" points="797.5,1027.3984,787.5,1031.3984,797.5,1035.3984,793.5,1031.3984" style="stroke:#181818;stroke-width:1.0;"/><line style="stroke:#181818;stroke-width:1.0;" x1="791.5" x2="1104.5" y1="1031.3984" y2="1031.3984"/><text fill="#000000" font-family="sans-serif" font-size="13" lengthAdjust="spacing" textLength="138" x="803.5" y="1026.542">calbback(422, mensaje)</text><polygon fill="#181818" points="569.5,1057.75,559.5,1061.75,569.5,1065.75,565.5,1061.75" style="stroke:#181818;stroke-width:1.0;"/><line style="stroke:#181818;stroke-width:1.0;" x1="563.5" x2="775.5" y1="1061.75" y2="1061.75"/><text fill="#000000" font-family="sans-serif" font-size="13" font-weight="bold" lengthAdjust="spacing" textLength="189" x="575.5" y="1056.8936">422 UNPROCESSABLE ENTITY</text><polygon fill="#181818" points="377.5,1088.1016,367.5,1092.1016,377.5,1096.1016,373.5,1092.1016" style="stroke:#181818;stroke-width:1.0;"/><line style="stroke:#181818;stroke-width:1.0;" x1="371.5" x2="547.5" y1="1092.1016" y2="1092.1016"/><text fill="#000000" font-family="sans-serif" font-size="13" lengthAdjust="spacing" textLength="20" x="383.5" y="1087.2451">null</text><line style="stroke:#181818;stroke-width:1.0;" x1="366.5" x2="408.5" y1="1138.8047" y2="1138.8047"/><line style="stroke:#181818;stroke-width:1.0;" x1="408.5" x2="408.5" y1="1138.8047" y2="1151.8047"/><line style="stroke:#181818;stroke-width:1.0;" x1="367.5" x2="408.5" y1="1151.8047" y2="1151.8047"/><line style="stroke:#181818;stroke-width:1.0;" x1="367.5" x2="377.5" y1="1151.8047" y2="1147.8047"/><line style="stroke:#181818;stroke-width:1.0;" x1="367.5" x2="377.5" y1="1151.8047" y2="1155.8047"/><text fill="#000000" font-family="sans-serif" font-size="13" lengthAdjust="spacing" textLength="49" x="373.5" y="1117.5967">mensaje</text><text fill="#000000" font-family="sans-serif" font-size="13" lengthAdjust="spacing" textLength="141" x="373.5" y="1133.9482">InstruccionNoProcesada</text><line style="stroke:#000000;stroke-width:1.0;stroke-dasharray:2.0,2.0;" x1="288" x2="1197" y1="1160.8047" y2="1160.8047"/><text fill="#000000" font-family="sans-serif" font-size="11" font-weight="bold" lengthAdjust="spacing" textLength="68" x="293" y="1172.2236">[NOT FOUND]</text><polygon fill="#181818" points="797.5,1193.9922,787.5,1197.9922,797.5,1201.9922,793.5,1197.9922" style="stroke:#181818;stroke-width:1.0;"/><line style="stroke:#181818;stroke-width:1.0;" x1="791.5" x2="1104.5" y1="1197.9922" y2="1197.9922"/><text fill="#000000" font-family="sans-serif" font-size="13" lengthAdjust="spacing" textLength="131" x="803.5" y="1193.1357">calback(404, mensaje)</text><polygon fill="#181818" points="569.5,1224.3438,559.5,1228.3438,569.5,1232.3438,565.5,1228.3438" style="stroke:#181818;stroke-width:1.0;"/><line style="stroke:#181818;stroke-width:1.0;" x1="563.5" x2="775.5" y1="1228.3438" y2="1228.3438"/><text fill="#000000" font-family="sans-serif" font-size="13" font-weight="bold" lengthAdjust="spacing" textLength="101" x="575.5" y="1223.4873">404 NOT FOUND</text><polygon fill="#181818" points="377.5,1254.6953,367.5,1258.6953,377.5,1262.6953,373.5,1258.6953" style="stroke:#181818;stroke-width:1.0;"/><line style="stroke:#181818;stroke-width:1.0;" x1="371.5" x2="547.5" y1="1258.6953" y2="1258.6953"/><text fill="#000000" font-family="sans-serif" font-size="13" lengthAdjust="spacing" textLength="20" x="383.5" y="1253.8389">null</text><line style="stroke:#181818;stroke-width:1.0;" x1="366.5" x2="408.5" y1="1305.3984" y2="1305.3984"/><line style="stroke:#181818;stroke-width:1.0;" x1="408.5" x2="408.5" y1="1305.3984" y2="1318.3984"/><line style="stroke:#181818;stroke-width:1.0;" x1="367.5" x2="408.5" y1="1318.3984" y2="1318.3984"/><line style="stroke:#181818;stroke-width:1.0;" x1="367.5" x2="377.5" y1="1318.3984" y2="1314.3984"/><line style="stroke:#181818;stroke-width:1.0;" x1="367.5" x2="377.5" y1="1318.3984" y2="1322.3984"/><text fill="#000000" font-family="sans-serif" font-size="13" lengthAdjust="spacing" textLength="49" x="373.5" y="1284.1904">mensaje</text><text fill="#000000" font-family="sans-serif" font-size="13" lengthAdjust="spacing" textLength="129" x="373.5" y="1300.542">PeticionNoEncontrada</text><!--MD5=[96ca1cfd86e52a4d4ce88a1720d0edc1]
@startuml

box Cliente
    actor Administrador as a
    participant categoriasEmpleo as b <<GUI>> 
    participant categoriasEmpleo as c <<Controller>>
    participant CategoriaDAO as d <<DAO>>

end box

box Servidor
    participant ElCamelloAPI as e <<API>>
    participant GestionCategoriasEmpleo as f <<Componente>>
    participant CategoriaEmpleoDAO as g <<DAO>>
    database elCamelloDB as db
end box

a -> b: capturarDato
activate a
activate b

b -> c: btnRegistrarCategoria_Click
activate c

c -> d: PostCategoria\n(string nombre, string token)
activate d

note right of d  
**HEADERS**
x-access-token: string
end note

d -> e: **POST** /categoriasEmpleo
activate e

e -> f: postCategoriaEmpleo\n(nombre, callback)
activate f

f -> g: postCategoriaEmpleo\n(nombre, callback)
activate g
deactivate f

g ->> g: comprobarRegistro\n(nombre, \nfunction(codigoRespuesta, cuerpoRespuestaCateogira)

g -> db: INSERT INTO categoria_empleo
activate db

note right of db
**PAYLOAD**

idCategoriaEmpleo: int
nombre: string

end note

db - ->> g: response.insertId
deactivate db

g -> e: callback(201, response.insertId)

e -> d: **201 CREATED**

d - ->> c: response.insertId

c ->> c: mensaje\nExito

alt INTERNAL ERROR SERVER

     g -> e: callback(500, mensaje)

     e -> d: **500 INTERNAL SERVER ERROR**

     d -> c: null

     c ->> c: mensaje\nErrorInternoServidor

else UNPROCESSABLE ENTITY

    g -> e: calbback(422, mensaje)

    e -> d: **422 UNPROCESSABLE ENTITY**

    d -> c: null

    c ->> c: mensaje\nInstruccionNoProcesada


else NOT FOUND

    g -> e: calback(404, mensaje)

    e -> d: **404 NOT FOUND**

    d -> c: null

    c ->> c: mensaje\nPeticionNoEncontrada

end


@enduml

PlantUML version 1.2022.5(Sat Apr 30 05:55:52 CDT 2022)
(GPL source distribution)
Java Runtime: Java(TM) SE Runtime Environment
JVM: Java HotSpot(TM) 64-Bit Server VM
Default Encoding: Cp1252
Language: es
Country: MX
--></g></svg>