<?xml version="1.0" encoding="UTF-8" standalone="no"?><svg xmlns="http://www.w3.org/2000/svg" xmlns:xlink="http://www.w3.org/1999/xlink" contentStyleType="text/css" height="1971px" preserveAspectRatio="none" style="width:1826px;height:1971px;background:#FFFFFF;" version="1.1" viewBox="0 0 1826 1971" width="1826px" zoomAndPan="magnify"><defs/><g><rect fill="#DDDDDD" height="1959.0703" style="stroke:#181818;stroke-width:0.5;" width="877" x="26" y="6"/><text fill="#000000" font-family="sans-serif" font-size="13" font-weight="bold" lengthAdjust="spacing" textLength="45" x="442" y="19.4951">Cliente</text><rect fill="#DDDDDD" height="1959.0703" style="stroke:#181818;stroke-width:0.5;" width="735" x="1079" y="6"/><text fill="#000000" font-family="sans-serif" font-size="13" font-weight="bold" lengthAdjust="spacing" textLength="54" x="1419.5" y="19.4951">Servidor</text><rect fill="#FFFFFF" height="1648.5781" style="stroke:#181818;stroke-width:1.0;" width="10" x="58" y="226.8828"/><rect fill="#FFFFFF" height="1625.5781" style="stroke:#181818;stroke-width:1.0;" width="10" x="249" y="226.8828"/><rect fill="#FFFFFF" height="1595.2266" style="stroke:#181818;stroke-width:1.0;" width="10" x="460" y="257.2344"/><rect fill="#FFFFFF" height="1302.9063" style="stroke:#181818;stroke-width:1.0;" width="10" x="465" y="295.5859"/><rect fill="#FFFFFF" height="1495.4688" style="stroke:#181818;stroke-width:1.0;" width="10" x="663" y="379.9922"/><rect fill="#FFFFFF" height="1251.25" style="stroke:#181818;stroke-width:1.0;" width="10" x="1127" y="624.2109"/><rect fill="#FFFFFF" height="83.0547" style="stroke:#181818;stroke-width:1.0;" width="10" x="1132" y="955.1328"/><rect fill="#FFFFFF" height="295.625" style="stroke:#181818;stroke-width:1.0;" width="10" x="1132" y="1272.5156"/><rect fill="#FFFFFF" height="1251.25" style="stroke:#181818;stroke-width:1.0;" width="10" x="1298" y="624.2109"/><rect fill="#FFFFFF" height="1116.1406" style="stroke:#181818;stroke-width:1.0;" width="10" x="1419.5" y="759.3203"/><rect fill="#FFFFFF" height="1036.7344" style="stroke:#181818;stroke-width:1.0;" width="10" x="1634.5" y="838.7266"/><rect height="1197.8984" style="stroke:#000000;stroke-width:1.5;fill:none;" width="1810" x="10" y="669.5625"/><rect height="328.7344" style="stroke:#000000;stroke-width:1.5;fill:none;" width="1703" x="20" y="914.4297"/><rect height="203.6172" style="stroke:#000000;stroke-width:1.5;fill:none;" width="552" x="20" y="1656.8438"/><line style="stroke:#181818;stroke-width:0.5;fill:none;stroke-dasharray:5.0,5.0;" x1="63" x2="63" y1="103.9609" y2="1884.4609"/><line style="stroke:#181818;stroke-width:0.5;fill:none;stroke-dasharray:5.0,5.0;" x1="254" x2="254" y1="154.0703" y2="1884.4609"/><line style="stroke:#181818;stroke-width:0.5;fill:none;stroke-dasharray:5.0,5.0;" x1="465" x2="465" y1="103.9609" y2="1884.4609"/><line style="stroke:#181818;stroke-width:0.5;fill:none;stroke-dasharray:5.0,5.0;" x1="668" x2="668" y1="103.9609" y2="1884.4609"/><line style="stroke:#181818;stroke-width:0.5;fill:none;stroke-dasharray:5.0,5.0;" x1="844" x2="844" y1="1086.2969" y2="1884.4609"/><line style="stroke:#181818;stroke-width:0.5;fill:none;stroke-dasharray:5.0,5.0;" x1="1132" x2="1132" y1="103.9609" y2="1884.4609"/><line style="stroke:#181818;stroke-width:0.5;fill:none;stroke-dasharray:5.0,5.0;" x1="1302.5" x2="1302.5" y1="103.9609" y2="1884.4609"/><line style="stroke:#181818;stroke-width:0.5;fill:none;stroke-dasharray:5.0,5.0;" x1="1424.5" x2="1424.5" y1="103.9609" y2="1884.4609"/><line style="stroke:#181818;stroke-width:0.5;fill:none;stroke-dasharray:5.0,5.0;" x1="1639" x2="1639" y1="103.9609" y2="1884.4609"/><line style="stroke:#181818;stroke-width:0.5;fill:none;stroke-dasharray:5.0,5.0;" x1="1766" x2="1766" y1="103.9609" y2="1884.4609"/><text fill="#000000" font-family="sans-serif" font-size="14" lengthAdjust="spacing" textLength="60" x="30" y="100.8848">Aspirante</text><ellipse cx="63" cy="34.8516" fill="#E2E2F0" rx="8" ry="8" style="stroke:#181818;stroke-width:0.5;"/><path d="M63,42.8516 L63,69.8516 M50,50.8516 L76,50.8516 M63,69.8516 L50,84.8516 M63,69.8516 L76,84.8516 " fill="none" style="stroke:#181818;stroke-width:0.5;"/><text fill="#000000" font-family="sans-serif" font-size="14" lengthAdjust="spacing" textLength="60" x="30" y="1897.9941">Aspirante</text><ellipse cx="63" cy="1909.5703" fill="#E2E2F0" rx="8" ry="8" style="stroke:#181818;stroke-width:0.5;"/><path d="M63,1917.5703 L63,1944.5703 M50,1925.5703 L76,1925.5703 M63,1944.5703 L50,1959.5703 M63,1944.5703 L76,1959.5703 " fill="none" style="stroke:#181818;stroke-width:0.5;"/><rect fill="#E2E2F0" height="49.2188" rx="2.5" ry="2.5" style="stroke:#181818;stroke-width:0.5;" width="132" x="188" y="1883.4609"/><text fill="#000000" font-family="sans-serif" font-size="14" font-style="italic" lengthAdjust="spacing" textLength="41" x="233.5" y="1904.9941">«GUI»</text><text fill="#000000" font-family="sans-serif" font-size="14" lengthAdjust="spacing" textLength="118" x="195" y="1922.6035">SolicitudesServicio</text><rect fill="#E2E2F0" height="49.2188" rx="2.5" ry="2.5" style="stroke:#181818;stroke-width:0.5;" width="194" x="368" y="53.7422"/><text fill="#000000" font-family="sans-serif" font-size="14" font-style="italic" lengthAdjust="spacing" textLength="78" x="426" y="75.2754">«Controller»</text><text fill="#000000" font-family="sans-serif" font-size="14" lengthAdjust="spacing" textLength="180" x="375" y="92.8848">SolicitudesServicioController</text><rect fill="#E2E2F0" height="49.2188" rx="2.5" ry="2.5" style="stroke:#181818;stroke-width:0.5;" width="194" x="368" y="1883.4609"/><text fill="#000000" font-family="sans-serif" font-size="14" font-style="italic" lengthAdjust="spacing" textLength="78" x="426" y="1904.9941">«Controller»</text><text fill="#000000" font-family="sans-serif" font-size="14" lengthAdjust="spacing" textLength="180" x="375" y="1922.6035">SolicitudesServicioController</text><rect fill="#E2E2F0" height="49.2188" rx="2.5" ry="2.5" style="stroke:#181818;stroke-width:0.5;" width="162" x="587" y="53.7422"/><text fill="#000000" font-family="sans-serif" font-size="14" font-style="italic" lengthAdjust="spacing" textLength="46" x="645" y="75.2754">«DAO»</text><text fill="#000000" font-family="sans-serif" font-size="14" lengthAdjust="spacing" textLength="148" x="594" y="92.8848">SolicitudesServicioDAO</text><rect fill="#E2E2F0" height="49.2188" rx="2.5" ry="2.5" style="stroke:#181818;stroke-width:0.5;" width="162" x="587" y="1883.4609"/><text fill="#000000" font-family="sans-serif" font-size="14" font-style="italic" lengthAdjust="spacing" textLength="46" x="645" y="1904.9941">«DAO»</text><text fill="#000000" font-family="sans-serif" font-size="14" lengthAdjust="spacing" textLength="148" x="594" y="1922.6035">SolicitudesServicioDAO</text><rect fill="#E2E2F0" height="49.2188" rx="2.5" ry="2.5" style="stroke:#181818;stroke-width:0.5;" width="110" x="789" y="1883.4609"/><text fill="#000000" font-family="sans-serif" font-size="14" font-style="italic" lengthAdjust="spacing" textLength="41" x="823.5" y="1904.9941">«GUI»</text><text fill="#000000" font-family="sans-serif" font-size="14" lengthAdjust="spacing" textLength="96" x="796" y="1922.6035">RespuestasAPI</text><rect fill="#E2E2F0" height="49.2188" rx="2.5" ry="2.5" style="stroke:#181818;stroke-width:0.5;" width="98" x="1083" y="53.7422"/><text fill="#000000" font-family="sans-serif" font-size="14" font-style="italic" lengthAdjust="spacing" textLength="38" x="1113" y="75.2754">«API»</text><text fill="#000000" font-family="sans-serif" font-size="14" lengthAdjust="spacing" textLength="84" x="1090" y="92.8848">ElCamelloAPI</text><rect fill="#E2E2F0" height="49.2188" rx="2.5" ry="2.5" style="stroke:#181818;stroke-width:0.5;" width="98" x="1083" y="1883.4609"/><text fill="#000000" font-family="sans-serif" font-size="14" font-style="italic" lengthAdjust="spacing" textLength="38" x="1113" y="1904.9941">«API»</text><text fill="#000000" font-family="sans-serif" font-size="14" lengthAdjust="spacing" textLength="84" x="1090" y="1922.6035">ElCamelloAPI</text><rect fill="#E2E2F0" height="31.6094" rx="2.5" ry="2.5" style="stroke:#181818;stroke-width:0.5;" width="103" x="1251.5" y="71.3516"/><text fill="#000000" font-family="sans-serif" font-size="14" lengthAdjust="spacing" textLength="89" x="1258.5" y="92.8848">GestionToken</text><rect fill="#E2E2F0" height="31.6094" rx="2.5" ry="2.5" style="stroke:#181818;stroke-width:0.5;" width="103" x="1251.5" y="1883.4609"/><text fill="#000000" font-family="sans-serif" font-size="14" lengthAdjust="spacing" textLength="89" x="1258.5" y="1904.9941">GestionToken</text><rect fill="#E2E2F0" height="49.2188" rx="2.5" ry="2.5" style="stroke:#181818;stroke-width:0.5;" width="120" x="1364.5" y="53.7422"/><text fill="#000000" font-family="sans-serif" font-size="14" font-style="italic" lengthAdjust="spacing" textLength="89" x="1380" y="75.2754">«Component»</text><text fill="#000000" font-family="sans-serif" font-size="14" lengthAdjust="spacing" textLength="106" x="1371.5" y="92.8848">GestionServicios</text><rect fill="#E2E2F0" height="49.2188" rx="2.5" ry="2.5" style="stroke:#181818;stroke-width:0.5;" width="120" x="1364.5" y="1883.4609"/><text fill="#000000" font-family="sans-serif" font-size="14" font-style="italic" lengthAdjust="spacing" textLength="89" x="1380" y="1904.9941">«Component»</text><text fill="#000000" font-family="sans-serif" font-size="14" lengthAdjust="spacing" textLength="106" x="1371.5" y="1922.6035">GestionServicios</text><rect fill="#E2E2F0" height="49.2188" rx="2.5" ry="2.5" style="stroke:#181818;stroke-width:0.5;" width="147" x="1566" y="53.7422"/><text fill="#000000" font-family="sans-serif" font-size="14" font-style="italic" lengthAdjust="spacing" textLength="46" x="1616.5" y="75.2754">«DAO»</text><text fill="#000000" font-family="sans-serif" font-size="14" lengthAdjust="spacing" textLength="133" x="1573" y="92.8848">SolicitudServicioDAO</text><rect fill="#E2E2F0" height="49.2188" rx="2.5" ry="2.5" style="stroke:#181818;stroke-width:0.5;" width="147" x="1566" y="1883.4609"/><text fill="#000000" font-family="sans-serif" font-size="14" font-style="italic" lengthAdjust="spacing" textLength="46" x="1616.5" y="1904.9941">«DAO»</text><text fill="#000000" font-family="sans-serif" font-size="14" lengthAdjust="spacing" textLength="133" x="1573" y="1922.6035">SolicitudServicioDAO</text><text fill="#000000" font-family="sans-serif" font-size="14" lengthAdjust="spacing" textLength="81" x="1723" y="100.8848">elCamelloDB</text><path d="M1748.5,50.3516 C1748.5,40.3516 1766.5,40.3516 1766.5,40.3516 C1766.5,40.3516 1784.5,40.3516 1784.5,50.3516 L1784.5,76.3516 C1784.5,86.3516 1766.5,86.3516 1766.5,86.3516 C1766.5,86.3516 1748.5,86.3516 1748.5,76.3516 L1748.5,50.3516 " fill="#E2E2F0" style="stroke:#181818;stroke-width:1.5;"/><path d="M1748.5,50.3516 C1748.5,60.3516 1766.5,60.3516 1766.5,60.3516 C1766.5,60.3516 1784.5,60.3516 1784.5,50.3516 " fill="none" style="stroke:#181818;stroke-width:1.5;"/><text fill="#000000" font-family="sans-serif" font-size="14" lengthAdjust="spacing" textLength="81" x="1723" y="1897.9941">elCamelloDB</text><path d="M1748.5,1911.0703 C1748.5,1901.0703 1766.5,1901.0703 1766.5,1901.0703 C1766.5,1901.0703 1784.5,1901.0703 1784.5,1911.0703 L1784.5,1937.0703 C1784.5,1947.0703 1766.5,1947.0703 1766.5,1947.0703 C1766.5,1947.0703 1748.5,1947.0703 1748.5,1937.0703 L1748.5,1911.0703 " fill="#E2E2F0" style="stroke:#181818;stroke-width:1.5;"/><path d="M1748.5,1911.0703 C1748.5,1921.0703 1766.5,1921.0703 1766.5,1921.0703 C1766.5,1921.0703 1784.5,1921.0703 1784.5,1911.0703 " fill="none" style="stroke:#181818;stroke-width:1.5;"/><rect fill="#FFFFFF" height="1648.5781" style="stroke:#181818;stroke-width:1.0;" width="10" x="58" y="226.8828"/><rect fill="#FFFFFF" height="1625.5781" style="stroke:#181818;stroke-width:1.0;" width="10" x="249" y="226.8828"/><rect fill="#FFFFFF" height="1595.2266" style="stroke:#181818;stroke-width:1.0;" width="10" x="460" y="257.2344"/><rect fill="#FFFFFF" height="1302.9063" style="stroke:#181818;stroke-width:1.0;" width="10" x="465" y="295.5859"/><rect fill="#FFFFFF" height="1495.4688" style="stroke:#181818;stroke-width:1.0;" width="10" x="663" y="379.9922"/><rect fill="#FFFFFF" height="1251.25" style="stroke:#181818;stroke-width:1.0;" width="10" x="1127" y="624.2109"/><rect fill="#FFFFFF" height="83.0547" style="stroke:#181818;stroke-width:1.0;" width="10" x="1132" y="955.1328"/><rect fill="#FFFFFF" height="295.625" style="stroke:#181818;stroke-width:1.0;" width="10" x="1132" y="1272.5156"/><rect fill="#FFFFFF" height="1251.25" style="stroke:#181818;stroke-width:1.0;" width="10" x="1298" y="624.2109"/><rect fill="#FFFFFF" height="1116.1406" style="stroke:#181818;stroke-width:1.0;" width="10" x="1419.5" y="759.3203"/><rect fill="#FFFFFF" height="1036.7344" style="stroke:#181818;stroke-width:1.0;" width="10" x="1634.5" y="838.7266"/><line style="stroke:#181818;stroke-width:1.0;" x1="320" x2="330" y1="136.3125" y2="132.3125"/><line style="stroke:#181818;stroke-width:1.0;" x1="320" x2="330" y1="136.3125" y2="140.3125"/><line style="stroke:#181818;stroke-width:1.0;" x1="320" x2="464" y1="136.3125" y2="136.3125"/><text fill="#000000" font-family="sans-serif" font-size="13" lengthAdjust="spacing" textLength="121" x="337" y="131.4561">InitializeComponent()</text><rect fill="#E2E2F0" height="49.2188" rx="2.5" ry="2.5" style="stroke:#181818;stroke-width:0.5;" width="132" x="188" y="113.9609"/><text fill="#000000" font-family="sans-serif" font-size="14" font-style="italic" lengthAdjust="spacing" textLength="41" x="233.5" y="135.4941">«GUI»</text><text fill="#000000" font-family="sans-serif" font-size="14" lengthAdjust="spacing" textLength="118" x="195" y="153.1035">SolicitudesServicio</text><line style="stroke:#181818;stroke-width:1.0;" x1="252" x2="242" y1="196.5313" y2="192.5313"/><line style="stroke:#181818;stroke-width:1.0;" x1="252" x2="242" y1="196.5313" y2="200.5313"/><line style="stroke:#181818;stroke-width:1.0;" x1="63" x2="253" y1="196.5313" y2="196.5313"/><text fill="#000000" font-family="sans-serif" font-size="13" lengthAdjust="spacing" textLength="119" x="70" y="191.6748">seleccionarEstatus()</text><polygon fill="#181818" points="237,222.8828,247,226.8828,237,230.8828,241,226.8828" style="stroke:#181818;stroke-width:1.0;"/><line style="stroke:#181818;stroke-width:1.0;" x1="68" x2="243" y1="226.8828" y2="226.8828"/><text fill="#000000" font-family="sans-serif" font-size="13" lengthAdjust="spacing" textLength="167" x="75" y="222.0264">btnBuscarSolicitudes_Click()</text><line style="stroke:#181818;stroke-width:1.0;" x1="458" x2="448" y1="257.2344" y2="253.2344"/><line style="stroke:#181818;stroke-width:1.0;" x1="458" x2="448" y1="257.2344" y2="261.2344"/><line style="stroke:#181818;stroke-width:1.0;" x1="259" x2="459" y1="257.2344" y2="257.2344"/><text fill="#000000" font-family="sans-serif" font-size="13" lengthAdjust="spacing" textLength="167" x="266" y="252.3779">btnBuscarSolicitudes_Click()</text><line style="stroke:#181818;stroke-width:1.0;" x1="470" x2="517" y1="282.5859" y2="282.5859"/><line style="stroke:#181818;stroke-width:1.0;" x1="517" x2="517" y1="282.5859" y2="295.5859"/><line style="stroke:#181818;stroke-width:1.0;" x1="476" x2="517" y1="295.5859" y2="295.5859"/><line style="stroke:#181818;stroke-width:1.0;" x1="476" x2="486" y1="295.5859" y2="291.5859"/><line style="stroke:#181818;stroke-width:1.0;" x1="476" x2="486" y1="295.5859" y2="299.5859"/><text fill="#000000" font-family="sans-serif" font-size="13" lengthAdjust="spacing" textLength="106" x="482" y="277.7295">BucarSolicitudes()</text><polygon fill="#181818" points="651,375.9922,661,379.9922,651,383.9922,655,379.9922" style="stroke:#181818;stroke-width:1.0;"/><line style="stroke:#181818;stroke-width:1.0;" x1="475" x2="657" y1="379.9922" y2="379.9922"/><text fill="#000000" font-family="sans-serif" font-size="13" lengthAdjust="spacing" textLength="144" x="482" y="326.0811">GetSolicitudesAspirante(</text><text fill="#000000" font-family="sans-serif" font-size="13" lengthAdjust="spacing" textLength="87" x="482" y="342.4326">idAspirante:int,</text><text fill="#000000" font-family="sans-serif" font-size="13" lengthAdjust="spacing" textLength="169" x="482" y="358.7842">indiceEstatus:int,token:string</text><text fill="#000000" font-family="sans-serif" font-size="13" lengthAdjust="spacing" textLength="140" x="482" y="375.1357">):List&lt;SolicitudServicio&gt;</text><path d="M678,392.9922 L678,532.9922 L832,532.9922 L832,402.9922 L822,392.9922 L678,392.9922 " fill="#FEFFDD" style="stroke:#181818;stroke-width:0.5;"/><path d="M822,392.9922 L822,402.9922 L832,402.9922 L822,392.9922 " fill="#FEFFDD" style="stroke:#181818;stroke-width:0.5;"/><text fill="#000000" font-family="sans-serif" font-size="13" font-weight="bold" lengthAdjust="spacing" textLength="45" x="684" y="411.4873">header</text><text fill="#000000" font-family="sans-serif" font-size="13" lengthAdjust="spacing" textLength="133" x="684" y="427.8389">x-accces-token : string</text><text fill="#000000" font-family="sans-serif" font-size="13" lengthAdjust="spacing" textLength="4" x="684" y="444.1904"> </text><text fill="#000000" font-family="sans-serif" font-size="13" font-weight="bold" lengthAdjust="spacing" textLength="47" x="684" y="460.542">params</text><text fill="#000000" font-family="sans-serif" font-size="13" lengthAdjust="spacing" textLength="87" x="684" y="476.8936">idAspirante: int</text><text fill="#000000" font-family="sans-serif" font-size="13" lengthAdjust="spacing" textLength="4" x="684" y="493.2451"> </text><text fill="#000000" font-family="sans-serif" font-size="13" font-weight="bold" lengthAdjust="spacing" textLength="36" x="684" y="509.5967">query</text><text fill="#000000" font-family="sans-serif" font-size="13" lengthAdjust="spacing" textLength="87" x="684" y="525.9482">estatus : string</text><polygon fill="#181818" points="1120,557.1563,1130,561.1563,1120,565.1563,1124,561.1563" style="stroke:#181818;stroke-width:1.0;"/><line style="stroke:#181818;stroke-width:1.0;" x1="673" x2="1126" y1="561.1563" y2="561.1563"/><text fill="#000000" font-family="sans-serif" font-size="13" font-weight="bold" lengthAdjust="spacing" textLength="26" x="680" y="556.2998">GET</text><text fill="#000000" font-family="sans-serif" font-size="13" lengthAdjust="spacing" textLength="405" x="710" y="556.2998">/v1/perfilAspirantes/:idAspirante/solicitudesServicios?estatus=:estatus</text><polygon fill="#181818" points="1286,620.2109,1296,624.2109,1286,628.2109,1290,624.2109" style="stroke:#181818;stroke-width:1.0;"/><line style="stroke:#181818;stroke-width:1.0;" x1="1137" x2="1292" y1="624.2109" y2="624.2109"/><text fill="#000000" font-family="sans-serif" font-size="13" lengthAdjust="spacing" textLength="147" x="1144" y="586.6514">ValidarTokenTipoUsuario(</text><text fill="#000000" font-family="sans-serif" font-size="13" lengthAdjust="spacing" textLength="76" x="1144" y="603.0029">token: string,</text><text fill="#000000" font-family="sans-serif" font-size="13" lengthAdjust="spacing" textLength="69" x="1144" y="619.3545">"Aspirante")</text><line style="stroke:#181818;stroke-width:1.0;" x1="1137" x2="1147" y1="654.5625" y2="650.5625"/><line style="stroke:#181818;stroke-width:1.0;" x1="1137" x2="1147" y1="654.5625" y2="658.5625"/><line style="stroke:#181818;stroke-width:1.0;stroke-dasharray:2.0,2.0;" x1="1137" x2="1297" y1="654.5625" y2="654.5625"/><text fill="#000000" font-family="sans-serif" font-size="13" lengthAdjust="spacing" textLength="91" x="1154" y="649.7061">validacionToken</text><path d="M10,669.5625 L71,669.5625 L71,677.9141 L61,687.9141 L10,687.9141 L10,669.5625 " fill="#EEEEEE" style="stroke:#000000;stroke-width:1.5;"/><rect fill="none" height="1197.8984" style="stroke:#000000;stroke-width:1.5;" width="1810" x="10" y="669.5625"/><text fill="#000000" font-family="sans-serif" font-size="13" font-weight="bold" lengthAdjust="spacing" textLength="16" x="25" y="684.0576">alt</text><text fill="#000000" font-family="sans-serif" font-size="11" font-weight="bold" lengthAdjust="spacing" textLength="452" x="86" y="682.9814">[validacionToken.statusCode == 200  &amp;&amp; validacionToken.tokenData['estatus'] == 1]</text><line style="stroke:#181818;stroke-width:1.0;" x1="1417.5" x2="1407.5" y1="759.3203" y2="755.3203"/><line style="stroke:#181818;stroke-width:1.0;" x1="1417.5" x2="1407.5" y1="759.3203" y2="763.3203"/><line style="stroke:#181818;stroke-width:1.0;" x1="1137" x2="1418.5" y1="759.3203" y2="759.3203"/><text fill="#000000" font-family="sans-serif" font-size="13" lengthAdjust="spacing" textLength="186" x="1144" y="705.4092">getSolicitudesServicioAspirante(</text><text fill="#000000" font-family="sans-serif" font-size="13" lengthAdjust="spacing" textLength="87" x="1144" y="721.7607">idAspirante:int,</text><text fill="#000000" font-family="sans-serif" font-size="13" lengthAdjust="spacing" textLength="83" x="1144" y="738.1123">estatus:string,</text><text fill="#000000" font-family="sans-serif" font-size="13" lengthAdjust="spacing" textLength="131" x="1144" y="754.4639">callback:function): void</text><line style="stroke:#181818;stroke-width:1.0;" x1="1632.5" x2="1622.5" y1="838.7266" y2="834.7266"/><line style="stroke:#181818;stroke-width:1.0;" x1="1632.5" x2="1622.5" y1="838.7266" y2="842.7266"/><line style="stroke:#181818;stroke-width:1.0;" x1="1429.5" x2="1633.5" y1="838.7266" y2="838.7266"/><text fill="#000000" font-family="sans-serif" font-size="13" lengthAdjust="spacing" textLength="186" x="1436.5" y="784.8154">getSolicitudesServicioAspirante(</text><text fill="#000000" font-family="sans-serif" font-size="13" lengthAdjust="spacing" textLength="87" x="1436.5" y="801.167">idAspirante:int,</text><text fill="#000000" font-family="sans-serif" font-size="13" lengthAdjust="spacing" textLength="83" x="1436.5" y="817.5186">estatus:string,</text><text fill="#000000" font-family="sans-serif" font-size="13" lengthAdjust="spacing" textLength="131" x="1436.5" y="833.8701">callback:function): void</text><polygon fill="#181818" points="1754.5,865.0781,1764.5,869.0781,1754.5,873.0781,1758.5,869.0781" style="stroke:#181818;stroke-width:1.0;"/><line style="stroke:#181818;stroke-width:1.0;" x1="1644.5" x2="1760.5" y1="869.0781" y2="869.0781"/><text fill="#000000" font-family="sans-serif" font-size="13" lengthAdjust="spacing" textLength="50" x="1651.5" y="864.2217">SELECT</text><line style="stroke:#181818;stroke-width:1.0;" x1="1644.5" x2="1654.5" y1="899.4297" y2="895.4297"/><line style="stroke:#181818;stroke-width:1.0;" x1="1644.5" x2="1654.5" y1="899.4297" y2="903.4297"/><line style="stroke:#181818;stroke-width:1.0;stroke-dasharray:2.0,2.0;" x1="1644.5" x2="1765.5" y1="899.4297" y2="899.4297"/><text fill="#000000" font-family="sans-serif" font-size="13" lengthAdjust="spacing" textLength="57" x="1661.5" y="894.5732">respuesta</text><path d="M20,914.4297 L101,914.4297 L101,922.7813 L91,932.7813 L20,932.7813 L20,914.4297 " fill="#EEEEEE" style="stroke:#000000;stroke-width:1.5;"/><rect fill="none" height="328.7344" style="stroke:#000000;stroke-width:1.5;" width="1703" x="20" y="914.4297"/><text fill="#000000" font-family="sans-serif" font-size="13" font-weight="bold" lengthAdjust="spacing" textLength="36" x="35" y="928.9248">break</text><text fill="#000000" font-family="sans-serif" font-size="11" font-weight="bold" lengthAdjust="spacing" textLength="132" x="116" y="927.8486">[respuesta.error != null]</text><line style="stroke:#181818;stroke-width:1.0;" x1="1142" x2="1152" y1="955.1328" y2="951.1328"/><line style="stroke:#181818;stroke-width:1.0;" x1="1142" x2="1152" y1="955.1328" y2="959.1328"/><line style="stroke:#181818;stroke-width:1.0;" x1="1142" x2="1633.5" y1="955.1328" y2="955.1328"/><text fill="#000000" font-family="sans-serif" font-size="13" lengthAdjust="spacing" textLength="235" x="1159" y="950.2764">callback(500, mensaje.ErrorInterno): void</text><path d="M984,968.1328 L984,1010.1328 L1122,1010.1328 L1122,978.1328 L1112,968.1328 L984,968.1328 " fill="#FEFFDD" style="stroke:#181818;stroke-width:0.5;"/><path d="M1112,968.1328 L1112,978.1328 L1122,978.1328 L1112,968.1328 " fill="#FEFFDD" style="stroke:#181818;stroke-width:0.5;"/><text fill="#000000" font-family="sans-serif" font-size="13" font-weight="bold" lengthAdjust="spacing" textLength="51" x="990" y="986.6279">payload</text><text fill="#000000" font-family="sans-serif" font-size="13" lengthAdjust="spacing" textLength="117" x="990" y="1002.9795">mensajeError: string</text><line style="stroke:#181818;stroke-width:1.0;" x1="673" x2="683" y1="1038.1875" y2="1034.1875"/><line style="stroke:#181818;stroke-width:1.0;" x1="673" x2="683" y1="1038.1875" y2="1042.1875"/><line style="stroke:#181818;stroke-width:1.0;stroke-dasharray:2.0,2.0;" x1="673" x2="1126" y1="1038.1875" y2="1038.1875"/><text fill="#000000" font-family="sans-serif" font-size="13" lengthAdjust="spacing" textLength="57" x="690" y="1033.3311">respuesta</text><polygon fill="#181818" points="777,1064.5391,787,1068.5391,777,1072.5391,781,1068.5391" style="stroke:#181818;stroke-width:1.0;"/><line style="stroke:#181818;stroke-width:1.0;" x1="673" x2="783" y1="1068.5391" y2="1068.5391"/><text fill="#000000" font-family="sans-serif" font-size="13" lengthAdjust="spacing" textLength="23" x="680" y="1063.6826">new</text><rect fill="#E2E2F0" height="49.2188" rx="2.5" ry="2.5" style="stroke:#181818;stroke-width:0.5;" width="110" x="789" y="1046.1875"/><text fill="#000000" font-family="sans-serif" font-size="14" font-style="italic" lengthAdjust="spacing" textLength="41" x="823.5" y="1067.7207">«GUI»</text><text fill="#000000" font-family="sans-serif" font-size="14" lengthAdjust="spacing" textLength="96" x="796" y="1085.3301">RespuestasAPI</text><polygon fill="#181818" points="832,1157.4609,842,1161.4609,832,1165.4609,836,1161.4609" style="stroke:#181818;stroke-width:1.0;"/><line style="stroke:#181818;stroke-width:1.0;" x1="673" x2="838" y1="1161.4609" y2="1161.4609"/><text fill="#000000" font-family="sans-serif" font-size="13" lengthAdjust="spacing" textLength="134" x="680" y="1123.9014">gestionRespuestasApi(</text><text fill="#000000" font-family="sans-serif" font-size="13" lengthAdjust="spacing" textLength="143" x="680" y="1140.2529">"GetSolicitudesEmpleo",</text><text fill="#000000" font-family="sans-serif" font-size="13" lengthAdjust="spacing" textLength="61" x="680" y="1156.6045">respuesta)</text><polygon fill="#181818" points="832,1187.8125,842,1191.8125,832,1195.8125,836,1191.8125" style="stroke:#181818;stroke-width:1.0;"/><line style="stroke:#181818;stroke-width:1.0;" x1="68" x2="838" y1="1191.8125" y2="1191.8125"/><text fill="#000000" font-family="sans-serif" font-size="13" lengthAdjust="spacing" textLength="73" x="75" y="1186.9561">clicAceptar()</text><line style="stroke:#181818;stroke-width:1.0;" x1="844" x2="886" y1="1222.1641" y2="1222.1641"/><line style="stroke:#181818;stroke-width:1.0;" x1="886" x2="886" y1="1222.1641" y2="1235.1641"/><line style="stroke:#181818;stroke-width:1.0;" x1="845" x2="886" y1="1235.1641" y2="1235.1641"/><polygon fill="#181818" points="855,1231.1641,845,1235.1641,855,1239.1641,851,1235.1641" style="stroke:#181818;stroke-width:1.0;"/><text fill="#000000" font-family="sans-serif" font-size="13" lengthAdjust="spacing" textLength="41" x="851" y="1217.3076">Close()</text><line style="stroke:#A80036;stroke-width:2.0;" x1="835" x2="853" y1="1226.1641" y2="1244.1641"/><line style="stroke:#A80036;stroke-width:2.0;" x1="835" x2="853" y1="1244.1641" y2="1226.1641"/><line style="stroke:#181818;stroke-width:1.0;" x1="1142" x2="1152" y1="1272.5156" y2="1268.5156"/><line style="stroke:#181818;stroke-width:1.0;" x1="1142" x2="1152" y1="1272.5156" y2="1276.5156"/><line style="stroke:#181818;stroke-width:1.0;" x1="1142" x2="1633.5" y1="1272.5156" y2="1272.5156"/><text fill="#000000" font-family="sans-serif" font-size="13" lengthAdjust="spacing" textLength="203" x="1159" y="1267.6592">callback(200, listaSolicitudes): void</text><path d="M901,1285.5156 L901,1540.5156 L1122,1540.5156 L1122,1295.5156 L1112,1285.5156 L901,1285.5156 " fill="#FEFFDD" style="stroke:#181818;stroke-width:0.5;"/><path d="M1112,1285.5156 L1112,1295.5156 L1122,1295.5156 L1112,1285.5156 " fill="#FEFFDD" style="stroke:#181818;stroke-width:0.5;"/><text fill="#000000" font-family="sans-serif" font-size="13" font-weight="bold" lengthAdjust="spacing" textLength="51" x="907" y="1304.0107">payload</text><text fill="#000000" font-family="sans-serif" font-size="13" lengthAdjust="spacing" textLength="4" x="907" y="1320.3623">[</text><text fill="#000000" font-family="sans-serif" font-size="13" lengthAdjust="spacing" textLength="4" x="923" y="1336.7139">{</text><text fill="#000000" font-family="sans-serif" font-size="13" lengthAdjust="spacing" textLength="127" x="939" y="1353.0654">idSolicitudServicio: int</text><text fill="#000000" font-family="sans-serif" font-size="13" lengthAdjust="spacing" textLength="72" x="939" y="1369.417">titulo : string</text><text fill="#000000" font-family="sans-serif" font-size="13" lengthAdjust="spacing" textLength="114" x="939" y="1385.7686">descripcion": string¡</text><text fill="#000000" font-family="sans-serif" font-size="13" lengthAdjust="spacing" textLength="65" x="939" y="1402.1201">estatus: int</text><text fill="#000000" font-family="sans-serif" font-size="13" lengthAdjust="spacing" textLength="138" x="939" y="1418.4717">fechaRegistro : datetimr</text><text fill="#000000" font-family="sans-serif" font-size="13" lengthAdjust="spacing" textLength="116" x="939" y="1434.8232">idPerfilAspirante: int</text><text fill="#000000" font-family="sans-serif" font-size="13" lengthAdjust="spacing" textLength="87" x="939" y="1451.1748">demandante : {</text><text fill="#000000" font-family="sans-serif" font-size="13" lengthAdjust="spacing" textLength="152" x="955" y="1467.5264">idPerfilDemandante: string</text><text fill="#000000" font-family="sans-serif" font-size="13" lengthAdjust="spacing" textLength="87" x="955" y="1483.8779">nombre : string</text><text fill="#000000" font-family="sans-serif" font-size="13" lengthAdjust="spacing" textLength="4" x="939" y="1500.2295">}</text><text fill="#000000" font-family="sans-serif" font-size="13" lengthAdjust="spacing" textLength="4" x="923" y="1516.5811">}</text><text fill="#000000" font-family="sans-serif" font-size="13" lengthAdjust="spacing" textLength="4" x="907" y="1532.9326">]</text><line style="stroke:#181818;stroke-width:1.0;" x1="673" x2="683" y1="1568.1406" y2="1564.1406"/><line style="stroke:#181818;stroke-width:1.0;" x1="673" x2="683" y1="1568.1406" y2="1572.1406"/><line style="stroke:#181818;stroke-width:1.0;stroke-dasharray:2.0,2.0;" x1="673" x2="1126" y1="1568.1406" y2="1568.1406"/><text fill="#000000" font-family="sans-serif" font-size="13" lengthAdjust="spacing" textLength="57" x="690" y="1563.2842">respuesta</text><line style="stroke:#181818;stroke-width:1.0;" x1="470" x2="480" y1="1598.4922" y2="1594.4922"/><line style="stroke:#181818;stroke-width:1.0;" x1="470" x2="480" y1="1598.4922" y2="1602.4922"/><line style="stroke:#181818;stroke-width:1.0;stroke-dasharray:2.0,2.0;" x1="470" x2="662" y1="1598.4922" y2="1598.4922"/><text fill="#000000" font-family="sans-serif" font-size="13" lengthAdjust="spacing" textLength="85" x="487" y="1593.6357">listaSolcitudes</text><line style="stroke:#181818;stroke-width:1.0;" x1="470" x2="512" y1="1628.8438" y2="1628.8438"/><line style="stroke:#181818;stroke-width:1.0;" x1="512" x2="512" y1="1628.8438" y2="1641.8438"/><line style="stroke:#181818;stroke-width:1.0;" x1="471" x2="512" y1="1641.8438" y2="1641.8438"/><line style="stroke:#181818;stroke-width:1.0;" x1="471" x2="481" y1="1641.8438" y2="1637.8438"/><line style="stroke:#181818;stroke-width:1.0;" x1="471" x2="481" y1="1641.8438" y2="1645.8438"/><text fill="#000000" font-family="sans-serif" font-size="13" lengthAdjust="spacing" textLength="139" x="477" y="1623.9873">ActualizarPantalla():void</text><path d="M20,1656.8438 L81,1656.8438 L81,1665.1953 L71,1675.1953 L20,1675.1953 L20,1656.8438 " fill="#EEEEEE" style="stroke:#000000;stroke-width:1.5;"/><rect fill="none" height="203.6172" style="stroke:#000000;stroke-width:1.5;" width="552" x="20" y="1656.8438"/><text fill="#000000" font-family="sans-serif" font-size="13" font-weight="bold" lengthAdjust="spacing" textLength="16" x="35" y="1671.3389">alt</text><text fill="#000000" font-family="sans-serif" font-size="11" font-weight="bold" lengthAdjust="spacing" textLength="101" x="96" y="1670.2627">[Aceptar Solicitud]</text><rect height="41.4453" style="stroke:#000000;stroke-width:1.5;fill:none;" width="160" x="185" y="1675.1953"/><path d="M185,1675.1953 L247,1675.1953 L247,1683.1953 L237,1693.1953 L185,1693.1953 L185,1675.1953 " fill="#EEEEEE" style="stroke:#000000;stroke-width:2.0;"/><text fill="#000000" font-family="sans-serif" font-size="13" font-weight="bold" lengthAdjust="spacing" textLength="17" x="198" y="1690.6904">ref</text><text fill="#000000" font-family="sans-serif" font-size="12" lengthAdjust="spacing" textLength="152" x="189" y="1709.6523">Aceptar solicitud de servicio</text><line style="stroke:#000000;stroke-width:1.0;stroke-dasharray:2.0,2.0;" x1="20" x2="572" y1="1722.6406" y2="1722.6406"/><text fill="#000000" font-family="sans-serif" font-size="11" font-weight="bold" lengthAdjust="spacing" textLength="108" x="25" y="1734.0596">[Rechazar Solicitud]</text><rect height="41.4453" style="stroke:#000000;stroke-width:1.5;fill:none;" width="172" x="185" y="1737.4766"/><path d="M185,1737.4766 L247,1737.4766 L247,1745.4766 L237,1755.4766 L185,1755.4766 L185,1737.4766 " fill="#EEEEEE" style="stroke:#000000;stroke-width:2.0;"/><text fill="#000000" font-family="sans-serif" font-size="13" font-weight="bold" lengthAdjust="spacing" textLength="17" x="198" y="1752.9717">ref</text><text fill="#000000" font-family="sans-serif" font-size="12" lengthAdjust="spacing" textLength="164" x="189" y="1771.9336">Rechazar Solicitud de servicio</text><line style="stroke:#000000;stroke-width:1.0;stroke-dasharray:2.0,2.0;" x1="20" x2="572" y1="1784.9219" y2="1784.9219"/><text fill="#000000" font-family="sans-serif" font-size="11" font-weight="bold" lengthAdjust="spacing" textLength="92" x="25" y="1796.3408">[Cerrar Ventana]</text><polygon fill="#181818" points="237,1818.1094,247,1822.1094,237,1826.1094,241,1822.1094" style="stroke:#181818;stroke-width:1.0;"/><line style="stroke:#181818;stroke-width:1.0;" x1="68" x2="243" y1="1822.1094" y2="1822.1094"/><text fill="#000000" font-family="sans-serif" font-size="13" lengthAdjust="spacing" textLength="70" x="75" y="1817.2529">clickCerrar()</text><polygon fill="#181818" points="453,1848.4609,463,1852.4609,453,1856.4609,457,1852.4609" style="stroke:#181818;stroke-width:1.0;"/><line style="stroke:#181818;stroke-width:1.0;" x1="254" x2="459" y1="1852.4609" y2="1852.4609"/><text fill="#000000" font-family="sans-serif" font-size="13" lengthAdjust="spacing" textLength="41" x="261" y="1847.6045">Close()</text><line style="stroke:#A80036;stroke-width:2.0;" x1="245" x2="263" y1="1843.4609" y2="1861.4609"/><line style="stroke:#A80036;stroke-width:2.0;" x1="245" x2="263" y1="1861.4609" y2="1843.4609"/><line style="stroke:#A80036;stroke-width:2.0;" x1="456" x2="474" y1="1843.4609" y2="1861.4609"/><line style="stroke:#A80036;stroke-width:2.0;" x1="456" x2="474" y1="1861.4609" y2="1843.4609"/><!--MD5=[cc128e48bea971789f597073c3234afa]
@startuml ConsultarServicios


box Cliente
    actor Aspirante as a
    participant SolicitudesServicio as b <<GUI>> 
    participant SolicitudesServicioController as c <<Controller>>
    participant SolicitudesServicioDAO as d <<DAO>>
    participant RespuestasAPI as ra <<GUI>>
end box

box Servidor
    participant ElCamelloAPI as e <<API>>
    participant GestionToken as f
    participant GestionServicios as g <<Component>>
    participant SolicitudServicioDAO as h <<DAO>>
    database elCamelloDB as db
end box
create b
c ->> b : InitializeComponent()
a ->> b : seleccionarEstatus()
a -> b : btnBuscarSolicitudes_Click()
activate a
activate b

b ->> c : btnBuscarSolicitudes_Click()
activate c

c ->> c : BucarSolicitudes()
activate c

c -> d : GetSolicitudesAspirante(\nidAspirante:int,\nindiceEstatus:int,token:string\n):List<SolicitudServicio>
activate d

note right of d 
    **header**
    x-accces-token : string

    **params**
    idAspirante: int

    **query**
    estatus : string
end note
d -> e : **GET** /v1/perfilAspirantes/:idAspirante/solicitudesServicios?estatus=:estatus

e -> f : ValidarTokenTipoUsuario(\ntoken: string, \n"Aspirante")
activate e
activate f
f - ->> e: validacionToken

alt validacionToken.statusCode == 200  && validacionToken.tokenData['estatus'] == 1
    e ->> g : getSolicitudesServicioAspirante(\nidAspirante:int, \nestatus:string, \ncallback:function): void
    activate g

    g ->> h : getSolicitudesServicioAspirante(\nidAspirante:int, \nestatus:string, \ncallback:function): void
    activate h

    h -> db : SELECT
    db - ->> h : respuesta
    break respuesta.error != null
        h ->> e : callback(500, mensaje.ErrorInterno): void
        activate e
        note left of e 
            **payload**
            mensajeError: string
        end note
        e - ->> d : respuesta

        create ra
        deactivate e 

        d -> ra : new
        d -> ra : gestionRespuestasApi(\n"GetSolicitudesEmpleo", \nrespuesta)

        a -> ra : clicAceptar()
        ra -> ra: Close()
        destroy ra
    end
    h ->> e : callback(200, listaSolicitudes): void
    activate e

    note left of e 
        **payload**
        [
            {
                idSolicitudServicio: int
                titulo : string
                descripcion": string¡
                estatus: int
                fechaRegistro : datetimr
                idPerfilAspirante: int
                demandante : {
                    idPerfilDemandante: string
                    nombre : string
                }
            }
        ]
    end note
    e - ->> d : respuesta
    deactivate e

    d - ->> c : listaSolcitudes
    deactivate c

    c ->> c : ActualizarPantalla():void
    
    alt Aceptar Solicitud
        ref over b
            Aceptar solicitud de servicio
        end ref
    else Rechazar Solicitud
        ref over b
            Rechazar Solicitud de servicio
        end ref
    else Cerrar Ventana
        a -> b : clickCerrar()
        b -> c: Close()
        destroy b
        destroy c 
    end    
end



@enduml

PlantUML version 1.2022.5(Sat Apr 30 05:55:52 CDT 2022)
(GPL source distribution)
Java Runtime: Java(TM) SE Runtime Environment
JVM: Java HotSpot(TM) 64-Bit Server VM
Default Encoding: Cp1252
Language: es
Country: MX
--></g></svg>