<?xml version="1.0" encoding="UTF-8" standalone="no"?><svg xmlns="http://www.w3.org/2000/svg" xmlns:xlink="http://www.w3.org/1999/xlink" contentStyleType="text/css" height="1252px" preserveAspectRatio="none" style="width:1481px;height:1252px;background:#FFFFFF;" version="1.1" viewBox="0 0 1481 1252" width="1481px" zoomAndPan="magnify"><defs/><g><rect fill="#DDDDDD" height="1240.7656" style="stroke:#181818;stroke-width:0.5;" width="585.5" x="1" y="6"/><text fill="#000000" font-family="sans-serif" font-size="13" font-weight="bold" lengthAdjust="spacing" textLength="45" x="271.25" y="19.4951">Cliente</text><rect fill="#DDDDDD" height="1240.7656" style="stroke:#181818;stroke-width:0.5;" width="622.5" x="711.5" y="6"/><text fill="#000000" font-family="sans-serif" font-size="13" font-weight="bold" lengthAdjust="spacing" textLength="54" x="995.75" y="19.4951">Servidor</text><rect fill="#FFFFFF" height="1020.8438" style="stroke:#181818;stroke-width:1.0;" width="10" x="46.5" y="136.3125"/><rect fill="#FFFFFF" height="1020.8438" style="stroke:#181818;stroke-width:1.0;" width="10" x="222.5" y="136.3125"/><rect fill="#FFFFFF" height="990.4922" style="stroke:#181818;stroke-width:1.0;" width="10" x="378.5" y="166.6641"/><rect fill="#FFFFFF" height="960.1406" style="stroke:#181818;stroke-width:1.0;" width="10" x="531.5" y="197.0156"/><rect fill="#FFFFFF" height="844.3828" style="stroke:#181818;stroke-width:1.0;" width="10" x="759.5" y="312.7734"/><rect fill="#FFFFFF" height="60.3516" style="stroke:#181818;stroke-width:1.0;" width="10" x="913.5" y="343.125"/><rect fill="#FFFFFF" height="783.6797" style="stroke:#181818;stroke-width:1.0;" width="10" x="1067.5" y="373.4766"/><rect fill="#FFFFFF" height="213.8672" style="stroke:#181818;stroke-width:1.0;" width="10" x="1281.5" y="433.8281"/><rect height="335.7031" style="stroke:#000000;stroke-width:1.5;fill:none;" width="814.5" x="314" y="813.4531"/><line style="stroke:#181818;stroke-width:0.5;fill:none;stroke-dasharray:5.0,5.0;" x1="51" x2="51" y1="103.9609" y2="1166.1563"/><line style="stroke:#181818;stroke-width:0.5;fill:none;stroke-dasharray:5.0,5.0;" x1="227" x2="227" y1="103.9609" y2="1166.1563"/><line style="stroke:#181818;stroke-width:0.5;fill:none;stroke-dasharray:5.0,5.0;" x1="383" x2="383" y1="103.9609" y2="1166.1563"/><line style="stroke:#181818;stroke-width:0.5;fill:none;stroke-dasharray:5.0,5.0;" x1="536.5" x2="536.5" y1="103.9609" y2="1166.1563"/><line style="stroke:#181818;stroke-width:0.5;fill:none;stroke-dasharray:5.0,5.0;" x1="764.5" x2="764.5" y1="103.9609" y2="1166.1563"/><line style="stroke:#181818;stroke-width:0.5;fill:none;stroke-dasharray:5.0,5.0;" x1="918.5" x2="918.5" y1="103.9609" y2="1166.1563"/><line style="stroke:#181818;stroke-width:0.5;fill:none;stroke-dasharray:5.0,5.0;" x1="1072.5" x2="1072.5" y1="103.9609" y2="1166.1563"/><line style="stroke:#181818;stroke-width:0.5;fill:none;stroke-dasharray:5.0,5.0;" x1="1286" x2="1286" y1="103.9609" y2="1166.1563"/><text fill="#000000" font-family="sans-serif" font-size="14" lengthAdjust="spacing" textLength="87" x="5" y="100.8848">Administrador</text><ellipse cx="51.5" cy="34.8516" fill="#E2E2F0" rx="8" ry="8" style="stroke:#181818;stroke-width:0.5;"/><path d="M51.5,42.8516 L51.5,69.8516 M38.5,50.8516 L64.5,50.8516 M51.5,69.8516 L38.5,84.8516 M51.5,69.8516 L64.5,84.8516 " fill="none" style="stroke:#181818;stroke-width:0.5;"/><text fill="#000000" font-family="sans-serif" font-size="14" lengthAdjust="spacing" textLength="87" x="5" y="1179.6895">Administrador</text><ellipse cx="51.5" cy="1191.2656" fill="#E2E2F0" rx="8" ry="8" style="stroke:#181818;stroke-width:0.5;"/><path d="M51.5,1199.2656 L51.5,1226.2656 M38.5,1207.2656 L64.5,1207.2656 M51.5,1226.2656 L38.5,1241.2656 M51.5,1226.2656 L64.5,1241.2656 " fill="none" style="stroke:#181818;stroke-width:0.5;"/><rect fill="#E2E2F0" height="49.2188" rx="2.5" ry="2.5" style="stroke:#181818;stroke-width:0.5;" width="119" x="168" y="53.7422"/><text fill="#000000" font-family="sans-serif" font-size="14" font-style="italic" lengthAdjust="spacing" textLength="41" x="207" y="75.2754">«GUI»</text><text fill="#000000" font-family="sans-serif" font-size="14" lengthAdjust="spacing" textLength="105" x="175" y="92.8848">consultarPerfiles</text><rect fill="#E2E2F0" height="49.2188" rx="2.5" ry="2.5" style="stroke:#181818;stroke-width:0.5;" width="119" x="168" y="1165.1563"/><text fill="#000000" font-family="sans-serif" font-size="14" font-style="italic" lengthAdjust="spacing" textLength="41" x="207" y="1186.6895">«GUI»</text><text fill="#000000" font-family="sans-serif" font-size="14" lengthAdjust="spacing" textLength="105" x="175" y="1204.2988">consultarPerfiles</text><rect fill="#E2E2F0" height="49.2188" rx="2.5" ry="2.5" style="stroke:#181818;stroke-width:0.5;" width="119" x="324" y="53.7422"/><text fill="#000000" font-family="sans-serif" font-size="14" font-style="italic" lengthAdjust="spacing" textLength="78" x="344.5" y="75.2754">«Controller»</text><text fill="#000000" font-family="sans-serif" font-size="14" lengthAdjust="spacing" textLength="105" x="331" y="92.8848">consultarPerfiles</text><rect fill="#E2E2F0" height="49.2188" rx="2.5" ry="2.5" style="stroke:#181818;stroke-width:0.5;" width="119" x="324" y="1165.1563"/><text fill="#000000" font-family="sans-serif" font-size="14" font-style="italic" lengthAdjust="spacing" textLength="78" x="344.5" y="1186.6895">«Controller»</text><text fill="#000000" font-family="sans-serif" font-size="14" lengthAdjust="spacing" textLength="105" x="331" y="1204.2988">consultarPerfiles</text><rect fill="#E2E2F0" height="49.2188" rx="2.5" ry="2.5" style="stroke:#181818;stroke-width:0.5;" width="92" x="490.5" y="53.7422"/><text fill="#000000" font-family="sans-serif" font-size="14" font-style="italic" lengthAdjust="spacing" textLength="46" x="513.5" y="75.2754">«DAO»</text><text fill="#000000" font-family="sans-serif" font-size="14" lengthAdjust="spacing" textLength="78" x="497.5" y="92.8848">UsuarioDAO</text><rect fill="#E2E2F0" height="49.2188" rx="2.5" ry="2.5" style="stroke:#181818;stroke-width:0.5;" width="92" x="490.5" y="1165.1563"/><text fill="#000000" font-family="sans-serif" font-size="14" font-style="italic" lengthAdjust="spacing" textLength="46" x="513.5" y="1186.6895">«DAO»</text><text fill="#000000" font-family="sans-serif" font-size="14" lengthAdjust="spacing" textLength="78" x="497.5" y="1204.2988">UsuarioDAO</text><rect fill="#E2E2F0" height="49.2188" rx="2.5" ry="2.5" style="stroke:#181818;stroke-width:0.5;" width="98" x="715.5" y="53.7422"/><text fill="#000000" font-family="sans-serif" font-size="14" font-style="italic" lengthAdjust="spacing" textLength="38" x="745.5" y="75.2754">«API»</text><text fill="#000000" font-family="sans-serif" font-size="14" lengthAdjust="spacing" textLength="84" x="722.5" y="92.8848">ElCamelloAPI</text><rect fill="#E2E2F0" height="49.2188" rx="2.5" ry="2.5" style="stroke:#181818;stroke-width:0.5;" width="98" x="715.5" y="1165.1563"/><text fill="#000000" font-family="sans-serif" font-size="14" font-style="italic" lengthAdjust="spacing" textLength="38" x="745.5" y="1186.6895">«API»</text><text fill="#000000" font-family="sans-serif" font-size="14" lengthAdjust="spacing" textLength="84" x="722.5" y="1204.2988">ElCamelloAPI</text><rect fill="#E2E2F0" height="49.2188" rx="2.5" ry="2.5" style="stroke:#181818;stroke-width:0.5;" width="118" x="859.5" y="53.7422"/><text fill="#000000" font-family="sans-serif" font-size="14" font-style="italic" lengthAdjust="spacing" textLength="97" x="870" y="75.2754">«Componente»</text><text fill="#000000" font-family="sans-serif" font-size="14" lengthAdjust="spacing" textLength="104" x="866.5" y="92.8848">GestionUsuarios</text><rect fill="#E2E2F0" height="49.2188" rx="2.5" ry="2.5" style="stroke:#181818;stroke-width:0.5;" width="118" x="859.5" y="1165.1563"/><text fill="#000000" font-family="sans-serif" font-size="14" font-style="italic" lengthAdjust="spacing" textLength="97" x="870" y="1186.6895">«Componente»</text><text fill="#000000" font-family="sans-serif" font-size="14" lengthAdjust="spacing" textLength="104" x="866.5" y="1204.2988">GestionUsuarios</text><rect fill="#E2E2F0" height="49.2188" rx="2.5" ry="2.5" style="stroke:#181818;stroke-width:0.5;" width="92" x="1026.5" y="53.7422"/><text fill="#000000" font-family="sans-serif" font-size="14" font-style="italic" lengthAdjust="spacing" textLength="46" x="1049.5" y="75.2754">«DAO»</text><text fill="#000000" font-family="sans-serif" font-size="14" lengthAdjust="spacing" textLength="78" x="1033.5" y="92.8848">UsuarioDAO</text><rect fill="#E2E2F0" height="49.2188" rx="2.5" ry="2.5" style="stroke:#181818;stroke-width:0.5;" width="92" x="1026.5" y="1165.1563"/><text fill="#000000" font-family="sans-serif" font-size="14" font-style="italic" lengthAdjust="spacing" textLength="46" x="1049.5" y="1186.6895">«DAO»</text><text fill="#000000" font-family="sans-serif" font-size="14" lengthAdjust="spacing" textLength="78" x="1033.5" y="1204.2988">UsuarioDAO</text><text fill="#000000" font-family="sans-serif" font-size="14" lengthAdjust="spacing" textLength="81" x="1243" y="100.8848">elCamelloDB</text><path d="M1268.5,50.3516 C1268.5,40.3516 1286.5,40.3516 1286.5,40.3516 C1286.5,40.3516 1304.5,40.3516 1304.5,50.3516 L1304.5,76.3516 C1304.5,86.3516 1286.5,86.3516 1286.5,86.3516 C1286.5,86.3516 1268.5,86.3516 1268.5,76.3516 L1268.5,50.3516 " fill="#E2E2F0" style="stroke:#181818;stroke-width:1.5;"/><path d="M1268.5,50.3516 C1268.5,60.3516 1286.5,60.3516 1286.5,60.3516 C1286.5,60.3516 1304.5,60.3516 1304.5,50.3516 " fill="none" style="stroke:#181818;stroke-width:1.5;"/><text fill="#000000" font-family="sans-serif" font-size="14" lengthAdjust="spacing" textLength="81" x="1243" y="1179.6895">elCamelloDB</text><path d="M1268.5,1192.7656 C1268.5,1182.7656 1286.5,1182.7656 1286.5,1182.7656 C1286.5,1182.7656 1304.5,1182.7656 1304.5,1192.7656 L1304.5,1218.7656 C1304.5,1228.7656 1286.5,1228.7656 1286.5,1228.7656 C1286.5,1228.7656 1268.5,1228.7656 1268.5,1218.7656 L1268.5,1192.7656 " fill="#E2E2F0" style="stroke:#181818;stroke-width:1.5;"/><path d="M1268.5,1192.7656 C1268.5,1202.7656 1286.5,1202.7656 1286.5,1202.7656 C1286.5,1202.7656 1304.5,1202.7656 1304.5,1192.7656 " fill="none" style="stroke:#181818;stroke-width:1.5;"/><rect fill="#FFFFFF" height="1020.8438" style="stroke:#181818;stroke-width:1.0;" width="10" x="46.5" y="136.3125"/><rect fill="#FFFFFF" height="1020.8438" style="stroke:#181818;stroke-width:1.0;" width="10" x="222.5" y="136.3125"/><rect fill="#FFFFFF" height="990.4922" style="stroke:#181818;stroke-width:1.0;" width="10" x="378.5" y="166.6641"/><rect fill="#FFFFFF" height="960.1406" style="stroke:#181818;stroke-width:1.0;" width="10" x="531.5" y="197.0156"/><rect fill="#FFFFFF" height="844.3828" style="stroke:#181818;stroke-width:1.0;" width="10" x="759.5" y="312.7734"/><rect fill="#FFFFFF" height="60.3516" style="stroke:#181818;stroke-width:1.0;" width="10" x="913.5" y="343.125"/><rect fill="#FFFFFF" height="783.6797" style="stroke:#181818;stroke-width:1.0;" width="10" x="1067.5" y="373.4766"/><rect fill="#FFFFFF" height="213.8672" style="stroke:#181818;stroke-width:1.0;" width="10" x="1281.5" y="433.8281"/><polygon fill="#181818" points="210.5,132.3125,220.5,136.3125,210.5,140.3125,214.5,136.3125" style="stroke:#181818;stroke-width:1.0;"/><line style="stroke:#181818;stroke-width:1.0;" x1="56.5" x2="216.5" y1="136.3125" y2="136.3125"/><text fill="#000000" font-family="sans-serif" font-size="13" lengthAdjust="spacing" textLength="152" x="63.5" y="131.4561">btnPantallaUsuarios_Click</text><polygon fill="#181818" points="366.5,162.6641,376.5,166.6641,366.5,170.6641,370.5,166.6641" style="stroke:#181818;stroke-width:1.0;"/><line style="stroke:#181818;stroke-width:1.0;" x1="232.5" x2="372.5" y1="166.6641" y2="166.6641"/><text fill="#000000" font-family="sans-serif" font-size="13" lengthAdjust="spacing" textLength="127" x="239.5" y="161.8076">cargarUsuarios(token)</text><polygon fill="#181818" points="519.5,193.0156,529.5,197.0156,519.5,201.0156,523.5,197.0156" style="stroke:#181818;stroke-width:1.0;"/><line style="stroke:#181818;stroke-width:1.0;" x1="388.5" x2="525.5" y1="197.0156" y2="197.0156"/><text fill="#000000" font-family="sans-serif" font-size="13" lengthAdjust="spacing" textLength="109" x="395.5" y="192.1592">getUsuarios(token)</text><path d="M546,210.0156 L546,285.0156 L696,285.0156 L696,220.0156 L686,210.0156 L546,210.0156 " fill="#FEFFDD" style="stroke:#181818;stroke-width:0.5;"/><path d="M686,210.0156 L686,220.0156 L696,220.0156 L686,210.0156 " fill="#FEFFDD" style="stroke:#181818;stroke-width:0.5;"/><text fill="#000000" font-family="sans-serif" font-size="13" lengthAdjust="spacing" textLength="4" x="552" y="228.5107"> </text><text fill="#000000" font-family="sans-serif" font-size="13" font-weight="bold" lengthAdjust="spacing" textLength="61" x="552" y="244.8623">HEADERS</text><text fill="#000000" font-family="sans-serif" font-size="13" lengthAdjust="spacing" textLength="129" x="552" y="261.2139">x-access-token: string</text><text fill="#000000" font-family="sans-serif" font-size="13" lengthAdjust="spacing" textLength="4" x="552" y="277.5654"> </text><polygon fill="#181818" points="747.5,308.7734,757.5,312.7734,747.5,316.7734,751.5,312.7734" style="stroke:#181818;stroke-width:1.0;"/><line style="stroke:#181818;stroke-width:1.0;" x1="541.5" x2="753.5" y1="312.7734" y2="312.7734"/><text fill="#000000" font-family="sans-serif" font-size="13" font-weight="bold" lengthAdjust="spacing" textLength="26" x="548.5" y="307.917">GET</text><text fill="#000000" font-family="sans-serif" font-size="13" lengthAdjust="spacing" textLength="98" x="578.5" y="307.917">/v1/perfilUsuarios</text><polygon fill="#181818" points="901.5,339.125,911.5,343.125,901.5,347.125,905.5,343.125" style="stroke:#181818;stroke-width:1.0;"/><line style="stroke:#181818;stroke-width:1.0;" x1="769.5" x2="907.5" y1="343.125" y2="343.125"/><text fill="#000000" font-family="sans-serif" font-size="13" lengthAdjust="spacing" textLength="125" x="776.5" y="338.2686">getUsuarios(callback)</text><polygon fill="#181818" points="1055.5,369.4766,1065.5,373.4766,1055.5,377.4766,1059.5,373.4766" style="stroke:#181818;stroke-width:1.0;"/><line style="stroke:#181818;stroke-width:1.0;" x1="923.5" x2="1061.5" y1="373.4766" y2="373.4766"/><text fill="#000000" font-family="sans-serif" font-size="13" lengthAdjust="spacing" textLength="125" x="930.5" y="368.6201">getUsuarios(callback)</text><polygon fill="#181818" points="1269.5,429.8281,1279.5,433.8281,1269.5,437.8281,1273.5,433.8281" style="stroke:#181818;stroke-width:1.0;"/><line style="stroke:#181818;stroke-width:1.0;" x1="1077.5" x2="1275.5" y1="433.8281" y2="433.8281"/><text fill="#000000" font-family="sans-serif" font-size="13" lengthAdjust="spacing" textLength="185" x="1084.5" y="428.9717">SELECT * FROM perfil_usuario;</text><path d="M1296,446.8281 L1296,619.8281 L1474,619.8281 L1474,456.8281 L1464,446.8281 L1296,446.8281 " fill="#FEFFDD" style="stroke:#181818;stroke-width:0.5;"/><path d="M1464,446.8281 L1464,456.8281 L1474,456.8281 L1464,446.8281 " fill="#FEFFDD" style="stroke:#181818;stroke-width:0.5;"/><text fill="#000000" font-family="sans-serif" font-size="13" font-weight="bold" lengthAdjust="spacing" textLength="62" x="1302" y="465.3232">PAYLOAD</text><text fill="#000000" font-family="sans-serif" font-size="13" lengthAdjust="spacing" textLength="4" x="1302" y="481.6748"> </text><text fill="#000000" font-family="sans-serif" font-size="13" lengthAdjust="spacing" textLength="85" x="1302" y="498.0264">list &lt;Usuario&gt;:</text><text fill="#000000" font-family="sans-serif" font-size="13" lengthAdjust="spacing" textLength="69" x="1318" y="514.3779">clave: string</text><text fill="#000000" font-family="sans-serif" font-size="13" lengthAdjust="spacing" textLength="65" x="1318" y="530.7295">estatus: int</text><text fill="#000000" font-family="sans-serif" font-size="13" lengthAdjust="spacing" textLength="105" x="1318" y="547.0811">idPerfilUsuario: int</text><text fill="#000000" font-family="sans-serif" font-size="13" lengthAdjust="spacing" textLength="141" x="1318" y="563.4326">correoElectronico: string</text><text fill="#000000" font-family="sans-serif" font-size="13" lengthAdjust="spacing" textLength="127" x="1318" y="579.7842">nombreUsuario: string</text><text fill="#000000" font-family="sans-serif" font-size="13" lengthAdjust="spacing" textLength="105" x="1318" y="596.1357">tipoUsuario: string</text><text fill="#000000" font-family="sans-serif" font-size="13" lengthAdjust="spacing" textLength="4" x="1302" y="612.4873"> </text><line style="stroke:#181818;stroke-width:1.0;" x1="1077.5" x2="1087.5" y1="647.6953" y2="643.6953"/><line style="stroke:#181818;stroke-width:1.0;" x1="1077.5" x2="1087.5" y1="647.6953" y2="651.6953"/><line style="stroke:#181818;stroke-width:1.0;stroke-dasharray:2.0,2.0;" x1="1077.5" x2="1285.5" y1="647.6953" y2="647.6953"/><text fill="#000000" font-family="sans-serif" font-size="13" lengthAdjust="spacing" textLength="53" x="1094.5" y="642.8389">response</text><polygon fill="#181818" points="780.5,674.0469,770.5,678.0469,780.5,682.0469,776.5,678.0469" style="stroke:#181818;stroke-width:1.0;"/><line style="stroke:#181818;stroke-width:1.0;" x1="774.5" x2="1066.5" y1="678.0469" y2="678.0469"/><text fill="#000000" font-family="sans-serif" font-size="13" lengthAdjust="spacing" textLength="138" x="786.5" y="673.1904">callback(200, response)</text><polygon fill="#181818" points="552.5,704.3984,542.5,708.3984,552.5,712.3984,548.5,708.3984" style="stroke:#181818;stroke-width:1.0;"/><line style="stroke:#181818;stroke-width:1.0;" x1="546.5" x2="758.5" y1="708.3984" y2="708.3984"/><text fill="#000000" font-family="sans-serif" font-size="13" font-weight="bold" lengthAdjust="spacing" textLength="44" x="558.5" y="703.542">200 OK</text><polygon fill="#181818" points="399.5,734.75,389.5,738.75,399.5,742.75,395.5,738.75" style="stroke:#181818;stroke-width:1.0;"/><line style="stroke:#181818;stroke-width:1.0;stroke-dasharray:2.0,2.0;" x1="393.5" x2="530.5" y1="738.75" y2="738.75"/><text fill="#000000" font-family="sans-serif" font-size="13" lengthAdjust="spacing" textLength="53" x="405.5" y="733.8936">response</text><line style="stroke:#181818;stroke-width:1.0;" x1="388.5" x2="430.5" y1="785.4531" y2="785.4531"/><line style="stroke:#181818;stroke-width:1.0;" x1="430.5" x2="430.5" y1="785.4531" y2="798.4531"/><line style="stroke:#181818;stroke-width:1.0;" x1="389.5" x2="430.5" y1="798.4531" y2="798.4531"/><line style="stroke:#181818;stroke-width:1.0;" x1="389.5" x2="399.5" y1="798.4531" y2="794.4531"/><line style="stroke:#181818;stroke-width:1.0;" x1="389.5" x2="399.5" y1="798.4531" y2="802.4531"/><text fill="#000000" font-family="sans-serif" font-size="13" lengthAdjust="spacing" textLength="49" x="395.5" y="764.2451">mensaje</text><text fill="#000000" font-family="sans-serif" font-size="13" lengthAdjust="spacing" textLength="30" x="395.5" y="780.5967">Exito</text><path d="M314,813.4531 L375,813.4531 L375,821.8047 L365,831.8047 L314,831.8047 L314,813.4531 " fill="#EEEEEE" style="stroke:#000000;stroke-width:1.5;"/><rect fill="none" height="335.7031" style="stroke:#000000;stroke-width:1.5;" width="814.5" x="314" y="813.4531"/><text fill="#000000" font-family="sans-serif" font-size="13" font-weight="bold" lengthAdjust="spacing" textLength="16" x="329" y="827.9482">alt</text><text fill="#000000" font-family="sans-serif" font-size="11" font-weight="bold" lengthAdjust="spacing" textLength="142" x="390" y="826.8721">[INTERNAL SERVER ERROR]</text><polygon fill="#181818" points="780.5,850.1563,770.5,854.1563,780.5,858.1563,776.5,854.1563" style="stroke:#181818;stroke-width:1.0;"/><line style="stroke:#181818;stroke-width:1.0;" x1="774.5" x2="1066.5" y1="854.1563" y2="854.1563"/><text fill="#000000" font-family="sans-serif" font-size="13" lengthAdjust="spacing" textLength="134" x="786.5" y="849.2998">callback(500, mensaje)</text><polygon fill="#181818" points="552.5,880.5078,542.5,884.5078,552.5,888.5078,548.5,884.5078" style="stroke:#181818;stroke-width:1.0;"/><line style="stroke:#181818;stroke-width:1.0;" x1="546.5" x2="758.5" y1="884.5078" y2="884.5078"/><text fill="#000000" font-family="sans-serif" font-size="13" font-weight="bold" lengthAdjust="spacing" textLength="194" x="558.5" y="879.6514">500 INTERNAL SERVER ERROR</text><line style="stroke:#181818;stroke-width:1.0;" x1="388.5" x2="398.5" y1="914.8594" y2="910.8594"/><line style="stroke:#181818;stroke-width:1.0;" x1="388.5" x2="398.5" y1="914.8594" y2="918.8594"/><line style="stroke:#181818;stroke-width:1.0;stroke-dasharray:2.0,2.0;" x1="388.5" x2="530.5" y1="914.8594" y2="914.8594"/><text fill="#000000" font-family="sans-serif" font-size="13" lengthAdjust="spacing" textLength="20" x="405.5" y="910.0029">null</text><line style="stroke:#181818;stroke-width:1.0;" x1="388.5" x2="430.5" y1="961.5625" y2="961.5625"/><line style="stroke:#181818;stroke-width:1.0;" x1="430.5" x2="430.5" y1="961.5625" y2="974.5625"/><line style="stroke:#181818;stroke-width:1.0;" x1="389.5" x2="430.5" y1="974.5625" y2="974.5625"/><line style="stroke:#181818;stroke-width:1.0;" x1="389.5" x2="399.5" y1="974.5625" y2="970.5625"/><line style="stroke:#181818;stroke-width:1.0;" x1="389.5" x2="399.5" y1="974.5625" y2="978.5625"/><text fill="#000000" font-family="sans-serif" font-size="13" lengthAdjust="spacing" textLength="49" x="395.5" y="940.3545">mensaje</text><text fill="#000000" font-family="sans-serif" font-size="13" lengthAdjust="spacing" textLength="113" x="395.5" y="956.7061">ErrorInternoServidor</text><line style="stroke:#000000;stroke-width:1.0;stroke-dasharray:2.0,2.0;" x1="314" x2="1128.5" y1="983.5625" y2="983.5625"/><text fill="#000000" font-family="sans-serif" font-size="11" font-weight="bold" lengthAdjust="spacing" textLength="68" x="319" y="994.9814">[NOT FOUND]</text><polygon fill="#181818" points="780.5,1016.75,770.5,1020.75,780.5,1024.75,776.5,1020.75" style="stroke:#181818;stroke-width:1.0;"/><line style="stroke:#181818;stroke-width:1.0;" x1="774.5" x2="1066.5" y1="1020.75" y2="1020.75"/><text fill="#000000" font-family="sans-serif" font-size="13" lengthAdjust="spacing" textLength="134" x="786.5" y="1015.8936">callback(404, mensaje)</text><polygon fill="#181818" points="552.5,1047.1016,542.5,1051.1016,552.5,1055.1016,548.5,1051.1016" style="stroke:#181818;stroke-width:1.0;"/><line style="stroke:#181818;stroke-width:1.0;" x1="546.5" x2="758.5" y1="1051.1016" y2="1051.1016"/><text fill="#000000" font-family="sans-serif" font-size="13" font-weight="bold" lengthAdjust="spacing" textLength="93" x="558.5" y="1046.2451">404 NO FOUND</text><line style="stroke:#181818;stroke-width:1.0;" x1="388.5" x2="398.5" y1="1081.4531" y2="1077.4531"/><line style="stroke:#181818;stroke-width:1.0;" x1="388.5" x2="398.5" y1="1081.4531" y2="1085.4531"/><line style="stroke:#181818;stroke-width:1.0;stroke-dasharray:2.0,2.0;" x1="388.5" x2="530.5" y1="1081.4531" y2="1081.4531"/><text fill="#000000" font-family="sans-serif" font-size="13" lengthAdjust="spacing" textLength="20" x="405.5" y="1076.5967">null</text><line style="stroke:#181818;stroke-width:1.0;" x1="388.5" x2="430.5" y1="1128.1563" y2="1128.1563"/><line style="stroke:#181818;stroke-width:1.0;" x1="430.5" x2="430.5" y1="1128.1563" y2="1141.1563"/><line style="stroke:#181818;stroke-width:1.0;" x1="389.5" x2="430.5" y1="1141.1563" y2="1141.1563"/><line style="stroke:#181818;stroke-width:1.0;" x1="389.5" x2="399.5" y1="1141.1563" y2="1137.1563"/><line style="stroke:#181818;stroke-width:1.0;" x1="389.5" x2="399.5" y1="1141.1563" y2="1145.1563"/><text fill="#000000" font-family="sans-serif" font-size="13" lengthAdjust="spacing" textLength="49" x="395.5" y="1106.9482">mensaje</text><text fill="#000000" font-family="sans-serif" font-size="13" lengthAdjust="spacing" textLength="129" x="395.5" y="1123.2998">PeticionNoEncontrada</text><!--MD5=[fe9c7cbf85ccdd326a09a0046455c87b]
@startuml

box Cliente
    actor Administrador as a
    participant consultarPerfiles as b <<GUI>> 
    participant consultarPerfiles as c <<Controller>>
    participant UsuarioDAO as d <<DAO>>

end box

box Servidor
    participant ElCamelloAPI as e <<API>>
    participant GestionUsuarios as f <<Componente>>
    participant UsuarioDAO as g <<DAO>>
    database elCamelloDB as db
end box

a -> b: btnPantallaUsuarios_Click
activate a
activate b

b -> c: cargarUsuarios(token)
activate c

c -> d: getUsuarios(token)
activate d

note right of d
 
**HEADERS**
x-access-token: string

end note


d -> e:  **GET** /v1/perfilUsuarios
activate e

e -> f: getUsuarios(callback)
activate f

f -> g: getUsuarios(callback)
activate g
deactivate f

g -> db: SELECT * FROM perfil_usuario;
activate db

note right of db
**PAYLOAD**

list <Usuario>:
    clave: string
    estatus: int
    idPerfilUsuario: int
    correoElectronico: string
    nombreUsuario: string
    tipoUsuario: string

end note

db - ->> g: response
deactivate db

g -> e: callback(200, response)

e -> d: **200 OK**

d - -> c: response

c ->> c: mensaje\nExito

alt INTERNAL SERVER ERROR

    g -> e: callback(500, mensaje)

    e -> d: **500 INTERNAL SERVER ERROR**

    d - ->> c: null

    c ->> c: mensaje\nErrorInternoServidor

else NOT FOUND

    g -> e: callback(404, mensaje)

    e -> d: **404 NO FOUND**

    d - ->> c: null

    c ->> c: mensaje\nPeticionNoEncontrada

end

@enduml

PlantUML version 1.2022.5(Sat Apr 30 05:55:52 CDT 2022)
(GPL source distribution)
Java Runtime: Java(TM) SE Runtime Environment
JVM: Java HotSpot(TM) 64-Bit Server VM
Default Encoding: Cp1252
Language: es
Country: MX
--></g></svg>