<?xml version="1.0" encoding="UTF-8" standalone="no"?><svg xmlns="http://www.w3.org/2000/svg" xmlns:xlink="http://www.w3.org/1999/xlink" contentStyleType="text/css" height="1246px" preserveAspectRatio="none" style="width:1948px;height:1246px;background:#FFFFFF;" version="1.1" viewBox="0 0 1948 1246" width="1948px" zoomAndPan="magnify"><defs/><g><rect fill="#DDDDDD" height="1234.5391" style="stroke:#181818;stroke-width:0.5;" width="970" x="16" y="6"/><text fill="#000000" font-family="sans-serif" font-size="13" font-weight="bold" lengthAdjust="spacing" textLength="45" x="478.5" y="19.4951">Cliente</text><rect fill="#DDDDDD" height="1234.5391" style="stroke:#181818;stroke-width:0.5;" width="693" x="1232" y="6"/><text fill="#000000" font-family="sans-serif" font-size="13" font-weight="bold" lengthAdjust="spacing" textLength="54" x="1551.5" y="19.4951">Servidor</text><rect fill="#FFFFFF" height="1014.6172" style="stroke:#181818;stroke-width:1.0;" width="10" x="200" y="136.3125"/><rect fill="#FFFFFF" height="105.0547" style="stroke:#181818;stroke-width:1.0;" width="10" x="373" y="166.6641"/><rect fill="#FFFFFF" height="66.7031" style="stroke:#181818;stroke-width:1.0;" width="10" x="378" y="205.0156"/><rect fill="#FFFFFF" height="811.5078" style="stroke:#181818;stroke-width:1.0;" width="10" x="373" y="339.4219"/><rect fill="#FFFFFF" height="717.8047" style="stroke:#181818;stroke-width:1.0;" width="10" x="378" y="377.7734"/><rect fill="#FFFFFF" height="477.2344" style="stroke:#181818;stroke-width:1.0;" width="10" x="1280" y="673.6953"/><rect fill="#FFFFFF" height="326.125" style="stroke:#181818;stroke-width:1.0;" width="10" x="1285" y="808.8047"/><rect fill="#FFFFFF" height="461.2344" style="stroke:#181818;stroke-width:1.0;" width="10" x="1451" y="673.6953"/><rect fill="#FFFFFF" height="60.7031" style="stroke:#181818;stroke-width:1.0;" width="10" x="1731.5" y="888.2109"/><rect fill="#FFFFFF" height="30.3516" style="stroke:#181818;stroke-width:1.0;" width="10" x="1872.5" y="918.5625"/><rect height="917.9141" style="stroke:#000000;stroke-width:1.5;fill:none;" width="1931" x="10" y="225.0156"/><rect height="268.2188" style="stroke:#000000;stroke-width:1.5;fill:none;" width="1241" x="690" y="719.0469"/><line style="stroke:#181818;stroke-width:0.5;fill:none;stroke-dasharray:5.0,5.0;" x1="53" x2="53" y1="103.9609" y2="1159.9297"/><line style="stroke:#181818;stroke-width:0.5;fill:none;stroke-dasharray:5.0,5.0;" x1="205" x2="205" y1="103.9609" y2="1159.9297"/><line style="stroke:#181818;stroke-width:0.5;fill:none;stroke-dasharray:5.0,5.0;" x1="378" x2="378" y1="103.9609" y2="1159.9297"/><line style="stroke:#181818;stroke-width:0.5;fill:none;stroke-dasharray:5.0,5.0;" x1="639" x2="639" y1="1055.9219" y2="1159.9297"/><line style="stroke:#181818;stroke-width:0.5;fill:none;stroke-dasharray:5.0,5.0;" x1="781" x2="781" y1="103.9609" y2="1159.9297"/><line style="stroke:#181818;stroke-width:0.5;fill:none;stroke-dasharray:5.0,5.0;" x1="927" x2="927" y1="103.9609" y2="1159.9297"/><line style="stroke:#181818;stroke-width:0.5;fill:none;stroke-dasharray:5.0,5.0;" x1="1285" x2="1285" y1="103.9609" y2="1159.9297"/><line style="stroke:#181818;stroke-width:0.5;fill:none;stroke-dasharray:5.0,5.0;" x1="1455.5" x2="1455.5" y1="103.9609" y2="1159.9297"/><line style="stroke:#181818;stroke-width:0.5;fill:none;stroke-dasharray:5.0,5.0;" x1="1577.5" x2="1577.5" y1="103.9609" y2="1159.9297"/><line style="stroke:#181818;stroke-width:0.5;fill:none;stroke-dasharray:5.0,5.0;" x1="1736" x2="1736" y1="103.9609" y2="1159.9297"/><line style="stroke:#181818;stroke-width:0.5;fill:none;stroke-dasharray:5.0,5.0;" x1="1877" x2="1877" y1="103.9609" y2="1159.9297"/><text fill="#000000" font-family="sans-serif" font-size="14" lengthAdjust="spacing" textLength="60" x="20" y="100.8848">Aspirante</text><ellipse cx="53" cy="34.8516" fill="#E2E2F0" rx="8" ry="8" style="stroke:#181818;stroke-width:0.5;"/><path d="M53,42.8516 L53,69.8516 M40,50.8516 L66,50.8516 M53,69.8516 L40,84.8516 M53,69.8516 L66,84.8516 " fill="none" style="stroke:#181818;stroke-width:0.5;"/><text fill="#000000" font-family="sans-serif" font-size="14" lengthAdjust="spacing" textLength="60" x="20" y="1173.4629">Aspirante</text><ellipse cx="53" cy="1185.0391" fill="#E2E2F0" rx="8" ry="8" style="stroke:#181818;stroke-width:0.5;"/><path d="M53,1193.0391 L53,1220.0391 M40,1201.0391 L66,1201.0391 M53,1220.0391 L40,1235.0391 M53,1220.0391 L66,1235.0391 " fill="none" style="stroke:#181818;stroke-width:0.5;"/><rect fill="#E2E2F0" height="49.2188" rx="2.5" ry="2.5" style="stroke:#181818;stroke-width:0.5;" width="132" x="139" y="53.7422"/><text fill="#000000" font-family="sans-serif" font-size="14" font-style="italic" lengthAdjust="spacing" textLength="41" x="184.5" y="75.2754">«GUI»</text><text fill="#000000" font-family="sans-serif" font-size="14" lengthAdjust="spacing" textLength="118" x="146" y="92.8848">SolicitudesServicio</text><rect fill="#E2E2F0" height="49.2188" rx="2.5" ry="2.5" style="stroke:#181818;stroke-width:0.5;" width="132" x="139" y="1158.9297"/><text fill="#000000" font-family="sans-serif" font-size="14" font-style="italic" lengthAdjust="spacing" textLength="41" x="184.5" y="1180.4629">«GUI»</text><text fill="#000000" font-family="sans-serif" font-size="14" lengthAdjust="spacing" textLength="118" x="146" y="1198.0723">SolicitudesServicio</text><rect fill="#E2E2F0" height="49.2188" rx="2.5" ry="2.5" style="stroke:#181818;stroke-width:0.5;" width="194" x="281" y="53.7422"/><text fill="#000000" font-family="sans-serif" font-size="14" font-style="italic" lengthAdjust="spacing" textLength="78" x="339" y="75.2754">«Controller»</text><text fill="#000000" font-family="sans-serif" font-size="14" lengthAdjust="spacing" textLength="180" x="288" y="92.8848">SolicitudesServicioController</text><rect fill="#E2E2F0" height="49.2188" rx="2.5" ry="2.5" style="stroke:#181818;stroke-width:0.5;" width="194" x="281" y="1158.9297"/><text fill="#000000" font-family="sans-serif" font-size="14" font-style="italic" lengthAdjust="spacing" textLength="78" x="339" y="1180.4629">«Controller»</text><text fill="#000000" font-family="sans-serif" font-size="14" lengthAdjust="spacing" textLength="180" x="288" y="1198.0723">SolicitudesServicioController</text><rect fill="#E2E2F0" height="31.6094" rx="2.5" ry="2.5" style="stroke:#181818;stroke-width:0.5;" width="102" x="588" y="1158.9297"/><text fill="#000000" font-family="sans-serif" font-size="14" lengthAdjust="spacing" textLength="88" x="595" y="1180.4629">MessaggeBox</text><rect fill="#E2E2F0" height="49.2188" rx="2.5" ry="2.5" style="stroke:#181818;stroke-width:0.5;" width="162" x="700" y="53.7422"/><text fill="#000000" font-family="sans-serif" font-size="14" font-style="italic" lengthAdjust="spacing" textLength="46" x="758" y="75.2754">«DAO»</text><text fill="#000000" font-family="sans-serif" font-size="14" lengthAdjust="spacing" textLength="148" x="707" y="92.8848">SolicitudesServicioDAO</text><rect fill="#E2E2F0" height="49.2188" rx="2.5" ry="2.5" style="stroke:#181818;stroke-width:0.5;" width="162" x="700" y="1158.9297"/><text fill="#000000" font-family="sans-serif" font-size="14" font-style="italic" lengthAdjust="spacing" textLength="46" x="758" y="1180.4629">«DAO»</text><text fill="#000000" font-family="sans-serif" font-size="14" lengthAdjust="spacing" textLength="148" x="707" y="1198.0723">SolicitudesServicioDAO</text><rect fill="#E2E2F0" height="49.2188" rx="2.5" ry="2.5" style="stroke:#181818;stroke-width:0.5;" width="110" x="872" y="53.7422"/><text fill="#000000" font-family="sans-serif" font-size="14" font-style="italic" lengthAdjust="spacing" textLength="41" x="906.5" y="75.2754">«GUI»</text><text fill="#000000" font-family="sans-serif" font-size="14" lengthAdjust="spacing" textLength="96" x="879" y="92.8848">RespuestasAPI</text><rect fill="#E2E2F0" height="49.2188" rx="2.5" ry="2.5" style="stroke:#181818;stroke-width:0.5;" width="110" x="872" y="1158.9297"/><text fill="#000000" font-family="sans-serif" font-size="14" font-style="italic" lengthAdjust="spacing" textLength="41" x="906.5" y="1180.4629">«GUI»</text><text fill="#000000" font-family="sans-serif" font-size="14" lengthAdjust="spacing" textLength="96" x="879" y="1198.0723">RespuestasAPI</text><rect fill="#E2E2F0" height="49.2188" rx="2.5" ry="2.5" style="stroke:#181818;stroke-width:0.5;" width="98" x="1236" y="53.7422"/><text fill="#000000" font-family="sans-serif" font-size="14" font-style="italic" lengthAdjust="spacing" textLength="38" x="1266" y="75.2754">«API»</text><text fill="#000000" font-family="sans-serif" font-size="14" lengthAdjust="spacing" textLength="84" x="1243" y="92.8848">ElCamelloAPI</text><rect fill="#E2E2F0" height="49.2188" rx="2.5" ry="2.5" style="stroke:#181818;stroke-width:0.5;" width="98" x="1236" y="1158.9297"/><text fill="#000000" font-family="sans-serif" font-size="14" font-style="italic" lengthAdjust="spacing" textLength="38" x="1266" y="1180.4629">«API»</text><text fill="#000000" font-family="sans-serif" font-size="14" lengthAdjust="spacing" textLength="84" x="1243" y="1198.0723">ElCamelloAPI</text><rect fill="#E2E2F0" height="31.6094" rx="2.5" ry="2.5" style="stroke:#181818;stroke-width:0.5;" width="103" x="1404.5" y="71.3516"/><text fill="#000000" font-family="sans-serif" font-size="14" lengthAdjust="spacing" textLength="89" x="1411.5" y="92.8848">GestionToken</text><rect fill="#E2E2F0" height="31.6094" rx="2.5" ry="2.5" style="stroke:#181818;stroke-width:0.5;" width="103" x="1404.5" y="1158.9297"/><text fill="#000000" font-family="sans-serif" font-size="14" lengthAdjust="spacing" textLength="89" x="1411.5" y="1180.4629">GestionToken</text><rect fill="#E2E2F0" height="49.2188" rx="2.5" ry="2.5" style="stroke:#181818;stroke-width:0.5;" width="120" x="1517.5" y="53.7422"/><text fill="#000000" font-family="sans-serif" font-size="14" font-style="italic" lengthAdjust="spacing" textLength="89" x="1533" y="75.2754">«Component»</text><text fill="#000000" font-family="sans-serif" font-size="14" lengthAdjust="spacing" textLength="106" x="1524.5" y="92.8848">GestionServicios</text><rect fill="#E2E2F0" height="49.2188" rx="2.5" ry="2.5" style="stroke:#181818;stroke-width:0.5;" width="120" x="1517.5" y="1158.9297"/><text fill="#000000" font-family="sans-serif" font-size="14" font-style="italic" lengthAdjust="spacing" textLength="89" x="1533" y="1180.4629">«Component»</text><text fill="#000000" font-family="sans-serif" font-size="14" lengthAdjust="spacing" textLength="106" x="1524.5" y="1198.0723">GestionServicios</text><rect fill="#E2E2F0" height="49.2188" rx="2.5" ry="2.5" style="stroke:#181818;stroke-width:0.5;" width="147" x="1663" y="53.7422"/><text fill="#000000" font-family="sans-serif" font-size="14" font-style="italic" lengthAdjust="spacing" textLength="46" x="1713.5" y="75.2754">«DAO»</text><text fill="#000000" font-family="sans-serif" font-size="14" lengthAdjust="spacing" textLength="133" x="1670" y="92.8848">SolicitudServicioDAO</text><rect fill="#E2E2F0" height="49.2188" rx="2.5" ry="2.5" style="stroke:#181818;stroke-width:0.5;" width="147" x="1663" y="1158.9297"/><text fill="#000000" font-family="sans-serif" font-size="14" font-style="italic" lengthAdjust="spacing" textLength="46" x="1713.5" y="1180.4629">«DAO»</text><text fill="#000000" font-family="sans-serif" font-size="14" lengthAdjust="spacing" textLength="133" x="1670" y="1198.0723">SolicitudServicioDAO</text><text fill="#000000" font-family="sans-serif" font-size="14" lengthAdjust="spacing" textLength="81" x="1834" y="100.8848">elCamelloDB</text><path d="M1859.5,50.3516 C1859.5,40.3516 1877.5,40.3516 1877.5,40.3516 C1877.5,40.3516 1895.5,40.3516 1895.5,50.3516 L1895.5,76.3516 C1895.5,86.3516 1877.5,86.3516 1877.5,86.3516 C1877.5,86.3516 1859.5,86.3516 1859.5,76.3516 L1859.5,50.3516 " fill="#E2E2F0" style="stroke:#181818;stroke-width:1.5;"/><path d="M1859.5,50.3516 C1859.5,60.3516 1877.5,60.3516 1877.5,60.3516 C1877.5,60.3516 1895.5,60.3516 1895.5,50.3516 " fill="none" style="stroke:#181818;stroke-width:1.5;"/><text fill="#000000" font-family="sans-serif" font-size="14" lengthAdjust="spacing" textLength="81" x="1834" y="1173.4629">elCamelloDB</text><path d="M1859.5,1186.5391 C1859.5,1176.5391 1877.5,1176.5391 1877.5,1176.5391 C1877.5,1176.5391 1895.5,1176.5391 1895.5,1186.5391 L1895.5,1212.5391 C1895.5,1222.5391 1877.5,1222.5391 1877.5,1222.5391 C1877.5,1222.5391 1859.5,1222.5391 1859.5,1212.5391 L1859.5,1186.5391 " fill="#E2E2F0" style="stroke:#181818;stroke-width:1.5;"/><path d="M1859.5,1186.5391 C1859.5,1196.5391 1877.5,1196.5391 1877.5,1196.5391 C1877.5,1196.5391 1895.5,1196.5391 1895.5,1186.5391 " fill="none" style="stroke:#181818;stroke-width:1.5;"/><rect fill="#FFFFFF" height="1014.6172" style="stroke:#181818;stroke-width:1.0;" width="10" x="200" y="136.3125"/><rect fill="#FFFFFF" height="105.0547" style="stroke:#181818;stroke-width:1.0;" width="10" x="373" y="166.6641"/><rect fill="#FFFFFF" height="66.7031" style="stroke:#181818;stroke-width:1.0;" width="10" x="378" y="205.0156"/><rect fill="#FFFFFF" height="811.5078" style="stroke:#181818;stroke-width:1.0;" width="10" x="373" y="339.4219"/><rect fill="#FFFFFF" height="717.8047" style="stroke:#181818;stroke-width:1.0;" width="10" x="378" y="377.7734"/><rect fill="#FFFFFF" height="477.2344" style="stroke:#181818;stroke-width:1.0;" width="10" x="1280" y="673.6953"/><rect fill="#FFFFFF" height="326.125" style="stroke:#181818;stroke-width:1.0;" width="10" x="1285" y="808.8047"/><rect fill="#FFFFFF" height="461.2344" style="stroke:#181818;stroke-width:1.0;" width="10" x="1451" y="673.6953"/><rect fill="#FFFFFF" height="60.7031" style="stroke:#181818;stroke-width:1.0;" width="10" x="1731.5" y="888.2109"/><rect fill="#FFFFFF" height="30.3516" style="stroke:#181818;stroke-width:1.0;" width="10" x="1872.5" y="918.5625"/><line style="stroke:#181818;stroke-width:1.0;" x1="198" x2="188" y1="136.3125" y2="132.3125"/><line style="stroke:#181818;stroke-width:1.0;" x1="198" x2="188" y1="136.3125" y2="140.3125"/><line style="stroke:#181818;stroke-width:1.0;" x1="53" x2="199" y1="136.3125" y2="136.3125"/><text fill="#000000" font-family="sans-serif" font-size="13" lengthAdjust="spacing" textLength="114" x="60" y="131.4561">seleccionarsolicitud</text><line style="stroke:#181818;stroke-width:1.0;" x1="371" x2="361" y1="166.6641" y2="162.6641"/><line style="stroke:#181818;stroke-width:1.0;" x1="371" x2="361" y1="166.6641" y2="170.6641"/><line style="stroke:#181818;stroke-width:1.0;" x1="210" x2="372" y1="166.6641" y2="166.6641"/><text fill="#000000" font-family="sans-serif" font-size="13" lengthAdjust="spacing" textLength="143" x="217" y="161.8076">CargarDetallesSolicitud()</text><line style="stroke:#181818;stroke-width:1.0;" x1="383" x2="430" y1="192.0156" y2="192.0156"/><line style="stroke:#181818;stroke-width:1.0;" x1="430" x2="430" y1="192.0156" y2="205.0156"/><line style="stroke:#181818;stroke-width:1.0;" x1="389" x2="430" y1="205.0156" y2="205.0156"/><line style="stroke:#181818;stroke-width:1.0;" x1="389" x2="399" y1="205.0156" y2="201.0156"/><line style="stroke:#181818;stroke-width:1.0;" x1="389" x2="399" y1="205.0156" y2="209.0156"/><text fill="#000000" font-family="sans-serif" font-size="13" lengthAdjust="spacing" textLength="180" x="395" y="187.1592">MostrarSolicitudSeleccionada()</text><path d="M10,225.0156 L71,225.0156 L71,233.3672 L61,243.3672 L10,243.3672 L10,225.0156 " fill="#EEEEEE" style="stroke:#000000;stroke-width:1.5;"/><rect fill="none" height="917.9141" style="stroke:#000000;stroke-width:1.5;" width="1931" x="10" y="225.0156"/><text fill="#000000" font-family="sans-serif" font-size="13" font-weight="bold" lengthAdjust="spacing" textLength="16" x="25" y="239.5107">alt</text><text fill="#000000" font-family="sans-serif" font-size="11" font-weight="bold" lengthAdjust="spacing" textLength="134" x="86" y="238.4346">[estatus == "Pendiente"]</text><line style="stroke:#181818;stroke-width:1.0;" x1="388" x2="430" y1="270.7188" y2="270.7188"/><line style="stroke:#181818;stroke-width:1.0;" x1="430" x2="430" y1="270.7188" y2="283.7188"/><line style="stroke:#181818;stroke-width:1.0;" x1="383" x2="430" y1="283.7188" y2="283.7188"/><line style="stroke:#181818;stroke-width:1.0;" x1="383" x2="393" y1="283.7188" y2="279.7188"/><line style="stroke:#181818;stroke-width:1.0;" x1="383" x2="393" y1="283.7188" y2="287.7188"/><text fill="#000000" font-family="sans-serif" font-size="13" lengthAdjust="spacing" textLength="103" x="395" y="265.8623">HabilitarBotones()</text><polygon fill="#181818" points="188,305.0703,198,309.0703,188,313.0703,192,309.0703" style="stroke:#181818;stroke-width:1.0;"/><line style="stroke:#181818;stroke-width:1.0;" x1="53" x2="194" y1="309.0703" y2="309.0703"/><text fill="#000000" font-family="sans-serif" font-size="13" lengthAdjust="spacing" textLength="123" x="60" y="304.2139">clicAcpetarSolicitud()</text><polygon fill="#181818" points="361,335.4219,371,339.4219,361,343.4219,365,339.4219" style="stroke:#181818;stroke-width:1.0;"/><line style="stroke:#181818;stroke-width:1.0;" x1="210" x2="367" y1="339.4219" y2="339.4219"/><text fill="#000000" font-family="sans-serif" font-size="13" lengthAdjust="spacing" textLength="107" x="217" y="334.5654">btnAceptar_Click()</text><line style="stroke:#181818;stroke-width:1.0;" x1="383" x2="430" y1="364.7734" y2="364.7734"/><line style="stroke:#181818;stroke-width:1.0;" x1="430" x2="430" y1="364.7734" y2="377.7734"/><line style="stroke:#181818;stroke-width:1.0;" x1="389" x2="430" y1="377.7734" y2="377.7734"/><line style="stroke:#181818;stroke-width:1.0;" x1="389" x2="399" y1="377.7734" y2="373.7734"/><line style="stroke:#181818;stroke-width:1.0;" x1="389" x2="399" y1="377.7734" y2="381.7734"/><text fill="#000000" font-family="sans-serif" font-size="13" lengthAdjust="spacing" textLength="103" x="395" y="359.917">AceptarSolicitud()</text><polygon fill="#181818" points="769,458.1797,779,462.1797,769,466.1797,773,462.1797" style="stroke:#181818;stroke-width:1.0;"/><line style="stroke:#181818;stroke-width:1.0;" x1="388" x2="775" y1="462.1797" y2="462.1797"/><text fill="#000000" font-family="sans-serif" font-size="13" lengthAdjust="spacing" textLength="133" x="395" y="408.2686">PatchAceptarSolicitud(</text><text fill="#000000" font-family="sans-serif" font-size="13" lengthAdjust="spacing" textLength="87" x="395" y="424.6201">idAspirante:int,</text><text fill="#000000" font-family="sans-serif" font-size="13" lengthAdjust="spacing" textLength="131" x="395" y="440.9717">idSolicitudServicio: int,</text><text fill="#000000" font-family="sans-serif" font-size="13" lengthAdjust="spacing" textLength="72" x="395" y="457.3232">token:string)</text><path d="M786,475.1797 L786,583.1797 L940,583.1797 L940,485.1797 L930,475.1797 L786,475.1797 " fill="#FEFFDD" style="stroke:#181818;stroke-width:0.5;"/><path d="M930,475.1797 L930,485.1797 L940,485.1797 L930,475.1797 " fill="#FEFFDD" style="stroke:#181818;stroke-width:0.5;"/><text fill="#000000" font-family="sans-serif" font-size="13" font-weight="bold" lengthAdjust="spacing" textLength="45" x="792" y="493.6748">header</text><text fill="#000000" font-family="sans-serif" font-size="13" lengthAdjust="spacing" textLength="133" x="792" y="510.0264">x-accces-token : string</text><text fill="#000000" font-family="sans-serif" font-size="13" lengthAdjust="spacing" textLength="4" x="792" y="526.3779"> </text><text fill="#000000" font-family="sans-serif" font-size="13" font-weight="bold" lengthAdjust="spacing" textLength="47" x="792" y="542.7295">params</text><text fill="#000000" font-family="sans-serif" font-size="13" lengthAdjust="spacing" textLength="87" x="792" y="559.0811">idAspirante: int</text><text fill="#000000" font-family="sans-serif" font-size="13" lengthAdjust="spacing" textLength="82" x="792" y="575.4326">idSolicitud: int</text><polygon fill="#181818" points="1273,606.6406,1283,610.6406,1273,614.6406,1277,610.6406" style="stroke:#181818;stroke-width:1.0;"/><line style="stroke:#181818;stroke-width:1.0;" x1="781" x2="1279" y1="610.6406" y2="610.6406"/><text fill="#000000" font-family="sans-serif" font-size="13" font-weight="bold" lengthAdjust="spacing" textLength="44" x="788" y="605.7842">PATCH</text><text fill="#000000" font-family="sans-serif" font-size="13" lengthAdjust="spacing" textLength="432" x="836" y="605.7842">/v1/perfilAspirantes/:idAspirante/solicitudesServicios/:idSolicitud/rechazada</text><polygon fill="#181818" points="1439,669.6953,1449,673.6953,1439,677.6953,1443,673.6953" style="stroke:#181818;stroke-width:1.0;"/><line style="stroke:#181818;stroke-width:1.0;" x1="1290" x2="1445" y1="673.6953" y2="673.6953"/><text fill="#000000" font-family="sans-serif" font-size="13" lengthAdjust="spacing" textLength="147" x="1297" y="636.1357">ValidarTokenTipoUsuario(</text><text fill="#000000" font-family="sans-serif" font-size="13" lengthAdjust="spacing" textLength="76" x="1297" y="652.4873">token: string,</text><text fill="#000000" font-family="sans-serif" font-size="13" lengthAdjust="spacing" textLength="69" x="1297" y="668.8389">"Aspirante")</text><line style="stroke:#181818;stroke-width:1.0;" x1="1290" x2="1300" y1="704.0469" y2="700.0469"/><line style="stroke:#181818;stroke-width:1.0;" x1="1290" x2="1300" y1="704.0469" y2="708.0469"/><line style="stroke:#181818;stroke-width:1.0;stroke-dasharray:2.0,2.0;" x1="1290" x2="1450" y1="704.0469" y2="704.0469"/><text fill="#000000" font-family="sans-serif" font-size="13" lengthAdjust="spacing" textLength="91" x="1307" y="699.1904">validacionToken</text><path d="M690,719.0469 L751,719.0469 L751,727.3984 L741,737.3984 L690,737.3984 L690,719.0469 " fill="#EEEEEE" style="stroke:#000000;stroke-width:1.5;"/><rect fill="none" height="268.2188" style="stroke:#000000;stroke-width:1.5;" width="1241" x="690" y="719.0469"/><text fill="#000000" font-family="sans-serif" font-size="13" font-weight="bold" lengthAdjust="spacing" textLength="16" x="705" y="733.542">alt</text><text fill="#000000" font-family="sans-serif" font-size="11" font-weight="bold" lengthAdjust="spacing" textLength="452" x="766" y="732.4658">[validacionToken.statusCode == 200  &amp;&amp; validacionToken.tokenData['estatus'] == 1]</text><line style="stroke:#181818;stroke-width:1.0;" x1="1575.5" x2="1565.5" y1="808.8047" y2="804.8047"/><line style="stroke:#181818;stroke-width:1.0;" x1="1575.5" x2="1565.5" y1="808.8047" y2="812.8047"/><line style="stroke:#181818;stroke-width:1.0;" x1="1295" x2="1576.5" y1="808.8047" y2="808.8047"/><text fill="#000000" font-family="sans-serif" font-size="13" lengthAdjust="spacing" textLength="149" x="1302" y="754.8936">rechazarSolicitudServicio(</text><text fill="#000000" font-family="sans-serif" font-size="13" lengthAdjust="spacing" textLength="87" x="1302" y="771.2451">idAspirante:int,</text><text fill="#000000" font-family="sans-serif" font-size="13" lengthAdjust="spacing" textLength="127" x="1302" y="787.5967">idSolicitudServicio:int,</text><text fill="#000000" font-family="sans-serif" font-size="13" lengthAdjust="spacing" textLength="139" x="1302" y="803.9482">callback: function) : void</text><line style="stroke:#181818;stroke-width:1.0;" x1="1729.5" x2="1719.5" y1="888.2109" y2="884.2109"/><line style="stroke:#181818;stroke-width:1.0;" x1="1729.5" x2="1719.5" y1="888.2109" y2="892.2109"/><line style="stroke:#181818;stroke-width:1.0;" x1="1577.5" x2="1730.5" y1="888.2109" y2="888.2109"/><text fill="#000000" font-family="sans-serif" font-size="13" lengthAdjust="spacing" textLength="104" x="1584.5" y="834.2998">rechazarSolicitud(</text><text fill="#000000" font-family="sans-serif" font-size="13" lengthAdjust="spacing" textLength="87" x="1584.5" y="850.6514">idAspirante:int,</text><text fill="#000000" font-family="sans-serif" font-size="13" lengthAdjust="spacing" textLength="127" x="1584.5" y="867.0029">idSolicitudServicio:int,</text><text fill="#000000" font-family="sans-serif" font-size="13" lengthAdjust="spacing" textLength="135" x="1584.5" y="883.3545">callback:function) : void</text><polygon fill="#181818" points="1860.5,914.5625,1870.5,918.5625,1860.5,922.5625,1864.5,918.5625" style="stroke:#181818;stroke-width:1.0;"/><line style="stroke:#181818;stroke-width:1.0;" x1="1741.5" x2="1866.5" y1="918.5625" y2="918.5625"/><text fill="#000000" font-family="sans-serif" font-size="13" lengthAdjust="spacing" textLength="112" x="1748.5" y="913.7061">Actualizar Solicitud</text><line style="stroke:#181818;stroke-width:1.0;" x1="1295" x2="1305" y1="948.9141" y2="944.9141"/><line style="stroke:#181818;stroke-width:1.0;" x1="1295" x2="1305" y1="948.9141" y2="952.9141"/><line style="stroke:#181818;stroke-width:1.0;" x1="1295" x2="1735.5" y1="948.9141" y2="948.9141"/><text fill="#000000" font-family="sans-serif" font-size="13" lengthAdjust="spacing" textLength="296" x="1312" y="944.0576">callback(200, mensajes.solicitudServicioRechzada)</text><line style="stroke:#181818;stroke-width:1.0;" x1="781" x2="791" y1="979.2656" y2="975.2656"/><line style="stroke:#181818;stroke-width:1.0;" x1="781" x2="791" y1="979.2656" y2="983.2656"/><line style="stroke:#181818;stroke-width:1.0;stroke-dasharray:2.0,2.0;" x1="781" x2="1284" y1="979.2656" y2="979.2656"/><text fill="#000000" font-family="sans-serif" font-size="13" lengthAdjust="spacing" textLength="53" x="798" y="974.4092">response</text><line style="stroke:#181818;stroke-width:1.0;" x1="388" x2="398" y1="1016.6172" y2="1012.6172"/><line style="stroke:#181818;stroke-width:1.0;" x1="388" x2="398" y1="1016.6172" y2="1020.6172"/><line style="stroke:#181818;stroke-width:1.0;stroke-dasharray:2.0,2.0;" x1="388" x2="780" y1="1016.6172" y2="1016.6172"/><text fill="#000000" font-family="sans-serif" font-size="13" lengthAdjust="spacing" textLength="85" x="405" y="1011.7607">mensaje:string</text><polygon fill="#181818" points="576,1042.9688,586,1046.9688,576,1050.9688,580,1046.9688" style="stroke:#181818;stroke-width:1.0;"/><line style="stroke:#181818;stroke-width:1.0;stroke-dasharray:2.0,2.0;" x1="388" x2="582" y1="1046.9688" y2="1046.9688"/><text fill="#000000" font-family="sans-serif" font-size="13" lengthAdjust="spacing" textLength="176" x="395" y="1042.1123">MessaggeBox.Show(mensaje)</text><rect fill="#E2E2F0" height="31.6094" rx="2.5" ry="2.5" style="stroke:#181818;stroke-width:0.5;" width="102" x="588" y="1024.6172"/><text fill="#000000" font-family="sans-serif" font-size="14" lengthAdjust="spacing" textLength="88" x="595" y="1046.1504">MessaggeBox</text><line style="stroke:#181818;stroke-width:1.0;stroke-dasharray:2.0,2.0;" x1="388" x2="430" y1="1094.5781" y2="1094.5781"/><line style="stroke:#181818;stroke-width:1.0;stroke-dasharray:2.0,2.0;" x1="430" x2="430" y1="1094.5781" y2="1107.5781"/><line style="stroke:#181818;stroke-width:1.0;stroke-dasharray:2.0,2.0;" x1="383" x2="430" y1="1107.5781" y2="1107.5781"/><polygon fill="#181818" points="393,1103.5781,383,1107.5781,393,1111.5781,389,1107.5781" style="stroke:#181818;stroke-width:1.0;"/><text fill="#000000" font-family="sans-serif" font-size="13" lengthAdjust="spacing" textLength="113" x="395" y="1089.7217">ActualizarPantalla()</text><line style="stroke:#000000;stroke-width:1.0;stroke-dasharray:2.0,2.0;" x1="10" x2="1941" y1="1111.5781" y2="1111.5781"/><line style="stroke:#181818;stroke-width:1.0;" x1="781" x2="791" y1="1134.9297" y2="1130.9297"/><line style="stroke:#181818;stroke-width:1.0;" x1="781" x2="791" y1="1134.9297" y2="1138.9297"/><line style="stroke:#181818;stroke-width:1.0;stroke-dasharray:2.0,2.0;" x1="781" x2="1279" y1="1134.9297" y2="1134.9297"/><text fill="#000000" font-family="sans-serif" font-size="13" lengthAdjust="spacing" textLength="53" x="798" y="1130.0732">response</text><!--MD5=[26567e06b1d430416b6b501c0301d6ce]
@startuml Rechazaar solicitud de servicio

box Cliente
    actor Aspirante as a
    participant SolicitudesServicio as b <<GUI>> 
    participant SolicitudesServicioController as c <<Controller>>
    participant MessaggeBox as mb
    participant SolicitudesServicioDAO as d <<DAO>>
    participant RespuestasAPI as ra <<GUI>>
end box

box Servidor
    participant ElCamelloAPI as e <<API>>
    participant GestionToken as f
    participant GestionServicios as g <<Component>>
    participant SolicitudServicioDAO as h <<DAO>>
    database elCamelloDB as db
end box

a ->> b : seleccionarsolicitud
activate b

b ->> c : CargarDetallesSolicitud()
activate c

c ->> c : MostrarSolicitudSeleccionada()
activate c

alt estatus == "Pendiente"
    c ->> c : HabilitarBotones()
    deactivate c
    deactivate c

    a -> b : clicAcpetarSolicitud()
    b -> c : btnAceptar_Click()
    activate c

    c ->> c : AceptarSolicitud()
    activate c

    c -> d : PatchAceptarSolicitud(\nidAspirante:int,\nidSolicitudServicio: int,\ntoken:string)

    note right of d 
        **header**
        x-accces-token : string

        **params**
        idAspirante: int
        idSolicitud: int
    end note
    d -> e : **PATCH** /v1/perfilAspirantes/:idAspirante/solicitudesServicios/:idSolicitud/rechazada


    e -> f : ValidarTokenTipoUsuario(\ntoken: string, \n"Aspirante")
    activate e
    activate f
    f - ->> e: validacionToken

    alt validacionToken.statusCode == 200  && validacionToken.tokenData['estatus'] == 1
        e ->> g : rechazarSolicitudServicio(\nidAspirante:int, \nidSolicitudServicio:int,\ncallback: function) : void
        activate e

        g ->> h : rechazarSolicitud(\nidAspirante:int, \nidSolicitudServicio:int,\ncallback:function) : void
        activate h

        h -> db : Actualizar Solicitud
        activate db
        
        
        h ->> e : callback(200, mensajes.solicitudServicioRechzada)
        deactivate db
        deactivate h
        e - ->> d: response
    end

    d - ->> c : mensaje:string

    create mb
    c - -> mb : MessaggeBox.Show(mensaje)
    c - -> c : ActualizarPantalla()
    deactivate c
else
    e - ->> d: response
    deactivate f
    deactivate e
end

@enduml

PlantUML version 1.2022.5(Sat Apr 30 05:55:52 CDT 2022)
(GPL source distribution)
Java Runtime: Java(TM) SE Runtime Environment
JVM: Java HotSpot(TM) 64-Bit Server VM
Default Encoding: Cp1252
Language: es
Country: MX
--></g></svg>