<?xml version="1.0" encoding="UTF-8" standalone="no"?><svg xmlns="http://www.w3.org/2000/svg" xmlns:xlink="http://www.w3.org/1999/xlink" contentStyleType="text/css" height="1088px" preserveAspectRatio="none" style="width:1506px;height:1088px;background:#FFFFFF;" version="1.1" viewBox="0 0 1506 1088" width="1506px" zoomAndPan="magnify"><defs/><g><rect fill="#DDDDDD" height="1076.3047" style="stroke:#181818;stroke-width:0.5;" width="584.5" x="1" y="6"/><text fill="#000000" font-family="sans-serif" font-size="13" font-weight="bold" lengthAdjust="spacing" textLength="45" x="270.75" y="19.4951">Cliente</text><rect fill="#DDDDDD" height="1076.3047" style="stroke:#181818;stroke-width:0.5;" width="665.5" x="703.5" y="6"/><text fill="#000000" font-family="sans-serif" font-size="13" font-weight="bold" lengthAdjust="spacing" textLength="54" x="1009.25" y="19.4951">Servidor</text><rect fill="#FFFFFF" height="856.3828" style="stroke:#181818;stroke-width:1.0;" width="10" x="46.5" y="136.3125"/><rect fill="#FFFFFF" height="856.3828" style="stroke:#181818;stroke-width:1.0;" width="10" x="233.5" y="136.3125"/><rect fill="#FFFFFF" height="826.0313" style="stroke:#181818;stroke-width:1.0;" width="10" x="370.5" y="166.6641"/><rect fill="#FFFFFF" height="795.6797" style="stroke:#181818;stroke-width:1.0;" width="10" x="523.5" y="197.0156"/><rect fill="#FFFFFF" height="765.3281" style="stroke:#181818;stroke-width:1.0;" width="10" x="751.5" y="227.3672"/><rect fill="#FFFFFF" height="718.625" style="stroke:#181818;stroke-width:1.0;" width="10" x="904.5" y="274.0703"/><rect fill="#FFFFFF" height="671.9219" style="stroke:#181818;stroke-width:1.0;" width="10" x="1080.5" y="320.7734"/><rect fill="#FFFFFF" height="132.1094" style="stroke:#181818;stroke-width:1.0;" width="10" x="1316.5" y="351.125"/><rect height="335.7031" style="stroke:#000000;stroke-width:1.5;fill:none;" width="870" x="302" y="648.9922"/><line style="stroke:#181818;stroke-width:0.5;fill:none;stroke-dasharray:5.0,5.0;" x1="51" x2="51" y1="103.9609" y2="1001.6953"/><line style="stroke:#181818;stroke-width:0.5;fill:none;stroke-dasharray:5.0,5.0;" x1="238" x2="238" y1="103.9609" y2="1001.6953"/><line style="stroke:#181818;stroke-width:0.5;fill:none;stroke-dasharray:5.0,5.0;" x1="375" x2="375" y1="103.9609" y2="1001.6953"/><line style="stroke:#181818;stroke-width:0.5;fill:none;stroke-dasharray:5.0,5.0;" x1="528.5" x2="528.5" y1="103.9609" y2="1001.6953"/><line style="stroke:#181818;stroke-width:0.5;fill:none;stroke-dasharray:5.0,5.0;" x1="756.5" x2="756.5" y1="103.9609" y2="1001.6953"/><line style="stroke:#181818;stroke-width:0.5;fill:none;stroke-dasharray:5.0,5.0;" x1="909" x2="909" y1="103.9609" y2="1001.6953"/><line style="stroke:#181818;stroke-width:0.5;fill:none;stroke-dasharray:5.0,5.0;" x1="1085" x2="1085" y1="103.9609" y2="1001.6953"/><line style="stroke:#181818;stroke-width:0.5;fill:none;stroke-dasharray:5.0,5.0;" x1="1321" x2="1321" y1="103.9609" y2="1001.6953"/><text fill="#000000" font-family="sans-serif" font-size="14" lengthAdjust="spacing" textLength="87" x="5" y="100.8848">Administrador</text><ellipse cx="51.5" cy="34.8516" fill="#E2E2F0" rx="8" ry="8" style="stroke:#181818;stroke-width:0.5;"/><path d="M51.5,42.8516 L51.5,69.8516 M38.5,50.8516 L64.5,50.8516 M51.5,69.8516 L38.5,84.8516 M51.5,69.8516 L64.5,84.8516 " fill="none" style="stroke:#181818;stroke-width:0.5;"/><text fill="#000000" font-family="sans-serif" font-size="14" lengthAdjust="spacing" textLength="87" x="5" y="1015.2285">Administrador</text><ellipse cx="51.5" cy="1026.8047" fill="#E2E2F0" rx="8" ry="8" style="stroke:#181818;stroke-width:0.5;"/><path d="M51.5,1034.8047 L51.5,1061.8047 M38.5,1042.8047 L64.5,1042.8047 M51.5,1061.8047 L38.5,1076.8047 M51.5,1061.8047 L64.5,1076.8047 " fill="none" style="stroke:#181818;stroke-width:0.5;"/><rect fill="#E2E2F0" height="49.2188" rx="2.5" ry="2.5" style="stroke:#181818;stroke-width:0.5;" width="127" x="175" y="53.7422"/><text fill="#000000" font-family="sans-serif" font-size="14" font-style="italic" lengthAdjust="spacing" textLength="41" x="218" y="75.2754">«GUI»</text><text fill="#000000" font-family="sans-serif" font-size="14" lengthAdjust="spacing" textLength="113" x="182" y="92.8848">categoriasEmpleo</text><rect fill="#E2E2F0" height="49.2188" rx="2.5" ry="2.5" style="stroke:#181818;stroke-width:0.5;" width="127" x="175" y="1000.6953"/><text fill="#000000" font-family="sans-serif" font-size="14" font-style="italic" lengthAdjust="spacing" textLength="41" x="218" y="1022.2285">«GUI»</text><text fill="#000000" font-family="sans-serif" font-size="14" lengthAdjust="spacing" textLength="113" x="182" y="1039.8379">categoriasEmpleo</text><rect fill="#E2E2F0" height="49.2188" rx="2.5" ry="2.5" style="stroke:#181818;stroke-width:0.5;" width="127" x="312" y="53.7422"/><text fill="#000000" font-family="sans-serif" font-size="14" font-style="italic" lengthAdjust="spacing" textLength="78" x="336.5" y="75.2754">«Controller»</text><text fill="#000000" font-family="sans-serif" font-size="14" lengthAdjust="spacing" textLength="113" x="319" y="92.8848">categoriasEmpleo</text><rect fill="#E2E2F0" height="49.2188" rx="2.5" ry="2.5" style="stroke:#181818;stroke-width:0.5;" width="127" x="312" y="1000.6953"/><text fill="#000000" font-family="sans-serif" font-size="14" font-style="italic" lengthAdjust="spacing" textLength="78" x="336.5" y="1022.2285">«Controller»</text><text fill="#000000" font-family="sans-serif" font-size="14" lengthAdjust="spacing" textLength="113" x="319" y="1039.8379">categoriasEmpleo</text><rect fill="#E2E2F0" height="49.2188" rx="2.5" ry="2.5" style="stroke:#181818;stroke-width:0.5;" width="106" x="475.5" y="53.7422"/><text fill="#000000" font-family="sans-serif" font-size="14" font-style="italic" lengthAdjust="spacing" textLength="46" x="505.5" y="75.2754">«DAO»</text><text fill="#000000" font-family="sans-serif" font-size="14" lengthAdjust="spacing" textLength="92" x="482.5" y="92.8848">CategoriaDAO</text><rect fill="#E2E2F0" height="49.2188" rx="2.5" ry="2.5" style="stroke:#181818;stroke-width:0.5;" width="106" x="475.5" y="1000.6953"/><text fill="#000000" font-family="sans-serif" font-size="14" font-style="italic" lengthAdjust="spacing" textLength="46" x="505.5" y="1022.2285">«DAO»</text><text fill="#000000" font-family="sans-serif" font-size="14" lengthAdjust="spacing" textLength="92" x="482.5" y="1039.8379">CategoriaDAO</text><rect fill="#E2E2F0" height="49.2188" rx="2.5" ry="2.5" style="stroke:#181818;stroke-width:0.5;" width="98" x="707.5" y="53.7422"/><text fill="#000000" font-family="sans-serif" font-size="14" font-style="italic" lengthAdjust="spacing" textLength="38" x="737.5" y="75.2754">«API»</text><text fill="#000000" font-family="sans-serif" font-size="14" lengthAdjust="spacing" textLength="84" x="714.5" y="92.8848">ElCamelloAPI</text><rect fill="#E2E2F0" height="49.2188" rx="2.5" ry="2.5" style="stroke:#181818;stroke-width:0.5;" width="98" x="707.5" y="1000.6953"/><text fill="#000000" font-family="sans-serif" font-size="14" font-style="italic" lengthAdjust="spacing" textLength="38" x="737.5" y="1022.2285">«API»</text><text fill="#000000" font-family="sans-serif" font-size="14" lengthAdjust="spacing" textLength="84" x="714.5" y="1039.8379">ElCamelloAPI</text><rect fill="#E2E2F0" height="49.2188" rx="2.5" ry="2.5" style="stroke:#181818;stroke-width:0.5;" width="179" x="820" y="53.7422"/><text fill="#000000" font-family="sans-serif" font-size="14" font-style="italic" lengthAdjust="spacing" textLength="97" x="861" y="75.2754">«Componente»</text><text fill="#000000" font-family="sans-serif" font-size="14" lengthAdjust="spacing" textLength="165" x="827" y="92.8848">GestionCategoriasEmpleo</text><rect fill="#E2E2F0" height="49.2188" rx="2.5" ry="2.5" style="stroke:#181818;stroke-width:0.5;" width="179" x="820" y="1000.6953"/><text fill="#000000" font-family="sans-serif" font-size="14" font-style="italic" lengthAdjust="spacing" textLength="97" x="861" y="1022.2285">«Componente»</text><text fill="#000000" font-family="sans-serif" font-size="14" lengthAdjust="spacing" textLength="165" x="827" y="1039.8379">GestionCategoriasEmpleo</text><rect fill="#E2E2F0" height="49.2188" rx="2.5" ry="2.5" style="stroke:#181818;stroke-width:0.5;" width="153" x="1009" y="53.7422"/><text fill="#000000" font-family="sans-serif" font-size="14" font-style="italic" lengthAdjust="spacing" textLength="46" x="1062.5" y="75.2754">«DAO»</text><text fill="#000000" font-family="sans-serif" font-size="14" lengthAdjust="spacing" textLength="139" x="1016" y="92.8848">CategoriaEmpleoDAO</text><rect fill="#E2E2F0" height="49.2188" rx="2.5" ry="2.5" style="stroke:#181818;stroke-width:0.5;" width="153" x="1009" y="1000.6953"/><text fill="#000000" font-family="sans-serif" font-size="14" font-style="italic" lengthAdjust="spacing" textLength="46" x="1062.5" y="1022.2285">«DAO»</text><text fill="#000000" font-family="sans-serif" font-size="14" lengthAdjust="spacing" textLength="139" x="1016" y="1039.8379">CategoriaEmpleoDAO</text><text fill="#000000" font-family="sans-serif" font-size="14" lengthAdjust="spacing" textLength="81" x="1278" y="100.8848">elCamelloDB</text><path d="M1303.5,50.3516 C1303.5,40.3516 1321.5,40.3516 1321.5,40.3516 C1321.5,40.3516 1339.5,40.3516 1339.5,50.3516 L1339.5,76.3516 C1339.5,86.3516 1321.5,86.3516 1321.5,86.3516 C1321.5,86.3516 1303.5,86.3516 1303.5,76.3516 L1303.5,50.3516 " fill="#E2E2F0" style="stroke:#181818;stroke-width:1.5;"/><path d="M1303.5,50.3516 C1303.5,60.3516 1321.5,60.3516 1321.5,60.3516 C1321.5,60.3516 1339.5,60.3516 1339.5,50.3516 " fill="none" style="stroke:#181818;stroke-width:1.5;"/><text fill="#000000" font-family="sans-serif" font-size="14" lengthAdjust="spacing" textLength="81" x="1278" y="1015.2285">elCamelloDB</text><path d="M1303.5,1028.3047 C1303.5,1018.3047 1321.5,1018.3047 1321.5,1018.3047 C1321.5,1018.3047 1339.5,1018.3047 1339.5,1028.3047 L1339.5,1054.3047 C1339.5,1064.3047 1321.5,1064.3047 1321.5,1064.3047 C1321.5,1064.3047 1303.5,1064.3047 1303.5,1054.3047 L1303.5,1028.3047 " fill="#E2E2F0" style="stroke:#181818;stroke-width:1.5;"/><path d="M1303.5,1028.3047 C1303.5,1038.3047 1321.5,1038.3047 1321.5,1038.3047 C1321.5,1038.3047 1339.5,1038.3047 1339.5,1028.3047 " fill="none" style="stroke:#181818;stroke-width:1.5;"/><rect fill="#FFFFFF" height="856.3828" style="stroke:#181818;stroke-width:1.0;" width="10" x="46.5" y="136.3125"/><rect fill="#FFFFFF" height="856.3828" style="stroke:#181818;stroke-width:1.0;" width="10" x="233.5" y="136.3125"/><rect fill="#FFFFFF" height="826.0313" style="stroke:#181818;stroke-width:1.0;" width="10" x="370.5" y="166.6641"/><rect fill="#FFFFFF" height="795.6797" style="stroke:#181818;stroke-width:1.0;" width="10" x="523.5" y="197.0156"/><rect fill="#FFFFFF" height="765.3281" style="stroke:#181818;stroke-width:1.0;" width="10" x="751.5" y="227.3672"/><rect fill="#FFFFFF" height="718.625" style="stroke:#181818;stroke-width:1.0;" width="10" x="904.5" y="274.0703"/><rect fill="#FFFFFF" height="671.9219" style="stroke:#181818;stroke-width:1.0;" width="10" x="1080.5" y="320.7734"/><rect fill="#FFFFFF" height="132.1094" style="stroke:#181818;stroke-width:1.0;" width="10" x="1316.5" y="351.125"/><polygon fill="#181818" points="221.5,132.3125,231.5,136.3125,221.5,140.3125,225.5,136.3125" style="stroke:#181818;stroke-width:1.0;"/><line style="stroke:#181818;stroke-width:1.0;" x1="56.5" x2="227.5" y1="136.3125" y2="136.3125"/><text fill="#000000" font-family="sans-serif" font-size="13" lengthAdjust="spacing" textLength="163" x="63.5" y="131.4561">btnPantallaCategorias_Click</text><polygon fill="#181818" points="358.5,162.6641,368.5,166.6641,358.5,170.6641,362.5,166.6641" style="stroke:#181818;stroke-width:1.0;"/><line style="stroke:#181818;stroke-width:1.0;" x1="243.5" x2="364.5" y1="166.6641" y2="166.6641"/><text fill="#000000" font-family="sans-serif" font-size="13" lengthAdjust="spacing" textLength="108" x="250.5" y="161.8076">CargarCategorias()</text><polygon fill="#181818" points="511.5,193.0156,521.5,197.0156,511.5,201.0156,515.5,197.0156" style="stroke:#181818;stroke-width:1.0;"/><line style="stroke:#181818;stroke-width:1.0;" x1="380.5" x2="517.5" y1="197.0156" y2="197.0156"/><text fill="#000000" font-family="sans-serif" font-size="13" lengthAdjust="spacing" textLength="91" x="387.5" y="192.1592">GetCategorias()</text><polygon fill="#181818" points="739.5,223.3672,749.5,227.3672,739.5,231.3672,743.5,227.3672" style="stroke:#181818;stroke-width:1.0;"/><line style="stroke:#181818;stroke-width:1.0;" x1="533.5" x2="745.5" y1="227.3672" y2="227.3672"/><text fill="#000000" font-family="sans-serif" font-size="13" font-weight="bold" lengthAdjust="spacing" textLength="26" x="540.5" y="222.5107">GET</text><text fill="#000000" font-family="sans-serif" font-size="13" lengthAdjust="spacing" textLength="124" x="570.5" y="222.5107">/categoriasEmpleo</text><polygon fill="#181818" points="892.5,270.0703,902.5,274.0703,892.5,278.0703,896.5,274.0703" style="stroke:#181818;stroke-width:1.0;"/><line style="stroke:#181818;stroke-width:1.0;" x1="761.5" x2="898.5" y1="274.0703" y2="274.0703"/><text fill="#000000" font-family="sans-serif" font-size="13" lengthAdjust="spacing" textLength="124" x="768.5" y="252.8623">getCategoriasEmpleo</text><text fill="#000000" font-family="sans-serif" font-size="13" lengthAdjust="spacing" textLength="56" x="768.5" y="269.2139">(callback)</text><polygon fill="#181818" points="1068.5,316.7734,1078.5,320.7734,1068.5,324.7734,1072.5,320.7734" style="stroke:#181818;stroke-width:1.0;"/><line style="stroke:#181818;stroke-width:1.0;" x1="914.5" x2="1074.5" y1="320.7734" y2="320.7734"/><text fill="#000000" font-family="sans-serif" font-size="13" lengthAdjust="spacing" textLength="124" x="921.5" y="299.5654">getCategoriasEmpleo</text><text fill="#000000" font-family="sans-serif" font-size="13" lengthAdjust="spacing" textLength="56" x="921.5" y="315.917">(callback)</text><polygon fill="#181818" points="1304.5,347.125,1314.5,351.125,1304.5,355.125,1308.5,351.125" style="stroke:#181818;stroke-width:1.0;"/><line style="stroke:#181818;stroke-width:1.0;" x1="1090.5" x2="1310.5" y1="351.125" y2="351.125"/><text fill="#000000" font-family="sans-serif" font-size="13" lengthAdjust="spacing" textLength="207" x="1097.5" y="346.2686">SELECT * FROM categoria_empleo</text><path d="M1331,364.125 L1331,455.125 L1499,455.125 L1499,374.125 L1489,364.125 L1331,364.125 " fill="#FEFFDD" style="stroke:#181818;stroke-width:0.5;"/><path d="M1489,364.125 L1489,374.125 L1499,374.125 L1489,364.125 " fill="#FEFFDD" style="stroke:#181818;stroke-width:0.5;"/><text fill="#000000" font-family="sans-serif" font-size="13" font-weight="bold" lengthAdjust="spacing" textLength="62" x="1337" y="382.6201">PAYLOAD</text><text fill="#000000" font-family="sans-serif" font-size="13" lengthAdjust="spacing" textLength="143" x="1337" y="398.9717">list&lt;CategoriaEmpledo&gt;:</text><text fill="#000000" font-family="sans-serif" font-size="13" lengthAdjust="spacing" textLength="131" x="1353" y="415.3232">idCategoriaEmpleo: int</text><text fill="#000000" font-family="sans-serif" font-size="13" lengthAdjust="spacing" textLength="83" x="1353" y="431.6748">nombre: string</text><text fill="#000000" font-family="sans-serif" font-size="13" lengthAdjust="spacing" textLength="4" x="1337" y="448.0264"> </text><line style="stroke:#181818;stroke-width:1.0;" x1="1090.5" x2="1100.5" y1="483.2344" y2="479.2344"/><line style="stroke:#181818;stroke-width:1.0;" x1="1090.5" x2="1100.5" y1="483.2344" y2="487.2344"/><line style="stroke:#181818;stroke-width:1.0;stroke-dasharray:2.0,2.0;" x1="1090.5" x2="1320.5" y1="483.2344" y2="483.2344"/><text fill="#000000" font-family="sans-serif" font-size="13" lengthAdjust="spacing" textLength="53" x="1107.5" y="478.3779">response</text><polygon fill="#181818" points="772.5,509.5859,762.5,513.5859,772.5,517.5859,768.5,513.5859" style="stroke:#181818;stroke-width:1.0;"/><line style="stroke:#181818;stroke-width:1.0;" x1="766.5" x2="1079.5" y1="513.5859" y2="513.5859"/><text fill="#000000" font-family="sans-serif" font-size="13" lengthAdjust="spacing" textLength="138" x="778.5" y="508.7295">callback(200, response)</text><polygon fill="#181818" points="544.5,539.9375,534.5,543.9375,544.5,547.9375,540.5,543.9375" style="stroke:#181818;stroke-width:1.0;"/><line style="stroke:#181818;stroke-width:1.0;" x1="538.5" x2="750.5" y1="543.9375" y2="543.9375"/><text fill="#000000" font-family="sans-serif" font-size="13" font-weight="bold" lengthAdjust="spacing" textLength="44" x="550.5" y="539.0811">200 OK</text><line style="stroke:#181818;stroke-width:1.0;" x1="380.5" x2="390.5" y1="574.2891" y2="570.2891"/><line style="stroke:#181818;stroke-width:1.0;" x1="380.5" x2="390.5" y1="574.2891" y2="578.2891"/><line style="stroke:#181818;stroke-width:1.0;stroke-dasharray:2.0,2.0;" x1="380.5" x2="522.5" y1="574.2891" y2="574.2891"/><text fill="#000000" font-family="sans-serif" font-size="13" lengthAdjust="spacing" textLength="53" x="397.5" y="569.4326">response</text><line style="stroke:#181818;stroke-width:1.0;" x1="380.5" x2="422.5" y1="620.9922" y2="620.9922"/><line style="stroke:#181818;stroke-width:1.0;" x1="422.5" x2="422.5" y1="620.9922" y2="633.9922"/><line style="stroke:#181818;stroke-width:1.0;" x1="381.5" x2="422.5" y1="633.9922" y2="633.9922"/><line style="stroke:#181818;stroke-width:1.0;" x1="381.5" x2="391.5" y1="633.9922" y2="629.9922"/><line style="stroke:#181818;stroke-width:1.0;" x1="381.5" x2="391.5" y1="633.9922" y2="637.9922"/><text fill="#000000" font-family="sans-serif" font-size="13" lengthAdjust="spacing" textLength="49" x="387.5" y="599.7842">mensaje</text><text fill="#000000" font-family="sans-serif" font-size="13" lengthAdjust="spacing" textLength="30" x="387.5" y="616.1357">Exito</text><path d="M302,648.9922 L363,648.9922 L363,657.3438 L353,667.3438 L302,667.3438 L302,648.9922 " fill="#EEEEEE" style="stroke:#000000;stroke-width:1.5;"/><rect fill="none" height="335.7031" style="stroke:#000000;stroke-width:1.5;" width="870" x="302" y="648.9922"/><text fill="#000000" font-family="sans-serif" font-size="13" font-weight="bold" lengthAdjust="spacing" textLength="16" x="317" y="663.4873">alt</text><text fill="#000000" font-family="sans-serif" font-size="11" font-weight="bold" lengthAdjust="spacing" textLength="142" x="378" y="662.4111">[INTERNAL ERROR SERVER]</text><polygon fill="#181818" points="772.5,685.6953,762.5,689.6953,772.5,693.6953,768.5,689.6953" style="stroke:#181818;stroke-width:1.0;"/><line style="stroke:#181818;stroke-width:1.0;" x1="766.5" x2="1079.5" y1="689.6953" y2="689.6953"/><text fill="#000000" font-family="sans-serif" font-size="13" lengthAdjust="spacing" textLength="134" x="778.5" y="684.8389">callback(500, mensaje)</text><polygon fill="#181818" points="544.5,716.0469,534.5,720.0469,544.5,724.0469,540.5,720.0469" style="stroke:#181818;stroke-width:1.0;"/><line style="stroke:#181818;stroke-width:1.0;" x1="538.5" x2="750.5" y1="720.0469" y2="720.0469"/><text fill="#000000" font-family="sans-serif" font-size="13" font-weight="bold" lengthAdjust="spacing" textLength="194" x="550.5" y="715.1904">500 INTERNAL SERVER ERROR</text><line style="stroke:#181818;stroke-width:1.0;" x1="380.5" x2="390.5" y1="750.3984" y2="746.3984"/><line style="stroke:#181818;stroke-width:1.0;" x1="380.5" x2="390.5" y1="750.3984" y2="754.3984"/><line style="stroke:#181818;stroke-width:1.0;stroke-dasharray:2.0,2.0;" x1="380.5" x2="522.5" y1="750.3984" y2="750.3984"/><text fill="#000000" font-family="sans-serif" font-size="13" lengthAdjust="spacing" textLength="20" x="397.5" y="745.542">null</text><line style="stroke:#181818;stroke-width:1.0;" x1="380.5" x2="422.5" y1="797.1016" y2="797.1016"/><line style="stroke:#181818;stroke-width:1.0;" x1="422.5" x2="422.5" y1="797.1016" y2="810.1016"/><line style="stroke:#181818;stroke-width:1.0;" x1="381.5" x2="422.5" y1="810.1016" y2="810.1016"/><line style="stroke:#181818;stroke-width:1.0;" x1="381.5" x2="391.5" y1="810.1016" y2="806.1016"/><line style="stroke:#181818;stroke-width:1.0;" x1="381.5" x2="391.5" y1="810.1016" y2="814.1016"/><text fill="#000000" font-family="sans-serif" font-size="13" lengthAdjust="spacing" textLength="49" x="387.5" y="775.8936">mensaje</text><text fill="#000000" font-family="sans-serif" font-size="13" lengthAdjust="spacing" textLength="113" x="387.5" y="792.2451">ErrorInternoServidor</text><line style="stroke:#000000;stroke-width:1.0;stroke-dasharray:2.0,2.0;" x1="302" x2="1172" y1="819.1016" y2="819.1016"/><text fill="#000000" font-family="sans-serif" font-size="11" font-weight="bold" lengthAdjust="spacing" textLength="68" x="307" y="830.5205">[NOT FOUND]</text><polygon fill="#181818" points="772.5,852.2891,762.5,856.2891,772.5,860.2891,768.5,856.2891" style="stroke:#181818;stroke-width:1.0;"/><line style="stroke:#181818;stroke-width:1.0;" x1="766.5" x2="1079.5" y1="856.2891" y2="856.2891"/><text fill="#000000" font-family="sans-serif" font-size="13" lengthAdjust="spacing" textLength="134" x="778.5" y="851.4326">callback(404, mensaje)</text><polygon fill="#181818" points="544.5,882.6406,534.5,886.6406,544.5,890.6406,540.5,886.6406" style="stroke:#181818;stroke-width:1.0;"/><line style="stroke:#181818;stroke-width:1.0;" x1="538.5" x2="750.5" y1="886.6406" y2="886.6406"/><text fill="#000000" font-family="sans-serif" font-size="13" font-weight="bold" lengthAdjust="spacing" textLength="93" x="550.5" y="881.7842">404 NO FOUND</text><line style="stroke:#181818;stroke-width:1.0;" x1="380.5" x2="390.5" y1="916.9922" y2="912.9922"/><line style="stroke:#181818;stroke-width:1.0;" x1="380.5" x2="390.5" y1="916.9922" y2="920.9922"/><line style="stroke:#181818;stroke-width:1.0;stroke-dasharray:2.0,2.0;" x1="380.5" x2="522.5" y1="916.9922" y2="916.9922"/><text fill="#000000" font-family="sans-serif" font-size="13" lengthAdjust="spacing" textLength="20" x="397.5" y="912.1357">null</text><line style="stroke:#181818;stroke-width:1.0;" x1="380.5" x2="422.5" y1="963.6953" y2="963.6953"/><line style="stroke:#181818;stroke-width:1.0;" x1="422.5" x2="422.5" y1="963.6953" y2="976.6953"/><line style="stroke:#181818;stroke-width:1.0;" x1="381.5" x2="422.5" y1="976.6953" y2="976.6953"/><line style="stroke:#181818;stroke-width:1.0;" x1="381.5" x2="391.5" y1="976.6953" y2="972.6953"/><line style="stroke:#181818;stroke-width:1.0;" x1="381.5" x2="391.5" y1="976.6953" y2="980.6953"/><text fill="#000000" font-family="sans-serif" font-size="13" lengthAdjust="spacing" textLength="49" x="387.5" y="942.4873">mensaje</text><text fill="#000000" font-family="sans-serif" font-size="13" lengthAdjust="spacing" textLength="129" x="387.5" y="958.8389">PeticionNoEncontrada</text><!--MD5=[072cb77f886365557647241d49f2e40e]
@startuml

box Cliente
    actor Administrador as a
    participant categoriasEmpleo as b <<GUI>> 
    participant categoriasEmpleo as c <<Controller>>
    participant CategoriaDAO as d <<DAO>>

end box

box Servidor
    participant ElCamelloAPI as e <<API>>
    participant GestionCategoriasEmpleo as f <<Componente>>
    participant CategoriaEmpleoDAO as g <<DAO>>
    database elCamelloDB as db
end box

a -> b: btnPantallaCategorias_Click
activate a
activate b

b -> c: CargarCategorias()
activate c

c -> d: GetCategorias() 
activate d


d -> e: **GET** /categoriasEmpleo
activate e

e -> f: getCategoriasEmpleo\n(callback)
activate f

f -> g: getCategoriasEmpleo\n(callback)
activate g

g -> db: SELECT * FROM categoria_empleo
activate db

note right of db
**PAYLOAD**
list<CategoriaEmpledo>:
    idCategoriaEmpleo: int
    nombre: string

end note

db - ->> g: response
deactivate db

g -> e: callback(200, response)

e -> d: **200 OK**

d - ->> c: response

c ->> c: mensaje\nExito

alt INTERNAL ERROR SERVER

    g -> e: callback(500, mensaje)

    e -> d: **500 INTERNAL SERVER ERROR**

    d - ->> c: null

    c ->> c: mensaje\nErrorInternoServidor

else NOT FOUND

    g -> e: callback(404, mensaje)

    e -> d: **404 NO FOUND**

    d - ->> c: null

    c ->> c: mensaje\nPeticionNoEncontrada

end

@enduml

PlantUML version 1.2022.5(Sat Apr 30 05:55:52 CDT 2022)
(GPL source distribution)
Java Runtime: Java(TM) SE Runtime Environment
JVM: Java HotSpot(TM) 64-Bit Server VM
Default Encoding: Cp1252
Language: es
Country: MX
--></g></svg>