<?xml version="1.0" encoding="UTF-8" standalone="no"?><svg xmlns="http://www.w3.org/2000/svg" xmlns:xlink="http://www.w3.org/1999/xlink" contentStyleType="text/css" height="2718px" preserveAspectRatio="none" style="width:2077px;height:2718px;background:#FFFFFF;" version="1.1" viewBox="0 0 2077 2718" width="2077px" zoomAndPan="magnify"><defs/><g><rect fill="#DDDDDD" height="2706.7188" style="stroke:#181818;stroke-width:0.5;" width="730.5" x="1" y="6"/><text fill="#000000" font-family="sans-serif" font-size="13" font-weight="bold" lengthAdjust="spacing" textLength="45" x="343.75" y="19.4951">Cliente</text><rect fill="#DDDDDD" height="2706.7188" style="stroke:#181818;stroke-width:0.5;" width="1023.5" x="952" y="6"/><text fill="#000000" font-family="sans-serif" font-size="13" font-weight="bold" lengthAdjust="spacing" textLength="54" x="1436.75" y="19.4951">Servidor</text><rect fill="#FFFFFF" height="2486.7969" style="stroke:#181818;stroke-width:1.0;" width="10" x="37" y="136.3125"/><rect fill="#FFFFFF" height="2486.7969" style="stroke:#181818;stroke-width:1.0;" width="10" x="161" y="136.3125"/><rect fill="#FFFFFF" height="2456.4453" style="stroke:#181818;stroke-width:1.0;" width="10" x="374" y="166.6641"/><rect fill="#FFFFFF" height="1616.7969" style="stroke:#181818;stroke-width:1.0;" width="10" x="657" y="229.7188"/><rect fill="#FFFFFF" height="1221.7656" style="stroke:#181818;stroke-width:1.0;" width="10" x="1000" y="594.3984"/><rect fill="#FFFFFF" height="1128.3594" style="stroke:#181818;stroke-width:1.0;" width="10" x="1301" y="657.4531"/><rect fill="#FFFFFF" height="1735.8438" style="stroke:#181818;stroke-width:1.0;" width="10" x="1602" y="720.5078"/><rect fill="#FFFFFF" height="196.9453" style="stroke:#181818;stroke-width:1.0;" width="10" x="1607" y="1755.4609"/><rect fill="#FFFFFF" height="83.0547" style="stroke:#181818;stroke-width:1.0;" width="10" x="1923" y="947.0781"/><rect height="1569.9766" style="stroke:#000000;stroke-width:1.5;fill:none;" width="1789" x="251" y="1045.1328"/><rect height="533.6484" style="stroke:#000000;stroke-width:1.5;fill:none;" width="1421.5" x="261" y="1577.5156"/><line style="stroke:#181818;stroke-width:0.5;fill:none;stroke-dasharray:5.0,5.0;" x1="42" x2="42" y1="103.9609" y2="2632.1094"/><line style="stroke:#181818;stroke-width:0.5;fill:none;stroke-dasharray:5.0,5.0;" x1="166" x2="166" y1="103.9609" y2="2632.1094"/><line style="stroke:#181818;stroke-width:0.5;fill:none;stroke-dasharray:5.0,5.0;" x1="379" x2="379" y1="103.9609" y2="2632.1094"/><line style="stroke:#181818;stroke-width:0.5;fill:none;stroke-dasharray:5.0,5.0;" x1="661.5" x2="661.5" y1="103.9609" y2="2632.1094"/><line style="stroke:#181818;stroke-width:0.5;fill:none;stroke-dasharray:5.0,5.0;" x1="1005" x2="1005" y1="103.9609" y2="2632.1094"/><line style="stroke:#181818;stroke-width:0.5;fill:none;stroke-dasharray:5.0,5.0;" x1="1305.5" x2="1305.5" y1="103.9609" y2="2632.1094"/><line style="stroke:#181818;stroke-width:0.5;fill:none;stroke-dasharray:5.0,5.0;" x1="1606.5" x2="1606.5" y1="103.9609" y2="2632.1094"/><line style="stroke:#181818;stroke-width:0.5;fill:none;stroke-dasharray:5.0,5.0;" x1="1927.5" x2="1927.5" y1="103.9609" y2="2632.1094"/><text fill="#000000" font-family="sans-serif" font-size="14" lengthAdjust="spacing" textLength="68" x="5" y="100.8848">Empleador</text><ellipse cx="42" cy="34.8516" fill="#E2E2F0" rx="8" ry="8" style="stroke:#181818;stroke-width:0.5;"/><path d="M42,42.8516 L42,69.8516 M29,50.8516 L55,50.8516 M42,69.8516 L29,84.8516 M42,69.8516 L55,84.8516 " fill="none" style="stroke:#181818;stroke-width:0.5;"/><text fill="#000000" font-family="sans-serif" font-size="14" lengthAdjust="spacing" textLength="68" x="5" y="2645.6426">Empleador</text><ellipse cx="42" cy="2657.2188" fill="#E2E2F0" rx="8" ry="8" style="stroke:#181818;stroke-width:0.5;"/><path d="M42,2665.2188 L42,2692.2188 M29,2673.2188 L55,2673.2188 M42,2692.2188 L29,2707.2188 M42,2692.2188 L55,2707.2188 " fill="none" style="stroke:#181818;stroke-width:0.5;"/><rect fill="#E2E2F0" height="49.2188" rx="2.5" ry="2.5" style="stroke:#181818;stroke-width:0.5;" width="154" x="89" y="53.7422"/><text fill="#000000" font-family="sans-serif" font-size="14" font-style="italic" lengthAdjust="spacing" textLength="41" x="145.5" y="75.2754">«GUI»</text><text fill="#000000" font-family="sans-serif" font-size="14" lengthAdjust="spacing" textLength="140" x="96" y="92.8848">RegistroOfertaEmpleo</text><rect fill="#E2E2F0" height="49.2188" rx="2.5" ry="2.5" style="stroke:#181818;stroke-width:0.5;" width="154" x="89" y="2631.1094"/><text fill="#000000" font-family="sans-serif" font-size="14" font-style="italic" lengthAdjust="spacing" textLength="41" x="145.5" y="2652.6426">«GUI»</text><text fill="#000000" font-family="sans-serif" font-size="14" lengthAdjust="spacing" textLength="140" x="96" y="2670.252">RegistroOfertaEmpleo</text><rect fill="#E2E2F0" height="49.2188" rx="2.5" ry="2.5" style="stroke:#181818;stroke-width:0.5;" width="216" x="271" y="53.7422"/><text fill="#000000" font-family="sans-serif" font-size="14" font-style="italic" lengthAdjust="spacing" textLength="78" x="340" y="75.2754">«Controller»</text><text fill="#000000" font-family="sans-serif" font-size="14" lengthAdjust="spacing" textLength="202" x="278" y="92.8848">RegistroOfertaEmpleoController</text><rect fill="#E2E2F0" height="49.2188" rx="2.5" ry="2.5" style="stroke:#181818;stroke-width:0.5;" width="216" x="271" y="2631.1094"/><text fill="#000000" font-family="sans-serif" font-size="14" font-style="italic" lengthAdjust="spacing" textLength="78" x="340" y="2652.6426">«Controller»</text><text fill="#000000" font-family="sans-serif" font-size="14" lengthAdjust="spacing" textLength="202" x="278" y="2670.252">RegistroOfertaEmpleoController</text><rect fill="#E2E2F0" height="49.2188" rx="2.5" ry="2.5" style="stroke:#181818;stroke-width:0.5;" width="131" x="596.5" y="53.7422"/><text fill="#000000" font-family="sans-serif" font-size="14" font-style="italic" lengthAdjust="spacing" textLength="46" x="639" y="75.2754">«DAO»</text><text fill="#000000" font-family="sans-serif" font-size="14" lengthAdjust="spacing" textLength="117" x="603.5" y="92.8848">OfertaEmpleoDAO</text><rect fill="#E2E2F0" height="49.2188" rx="2.5" ry="2.5" style="stroke:#181818;stroke-width:0.5;" width="131" x="596.5" y="2631.1094"/><text fill="#000000" font-family="sans-serif" font-size="14" font-style="italic" lengthAdjust="spacing" textLength="46" x="639" y="2652.6426">«DAO»</text><text fill="#000000" font-family="sans-serif" font-size="14" lengthAdjust="spacing" textLength="117" x="603.5" y="2670.252">OfertaEmpleoDAO</text><rect fill="#E2E2F0" height="49.2188" rx="2.5" ry="2.5" style="stroke:#181818;stroke-width:0.5;" width="98" x="956" y="53.7422"/><text fill="#000000" font-family="sans-serif" font-size="14" font-style="italic" lengthAdjust="spacing" textLength="38" x="986" y="75.2754">«API»</text><text fill="#000000" font-family="sans-serif" font-size="14" lengthAdjust="spacing" textLength="84" x="963" y="92.8848">ElCamelloAPI</text><rect fill="#E2E2F0" height="49.2188" rx="2.5" ry="2.5" style="stroke:#181818;stroke-width:0.5;" width="98" x="956" y="2631.1094"/><text fill="#000000" font-family="sans-serif" font-size="14" font-style="italic" lengthAdjust="spacing" textLength="38" x="986" y="2652.6426">«API»</text><text fill="#000000" font-family="sans-serif" font-size="14" lengthAdjust="spacing" textLength="84" x="963" y="2670.252">ElCamelloAPI</text><rect fill="#E2E2F0" height="49.2188" rx="2.5" ry="2.5" style="stroke:#181818;stroke-width:0.5;" width="157" x="1227.5" y="53.7422"/><text fill="#000000" font-family="sans-serif" font-size="14" font-style="italic" lengthAdjust="spacing" textLength="97" x="1257.5" y="75.2754">«Componente»</text><text fill="#000000" font-family="sans-serif" font-size="14" lengthAdjust="spacing" textLength="143" x="1234.5" y="92.8848">GestionOfertasEmpleo</text><rect fill="#E2E2F0" height="49.2188" rx="2.5" ry="2.5" style="stroke:#181818;stroke-width:0.5;" width="157" x="1227.5" y="2631.1094"/><text fill="#000000" font-family="sans-serif" font-size="14" font-style="italic" lengthAdjust="spacing" textLength="97" x="1257.5" y="2652.6426">«Componente»</text><text fill="#000000" font-family="sans-serif" font-size="14" lengthAdjust="spacing" textLength="143" x="1234.5" y="2670.252">GestionOfertasEmpleo</text><rect fill="#E2E2F0" height="49.2188" rx="2.5" ry="2.5" style="stroke:#181818;stroke-width:0.5;" width="131" x="1541.5" y="53.7422"/><text fill="#000000" font-family="sans-serif" font-size="14" font-style="italic" lengthAdjust="spacing" textLength="46" x="1584" y="75.2754">«DAO»</text><text fill="#000000" font-family="sans-serif" font-size="14" lengthAdjust="spacing" textLength="117" x="1548.5" y="92.8848">OfertaEmpleoDAO</text><rect fill="#E2E2F0" height="49.2188" rx="2.5" ry="2.5" style="stroke:#181818;stroke-width:0.5;" width="131" x="1541.5" y="2631.1094"/><text fill="#000000" font-family="sans-serif" font-size="14" font-style="italic" lengthAdjust="spacing" textLength="46" x="1584" y="2652.6426">«DAO»</text><text fill="#000000" font-family="sans-serif" font-size="14" lengthAdjust="spacing" textLength="117" x="1548.5" y="2670.252">OfertaEmpleoDAO</text><text fill="#000000" font-family="sans-serif" font-size="14" lengthAdjust="spacing" textLength="81" x="1884.5" y="100.8848">elCamelloDB</text><path d="M1910,50.3516 C1910,40.3516 1928,40.3516 1928,40.3516 C1928,40.3516 1946,40.3516 1946,50.3516 L1946,76.3516 C1946,86.3516 1928,86.3516 1928,86.3516 C1928,86.3516 1910,86.3516 1910,76.3516 L1910,50.3516 " fill="#E2E2F0" style="stroke:#181818;stroke-width:1.5;"/><path d="M1910,50.3516 C1910,60.3516 1928,60.3516 1928,60.3516 C1928,60.3516 1946,60.3516 1946,50.3516 " fill="none" style="stroke:#181818;stroke-width:1.5;"/><text fill="#000000" font-family="sans-serif" font-size="14" lengthAdjust="spacing" textLength="81" x="1884.5" y="2645.6426">elCamelloDB</text><path d="M1910,2658.7188 C1910,2648.7188 1928,2648.7188 1928,2648.7188 C1928,2648.7188 1946,2648.7188 1946,2658.7188 L1946,2684.7188 C1946,2694.7188 1928,2694.7188 1928,2694.7188 C1928,2694.7188 1910,2694.7188 1910,2684.7188 L1910,2658.7188 " fill="#E2E2F0" style="stroke:#181818;stroke-width:1.5;"/><path d="M1910,2658.7188 C1910,2668.7188 1928,2668.7188 1928,2668.7188 C1928,2668.7188 1946,2668.7188 1946,2658.7188 " fill="none" style="stroke:#181818;stroke-width:1.5;"/><rect fill="#FFFFFF" height="2486.7969" style="stroke:#181818;stroke-width:1.0;" width="10" x="37" y="136.3125"/><rect fill="#FFFFFF" height="2486.7969" style="stroke:#181818;stroke-width:1.0;" width="10" x="161" y="136.3125"/><rect fill="#FFFFFF" height="2456.4453" style="stroke:#181818;stroke-width:1.0;" width="10" x="374" y="166.6641"/><rect fill="#FFFFFF" height="1616.7969" style="stroke:#181818;stroke-width:1.0;" width="10" x="657" y="229.7188"/><rect fill="#FFFFFF" height="1221.7656" style="stroke:#181818;stroke-width:1.0;" width="10" x="1000" y="594.3984"/><rect fill="#FFFFFF" height="1128.3594" style="stroke:#181818;stroke-width:1.0;" width="10" x="1301" y="657.4531"/><rect fill="#FFFFFF" height="1735.8438" style="stroke:#181818;stroke-width:1.0;" width="10" x="1602" y="720.5078"/><rect fill="#FFFFFF" height="196.9453" style="stroke:#181818;stroke-width:1.0;" width="10" x="1607" y="1755.4609"/><rect fill="#FFFFFF" height="83.0547" style="stroke:#181818;stroke-width:1.0;" width="10" x="1923" y="947.0781"/><polygon fill="#181818" points="149,132.3125,159,136.3125,149,140.3125,153,136.3125" style="stroke:#181818;stroke-width:1.0;"/><line style="stroke:#181818;stroke-width:1.0;" x1="47" x2="155" y1="136.3125" y2="136.3125"/><text fill="#000000" font-family="sans-serif" font-size="13" lengthAdjust="spacing" textLength="89" x="54" y="131.4561">capturarDatos()</text><polygon fill="#181818" points="362,162.6641,372,166.6641,362,170.6641,366,166.6641" style="stroke:#181818;stroke-width:1.0;"/><line style="stroke:#181818;stroke-width:1.0;" x1="171" x2="368" y1="166.6641" y2="166.6641"/><text fill="#000000" font-family="sans-serif" font-size="13" lengthAdjust="spacing" textLength="184" x="178" y="161.8076">btnguardarOfertaEmpleo_Click()</text><polygon fill="#181818" points="645,225.7188,655,229.7188,645,233.7188,649,229.7188" style="stroke:#181818;stroke-width:1.0;"/><line style="stroke:#181818;stroke-width:1.0;" x1="384" x2="651" y1="229.7188" y2="229.7188"/><text fill="#000000" font-family="sans-serif" font-size="13" lengthAdjust="spacing" textLength="110" x="391" y="192.1592">PostOfertaEmpleo(</text><text fill="#000000" font-family="sans-serif" font-size="13" lengthAdjust="spacing" textLength="202" x="391" y="208.5107">ofertaEmpleoNueva: OfertaEmpleo,</text><text fill="#000000" font-family="sans-serif" font-size="13" lengthAdjust="spacing" textLength="146" x="391" y="224.8623">token: string): Empleador</text><path d="M672,242.7188 L672,301.7188 L822,301.7188 L822,252.7188 L812,242.7188 L672,242.7188 " fill="#FEFFDD" style="stroke:#181818;stroke-width:0.5;"/><path d="M812,242.7188 L812,252.7188 L822,252.7188 L812,242.7188 " fill="#FEFFDD" style="stroke:#181818;stroke-width:0.5;"/><text fill="#000000" font-family="sans-serif" font-size="13" font-weight="bold" lengthAdjust="spacing" textLength="51" x="678" y="261.2139">headers</text><text fill="#000000" font-family="sans-serif" font-size="13" lengthAdjust="spacing" textLength="129" x="678" y="277.5654">x-access-token: string</text><text fill="#000000" font-family="sans-serif" font-size="13" lengthAdjust="spacing" textLength="4" x="678" y="293.917"> </text><path d="M672,311.7734 L672,566.7734 L826,566.7734 L826,321.7734 L816,311.7734 L672,311.7734 " fill="#FEFFDD" style="stroke:#181818;stroke-width:0.5;"/><path d="M816,311.7734 L816,321.7734 L826,321.7734 L816,311.7734 " fill="#FEFFDD" style="stroke:#181818;stroke-width:0.5;"/><text fill="#000000" font-family="sans-serif" font-size="13" font-weight="bold" lengthAdjust="spacing" textLength="51" x="678" y="330.2686">payload</text><text fill="#000000" font-family="sans-serif" font-size="13" lengthAdjust="spacing" textLength="131" x="678" y="346.6201">idCategoriaEmpleo: int</text><text fill="#000000" font-family="sans-serif" font-size="13" lengthAdjust="spacing" textLength="83" x="678" y="362.9717">nombre: string</text><text fill="#000000" font-family="sans-serif" font-size="13" lengthAdjust="spacing" textLength="108" x="678" y="379.3232">Descripcion: string</text><text fill="#000000" font-family="sans-serif" font-size="13" lengthAdjust="spacing" textLength="77" x="678" y="395.6748">Vacantes: int</text><text fill="#000000" font-family="sans-serif" font-size="13" lengthAdjust="spacing" textLength="126" x="678" y="412.0264">DiasLaborales: string,</text><text fill="#000000" font-family="sans-serif" font-size="13" lengthAdjust="spacing" textLength="98" x="678" y="428.3779">TipoPago: string,</text><text fill="#000000" font-family="sans-serif" font-size="13" lengthAdjust="spacing" textLength="107" x="678" y="444.7295">CantidadPago: int,</text><text fill="#000000" font-family="sans-serif" font-size="13" lengthAdjust="spacing" textLength="98" x="678" y="461.0811">Direccion: string,</text><text fill="#000000" font-family="sans-serif" font-size="13" lengthAdjust="spacing" textLength="92" x="678" y="477.4326">horaInicio: time,</text><text fill="#000000" font-family="sans-serif" font-size="13" lengthAdjust="spacing" textLength="80" x="678" y="493.7842">horaFin: time,</text><text fill="#000000" font-family="sans-serif" font-size="13" lengthAdjust="spacing" textLength="98" x="678" y="510.1357">fechaInicio: date,</text><text fill="#000000" font-family="sans-serif" font-size="13" lengthAdjust="spacing" textLength="133" x="678" y="526.4873">fechaFinalizacion: date</text><text fill="#000000" font-family="sans-serif" font-size="13" lengthAdjust="spacing" textLength="123" x="678" y="542.8389">idPerfilEmpleador: int</text><text fill="#000000" font-family="sans-serif" font-size="13" lengthAdjust="spacing" textLength="4" x="678" y="559.1904"> </text><polygon fill="#181818" points="988,590.3984,998,594.3984,988,598.3984,992,594.3984" style="stroke:#181818;stroke-width:1.0;"/><line style="stroke:#181818;stroke-width:1.0;" x1="667" x2="994" y1="594.3984" y2="594.3984"/><text fill="#000000" font-family="sans-serif" font-size="13" font-weight="bold" lengthAdjust="spacing" textLength="36" x="674" y="589.542">POST</text><text fill="#000000" font-family="sans-serif" font-size="13" lengthAdjust="spacing" textLength="116" x="714" y="589.542">/ofertasEmpleo-E</text><polygon fill="#181818" points="1289,653.4531,1299,657.4531,1289,661.4531,1293,657.4531" style="stroke:#181818;stroke-width:1.0;"/><line style="stroke:#181818;stroke-width:1.0;" x1="1010" x2="1295" y1="657.4531" y2="657.4531"/><text fill="#000000" font-family="sans-serif" font-size="13" lengthAdjust="spacing" textLength="108" x="1017" y="619.8936">postOfertaEmpleo(</text><text fill="#000000" font-family="sans-serif" font-size="13" lengthAdjust="spacing" textLength="98" x="1017" y="636.2451">idEmpleador: int,</text><text fill="#000000" font-family="sans-serif" font-size="13" lengthAdjust="spacing" textLength="272" x="1017" y="652.5967">ofertaEmpleoNueva: OfertaEmpleo): Empleador</text><polygon fill="#181818" points="1590,716.5078,1600,720.5078,1590,724.5078,1594,720.5078" style="stroke:#181818;stroke-width:1.0;"/><line style="stroke:#181818;stroke-width:1.0;" x1="1311" x2="1596" y1="720.5078" y2="720.5078"/><text fill="#000000" font-family="sans-serif" font-size="13" lengthAdjust="spacing" textLength="108" x="1318" y="682.9482">postOfertaEmpleo(</text><text fill="#000000" font-family="sans-serif" font-size="13" lengthAdjust="spacing" textLength="98" x="1318" y="699.2998">idEmpleador: int,</text><text fill="#000000" font-family="sans-serif" font-size="13" lengthAdjust="spacing" textLength="272" x="1318" y="715.6514">ofertaEmpleoNueva: OfertaEmpleo): Empleador</text><polygon fill="#181818" points="1911,943.0781,1921,947.0781,1911,951.0781,1915,947.0781" style="stroke:#181818;stroke-width:1.0;"/><line style="stroke:#181818;stroke-width:1.0;" x1="1612" x2="1917" y1="947.0781" y2="947.0781"/><text fill="#000000" font-family="sans-serif" font-size="13" lengthAdjust="spacing" textLength="168" x="1619" y="746.0029">INSERT INTO oferta_empleo(</text><text fill="#000000" font-family="sans-serif" font-size="13" lengthAdjust="spacing" textLength="113" x="1619" y="762.3545">idCategoriaEmpleo,</text><text fill="#000000" font-family="sans-serif" font-size="13" lengthAdjust="spacing" textLength="47" x="1619" y="778.7061">nombre,</text><text fill="#000000" font-family="sans-serif" font-size="13" lengthAdjust="spacing" textLength="72" x="1619" y="795.0576">Descripcion,</text><text fill="#000000" font-family="sans-serif" font-size="13" lengthAdjust="spacing" textLength="59" x="1619" y="811.4092">Vacantes,</text><text fill="#000000" font-family="sans-serif" font-size="13" lengthAdjust="spacing" textLength="86" x="1619" y="827.7607">DiasLaborales,</text><text fill="#000000" font-family="sans-serif" font-size="13" lengthAdjust="spacing" textLength="58" x="1619" y="844.1123">TipoPago,</text><text fill="#000000" font-family="sans-serif" font-size="13" lengthAdjust="spacing" textLength="85" x="1619" y="860.4639">CantidadPago,</text><text fill="#000000" font-family="sans-serif" font-size="13" lengthAdjust="spacing" textLength="58" x="1619" y="876.8154">Direccion,</text><text fill="#000000" font-family="sans-serif" font-size="13" lengthAdjust="spacing" textLength="59" x="1619" y="893.167">horaInicio,</text><text fill="#000000" font-family="sans-serif" font-size="13" lengthAdjust="spacing" textLength="47" x="1619" y="909.5186">horaFin,</text><text fill="#000000" font-family="sans-serif" font-size="13" lengthAdjust="spacing" textLength="65" x="1619" y="925.8701">fechaInicio,</text><text fill="#000000" font-family="sans-serif" font-size="13" lengthAdjust="spacing" textLength="104" x="1619" y="942.2217">fechaFinalizacion)</text><path d="M1938,960.0781 L1938,1002.0781 L2070,1002.0781 L2070,970.0781 L2060,960.0781 L1938,960.0781 " fill="#FEFFDD" style="stroke:#181818;stroke-width:0.5;"/><path d="M2060,960.0781 L2060,970.0781 L2070,970.0781 L2060,960.0781 " fill="#FEFFDD" style="stroke:#181818;stroke-width:0.5;"/><text fill="#000000" font-family="sans-serif" font-size="13" font-weight="bold" lengthAdjust="spacing" textLength="62" x="1944" y="978.5732">PAYLOAD</text><text fill="#000000" font-family="sans-serif" font-size="13" lengthAdjust="spacing" textLength="111" x="1944" y="994.9248">idOfertaEmpleo: int</text><line style="stroke:#181818;stroke-width:1.0;" x1="1612" x2="1622" y1="1030.1328" y2="1026.1328"/><line style="stroke:#181818;stroke-width:1.0;" x1="1612" x2="1622" y1="1030.1328" y2="1034.1328"/><line style="stroke:#181818;stroke-width:1.0;stroke-dasharray:2.0,2.0;" x1="1612" x2="1927" y1="1030.1328" y2="1030.1328"/><text fill="#000000" font-family="sans-serif" font-size="13" lengthAdjust="spacing" textLength="53" x="1629" y="1025.2764">response</text><path d="M251,1045.1328 L312,1045.1328 L312,1053.4844 L302,1063.4844 L251,1063.4844 L251,1045.1328 " fill="#EEEEEE" style="stroke:#000000;stroke-width:1.5;"/><rect fill="none" height="1569.9766" style="stroke:#000000;stroke-width:1.5;" width="1789" x="251" y="1045.1328"/><text fill="#000000" font-family="sans-serif" font-size="13" font-weight="bold" lengthAdjust="spacing" textLength="16" x="266" y="1059.6279">alt</text><text fill="#000000" font-family="sans-serif" font-size="11" font-weight="bold" lengthAdjust="spacing" textLength="143" x="327" y="1058.5518">[OfertaEmpleo registrada]</text><line style="stroke:#181818;stroke-width:1.0;" x1="1311" x2="1321" y1="1085.8359" y2="1081.8359"/><line style="stroke:#181818;stroke-width:1.0;" x1="1311" x2="1321" y1="1085.8359" y2="1089.8359"/><line style="stroke:#181818;stroke-width:1.0;" x1="1311" x2="1601" y1="1085.8359" y2="1085.8359"/><text fill="#000000" font-family="sans-serif" font-size="13" lengthAdjust="spacing" textLength="138" x="1328" y="1080.9795">callback(201, response)</text><line style="stroke:#181818;stroke-width:1.0;" x1="1010" x2="1020" y1="1116.1875" y2="1112.1875"/><line style="stroke:#181818;stroke-width:1.0;" x1="1010" x2="1020" y1="1116.1875" y2="1120.1875"/><line style="stroke:#181818;stroke-width:1.0;" x1="1010" x2="1300" y1="1116.1875" y2="1116.1875"/><text fill="#000000" font-family="sans-serif" font-size="13" lengthAdjust="spacing" textLength="138" x="1027" y="1111.3311">callback(201, response)</text><line style="stroke:#181818;stroke-width:1.0;" x1="667" x2="677" y1="1146.5391" y2="1142.5391"/><line style="stroke:#181818;stroke-width:1.0;" x1="667" x2="677" y1="1146.5391" y2="1150.5391"/><line style="stroke:#181818;stroke-width:1.0;stroke-dasharray:2.0,2.0;" x1="667" x2="999" y1="1146.5391" y2="1146.5391"/><text fill="#000000" font-family="sans-serif" font-size="13" font-weight="bold" lengthAdjust="spacing" textLength="60" x="684" y="1141.6826">CREATED</text><text fill="#000000" font-family="sans-serif" font-size="13" lengthAdjust="spacing" textLength="21" x="748" y="1141.6826">201</text><line style="stroke:#181818;stroke-width:1.0;" x1="384" x2="394" y1="1176.8906" y2="1172.8906"/><line style="stroke:#181818;stroke-width:1.0;" x1="384" x2="394" y1="1176.8906" y2="1180.8906"/><line style="stroke:#181818;stroke-width:1.0;stroke-dasharray:2.0,2.0;" x1="384" x2="656" y1="1176.8906" y2="1176.8906"/><text fill="#000000" font-family="sans-serif" font-size="13" lengthAdjust="spacing" textLength="150" x="401" y="1172.0342">idOfertaEmpleo :response</text><polygon fill="#181818" points="645,1235.9453,655,1239.9453,645,1243.9453,649,1239.9453" style="stroke:#181818;stroke-width:1.0;"/><line style="stroke:#181818;stroke-width:1.0;" x1="384" x2="651" y1="1239.9453" y2="1239.9453"/><text fill="#000000" font-family="sans-serif" font-size="13" lengthAdjust="spacing" textLength="174" x="391" y="1202.3857">PostFotografiasOfertaEmpleo(</text><text fill="#000000" font-family="sans-serif" font-size="13" lengthAdjust="spacing" textLength="180" x="391" y="1218.7373">idOfertaEmpleo: OfertaEmpleo,</text><text fill="#000000" font-family="sans-serif" font-size="13" lengthAdjust="spacing" textLength="211" x="391" y="1235.0889">fotografias: List&lt;byte[]&gt;): Empleador</text><path d="M672,1252.9453 L672,1294.9453 L786,1294.9453 L786,1262.9453 L776,1252.9453 L672,1252.9453 " fill="#FEFFDD" style="stroke:#181818;stroke-width:0.5;"/><path d="M776,1252.9453 L776,1262.9453 L786,1262.9453 L776,1252.9453 " fill="#FEFFDD" style="stroke:#181818;stroke-width:0.5;"/><text fill="#000000" font-family="sans-serif" font-size="13" font-weight="bold" lengthAdjust="spacing" textLength="51" x="678" y="1271.4404">payload</text><text fill="#000000" font-family="sans-serif" font-size="13" lengthAdjust="spacing" textLength="93" x="678" y="1287.792">fotografia: byte[]</text><polygon fill="#181818" points="988,1319,998,1323,988,1327,992,1323" style="stroke:#181818;stroke-width:1.0;"/><line style="stroke:#181818;stroke-width:1.0;" x1="667" x2="994" y1="1323" y2="1323"/><text fill="#000000" font-family="sans-serif" font-size="13" font-weight="bold" lengthAdjust="spacing" textLength="36" x="674" y="1318.1436">POST</text><text fill="#000000" font-family="sans-serif" font-size="13" lengthAdjust="spacing" textLength="269" x="714" y="1318.1436">/ofertasEmpleo-E/:idOfertaEmpleo/fotografia</text><polygon fill="#181818" points="1289,1382.0547,1299,1386.0547,1289,1390.0547,1293,1386.0547" style="stroke:#181818;stroke-width:1.0;"/><line style="stroke:#181818;stroke-width:1.0;" x1="1010" x2="1295" y1="1386.0547" y2="1386.0547"/><text fill="#000000" font-family="sans-serif" font-size="13" lengthAdjust="spacing" textLength="165" x="1017" y="1348.4951">postFotografiaOfertaEmpleo(</text><text fill="#000000" font-family="sans-serif" font-size="13" lengthAdjust="spacing" textLength="115" x="1017" y="1364.8467">idOfertaEmpleo: int,</text><text fill="#000000" font-family="sans-serif" font-size="13" lengthAdjust="spacing" textLength="167" x="1017" y="1381.1982">fotografia: byte[]): Empleador</text><polygon fill="#181818" points="1590,1445.1094,1600,1449.1094,1590,1453.1094,1594,1449.1094" style="stroke:#181818;stroke-width:1.0;"/><line style="stroke:#181818;stroke-width:1.0;" x1="1311" x2="1596" y1="1449.1094" y2="1449.1094"/><text fill="#000000" font-family="sans-serif" font-size="13" lengthAdjust="spacing" textLength="165" x="1318" y="1411.5498">postFotografiaOfertaEmpleo(</text><text fill="#000000" font-family="sans-serif" font-size="13" lengthAdjust="spacing" textLength="115" x="1318" y="1427.9014">idOfertaEmpleo: int,</text><text fill="#000000" font-family="sans-serif" font-size="13" lengthAdjust="spacing" textLength="167" x="1318" y="1444.2529">fotografia: byte[]): Empleador</text><polygon fill="#181818" points="1916,1475.4609,1926,1479.4609,1916,1483.4609,1920,1479.4609" style="stroke:#181818;stroke-width:1.0;"/><line style="stroke:#181818;stroke-width:1.0;" x1="1612" x2="1922" y1="1479.4609" y2="1479.4609"/><text fill="#000000" font-family="sans-serif" font-size="13" lengthAdjust="spacing" textLength="292" x="1619" y="1474.6045">INSERT INTO fotografia(idOfertaEmpleo, fotografia)</text><path d="M1933,1492.4609 L1933,1534.4609 L2030,1534.4609 L2030,1502.4609 L2020,1492.4609 L1933,1492.4609 " fill="#FEFFDD" style="stroke:#181818;stroke-width:0.5;"/><path d="M2020,1492.4609 L2020,1502.4609 L2030,1502.4609 L2020,1492.4609 " fill="#FEFFDD" style="stroke:#181818;stroke-width:0.5;"/><text fill="#000000" font-family="sans-serif" font-size="13" font-weight="bold" lengthAdjust="spacing" textLength="76" x="1939" y="1510.9561">Status Code</text><text fill="#000000" font-family="sans-serif" font-size="13" lengthAdjust="spacing" textLength="21" x="1939" y="1527.3076">201</text><line style="stroke:#181818;stroke-width:1.0;" x1="1612" x2="1622" y1="1562.5156" y2="1558.5156"/><line style="stroke:#181818;stroke-width:1.0;" x1="1612" x2="1622" y1="1562.5156" y2="1566.5156"/><line style="stroke:#181818;stroke-width:1.0;stroke-dasharray:2.0,2.0;" x1="1612" x2="1927" y1="1562.5156" y2="1562.5156"/><text fill="#000000" font-family="sans-serif" font-size="13" lengthAdjust="spacing" textLength="53" x="1629" y="1557.6592">response</text><path d="M261,1577.5156 L322,1577.5156 L322,1585.8672 L312,1595.8672 L261,1595.8672 L261,1577.5156 " fill="#EEEEEE" style="stroke:#000000;stroke-width:1.5;"/><rect fill="none" height="533.6484" style="stroke:#000000;stroke-width:1.5;" width="1421.5" x="261" y="1577.5156"/><text fill="#000000" font-family="sans-serif" font-size="13" font-weight="bold" lengthAdjust="spacing" textLength="16" x="276" y="1592.0107">alt</text><text fill="#000000" font-family="sans-serif" font-size="11" font-weight="bold" lengthAdjust="spacing" textLength="123" x="337" y="1590.9346">[Fotografia registrada]</text><line style="stroke:#181818;stroke-width:1.0;" x1="1311" x2="1321" y1="1618.2188" y2="1614.2188"/><line style="stroke:#181818;stroke-width:1.0;" x1="1311" x2="1321" y1="1618.2188" y2="1622.2188"/><line style="stroke:#181818;stroke-width:1.0;" x1="1311" x2="1601" y1="1618.2188" y2="1618.2188"/><text fill="#000000" font-family="sans-serif" font-size="13" lengthAdjust="spacing" textLength="138" x="1328" y="1613.3623">callback(201, response)</text><line style="stroke:#181818;stroke-width:1.0;" x1="1010" x2="1020" y1="1648.5703" y2="1644.5703"/><line style="stroke:#181818;stroke-width:1.0;" x1="1010" x2="1020" y1="1648.5703" y2="1652.5703"/><line style="stroke:#181818;stroke-width:1.0;" x1="1010" x2="1300" y1="1648.5703" y2="1648.5703"/><text fill="#000000" font-family="sans-serif" font-size="13" lengthAdjust="spacing" textLength="138" x="1027" y="1643.7139">callback(201, response)</text><line style="stroke:#181818;stroke-width:1.0;" x1="667" x2="677" y1="1678.9219" y2="1674.9219"/><line style="stroke:#181818;stroke-width:1.0;" x1="667" x2="677" y1="1678.9219" y2="1682.9219"/><line style="stroke:#181818;stroke-width:1.0;stroke-dasharray:2.0,2.0;" x1="667" x2="999" y1="1678.9219" y2="1678.9219"/><text fill="#000000" font-family="sans-serif" font-size="13" font-weight="bold" lengthAdjust="spacing" textLength="60" x="684" y="1674.0654">CREATED</text><text fill="#000000" font-family="sans-serif" font-size="13" lengthAdjust="spacing" textLength="21" x="748" y="1674.0654">201</text><line style="stroke:#181818;stroke-width:1.0;" x1="384" x2="394" y1="1709.2734" y2="1705.2734"/><line style="stroke:#181818;stroke-width:1.0;" x1="384" x2="394" y1="1709.2734" y2="1713.2734"/><line style="stroke:#181818;stroke-width:1.0;stroke-dasharray:2.0,2.0;" x1="384" x2="656" y1="1709.2734" y2="1709.2734"/><text fill="#000000" font-family="sans-serif" font-size="13" lengthAdjust="spacing" textLength="110" x="401" y="1704.417">cambios :response</text><line style="stroke:#000000;stroke-width:1.0;stroke-dasharray:2.0,2.0;" x1="261" x2="1682.5" y1="1718.2734" y2="1718.2734"/><text fill="#000000" font-family="sans-serif" font-size="11" font-weight="bold" lengthAdjust="spacing" textLength="140" x="266" y="1729.6924">[Fotografia no registrada]</text><line style="stroke:#181818;stroke-width:1.0;" x1="1311" x2="1321" y1="1755.4609" y2="1751.4609"/><line style="stroke:#181818;stroke-width:1.0;" x1="1311" x2="1321" y1="1755.4609" y2="1759.4609"/><line style="stroke:#181818;stroke-width:1.0;" x1="1311" x2="1606" y1="1755.4609" y2="1755.4609"/><text fill="#000000" font-family="sans-serif" font-size="13" lengthAdjust="spacing" textLength="134" x="1328" y="1750.6045">callback(500, mensaje)</text><line style="stroke:#181818;stroke-width:1.0;" x1="1010" x2="1020" y1="1785.8125" y2="1781.8125"/><line style="stroke:#181818;stroke-width:1.0;" x1="1010" x2="1020" y1="1785.8125" y2="1789.8125"/><line style="stroke:#181818;stroke-width:1.0;" x1="1010" x2="1305" y1="1785.8125" y2="1785.8125"/><text fill="#000000" font-family="sans-serif" font-size="13" lengthAdjust="spacing" textLength="134" x="1027" y="1780.9561">callback(500, mensaje)</text><line style="stroke:#181818;stroke-width:1.0;" x1="667" x2="677" y1="1816.1641" y2="1812.1641"/><line style="stroke:#181818;stroke-width:1.0;" x1="667" x2="677" y1="1816.1641" y2="1820.1641"/><line style="stroke:#181818;stroke-width:1.0;stroke-dasharray:2.0,2.0;" x1="667" x2="1004" y1="1816.1641" y2="1816.1641"/><text fill="#000000" font-family="sans-serif" font-size="13" font-weight="bold" lengthAdjust="spacing" textLength="113" x="684" y="1811.3076">INTERNAL ERROR</text><text fill="#000000" font-family="sans-serif" font-size="13" lengthAdjust="spacing" textLength="21" x="801" y="1811.3076">500</text><line style="stroke:#181818;stroke-width:1.0;" x1="384" x2="394" y1="1846.5156" y2="1842.5156"/><line style="stroke:#181818;stroke-width:1.0;" x1="384" x2="394" y1="1846.5156" y2="1850.5156"/><line style="stroke:#181818;stroke-width:1.0;stroke-dasharray:2.0,2.0;" x1="384" x2="661" y1="1846.5156" y2="1846.5156"/><text fill="#000000" font-family="sans-serif" font-size="13" lengthAdjust="spacing" textLength="20" x="401" y="1841.6592">null</text><line style="stroke:#181818;stroke-width:1.0;" x1="384" x2="426" y1="1893.2188" y2="1893.2188"/><line style="stroke:#181818;stroke-width:1.0;" x1="426" x2="426" y1="1893.2188" y2="1906.2188"/><line style="stroke:#181818;stroke-width:1.0;" x1="385" x2="426" y1="1906.2188" y2="1906.2188"/><line style="stroke:#181818;stroke-width:1.0;" x1="385" x2="395" y1="1906.2188" y2="1902.2188"/><line style="stroke:#181818;stroke-width:1.0;" x1="385" x2="395" y1="1906.2188" y2="1910.2188"/><text fill="#000000" font-family="sans-serif" font-size="13" lengthAdjust="spacing" textLength="93" x="391" y="1872.0107">mostrarMensaje</text><text fill="#000000" font-family="sans-serif" font-size="13" lengthAdjust="spacing" textLength="124" x="391" y="1888.3623">RegistrarFotoFallido()</text><line style="stroke:#000000;stroke-width:1.0;stroke-dasharray:2.0,2.0;" x1="261" x2="1682.5" y1="1915.2188" y2="1915.2188"/><text fill="#000000" font-family="sans-serif" font-size="11" font-weight="bold" lengthAdjust="spacing" textLength="111" x="266" y="1926.6377">[Peticion incorrecta]</text><line style="stroke:#181818;stroke-width:1.0;" x1="1306" x2="1316" y1="1952.4063" y2="1948.4063"/><line style="stroke:#181818;stroke-width:1.0;" x1="1306" x2="1316" y1="1952.4063" y2="1956.4063"/><line style="stroke:#181818;stroke-width:1.0;" x1="1306" x2="1601" y1="1952.4063" y2="1952.4063"/><text fill="#000000" font-family="sans-serif" font-size="13" lengthAdjust="spacing" textLength="134" x="1323" y="1947.5498">callback(404, mensaje)</text><line style="stroke:#181818;stroke-width:1.0;" x1="1005" x2="1015" y1="1982.7578" y2="1978.7578"/><line style="stroke:#181818;stroke-width:1.0;" x1="1005" x2="1015" y1="1982.7578" y2="1986.7578"/><line style="stroke:#181818;stroke-width:1.0;" x1="1005" x2="1305" y1="1982.7578" y2="1982.7578"/><text fill="#000000" font-family="sans-serif" font-size="13" lengthAdjust="spacing" textLength="134" x="1022" y="1977.9014">callback(404, mensaje)</text><line style="stroke:#181818;stroke-width:1.0;" x1="662" x2="672" y1="2013.1094" y2="2009.1094"/><line style="stroke:#181818;stroke-width:1.0;" x1="662" x2="672" y1="2013.1094" y2="2017.1094"/><line style="stroke:#181818;stroke-width:1.0;stroke-dasharray:2.0,2.0;" x1="662" x2="1004" y1="2013.1094" y2="2013.1094"/><text fill="#000000" font-family="sans-serif" font-size="13" font-weight="bold" lengthAdjust="spacing" textLength="76" x="679" y="2008.2529">NOT FOUND</text><text fill="#000000" font-family="sans-serif" font-size="13" lengthAdjust="spacing" textLength="21" x="759" y="2008.2529">404</text><line style="stroke:#181818;stroke-width:1.0;" x1="384" x2="394" y1="2043.4609" y2="2039.4609"/><line style="stroke:#181818;stroke-width:1.0;" x1="384" x2="394" y1="2043.4609" y2="2047.4609"/><line style="stroke:#181818;stroke-width:1.0;stroke-dasharray:2.0,2.0;" x1="384" x2="661" y1="2043.4609" y2="2043.4609"/><text fill="#000000" font-family="sans-serif" font-size="13" lengthAdjust="spacing" textLength="20" x="401" y="2038.6045">null</text><line style="stroke:#181818;stroke-width:1.0;" x1="384" x2="426" y1="2090.1641" y2="2090.1641"/><line style="stroke:#181818;stroke-width:1.0;" x1="426" x2="426" y1="2090.1641" y2="2103.1641"/><line style="stroke:#181818;stroke-width:1.0;" x1="385" x2="426" y1="2103.1641" y2="2103.1641"/><line style="stroke:#181818;stroke-width:1.0;" x1="385" x2="395" y1="2103.1641" y2="2099.1641"/><line style="stroke:#181818;stroke-width:1.0;" x1="385" x2="395" y1="2103.1641" y2="2107.1641"/><text fill="#000000" font-family="sans-serif" font-size="13" lengthAdjust="spacing" textLength="93" x="391" y="2068.9561">mostrarMensaje</text><text fill="#000000" font-family="sans-serif" font-size="13" lengthAdjust="spacing" textLength="124" x="391" y="2085.3076">RegistrarFotoFallido()</text><line style="stroke:#181818;stroke-width:1.0;" x1="384" x2="426" y1="2140.5156" y2="2140.5156"/><line style="stroke:#181818;stroke-width:1.0;" x1="426" x2="426" y1="2140.5156" y2="2153.5156"/><line style="stroke:#181818;stroke-width:1.0;" x1="385" x2="426" y1="2153.5156" y2="2153.5156"/><line style="stroke:#181818;stroke-width:1.0;" x1="385" x2="395" y1="2153.5156" y2="2149.5156"/><line style="stroke:#181818;stroke-width:1.0;" x1="385" x2="395" y1="2153.5156" y2="2157.5156"/><text fill="#000000" font-family="sans-serif" font-size="13" lengthAdjust="spacing" textLength="259" x="391" y="2135.6592">actualizarCambios("Registrar oferta empleo")</text><line style="stroke:#181818;stroke-width:1.0;" x1="384" x2="426" y1="2200.2188" y2="2200.2188"/><line style="stroke:#181818;stroke-width:1.0;" x1="426" x2="426" y1="2200.2188" y2="2213.2188"/><line style="stroke:#181818;stroke-width:1.0;" x1="385" x2="426" y1="2213.2188" y2="2213.2188"/><line style="stroke:#181818;stroke-width:1.0;" x1="385" x2="395" y1="2213.2188" y2="2209.2188"/><line style="stroke:#181818;stroke-width:1.0;" x1="385" x2="395" y1="2213.2188" y2="2217.2188"/><text fill="#000000" font-family="sans-serif" font-size="13" lengthAdjust="spacing" textLength="93" x="391" y="2179.0107">mostrarMensaje</text><text fill="#000000" font-family="sans-serif" font-size="13" lengthAdjust="spacing" textLength="100" x="391" y="2195.3623">RegistroExitoso()</text><line style="stroke:#000000;stroke-width:1.0;stroke-dasharray:2.0,2.0;" x1="251" x2="2040" y1="2222.2188" y2="2222.2188"/><text fill="#000000" font-family="sans-serif" font-size="11" font-weight="bold" lengthAdjust="spacing" textLength="160" x="256" y="2233.6377">[OfertaEmpleo no registrada]</text><line style="stroke:#181818;stroke-width:1.0;" x1="1306" x2="1316" y1="2259.4063" y2="2255.4063"/><line style="stroke:#181818;stroke-width:1.0;" x1="1306" x2="1316" y1="2259.4063" y2="2263.4063"/><line style="stroke:#181818;stroke-width:1.0;" x1="1306" x2="1601" y1="2259.4063" y2="2259.4063"/><text fill="#000000" font-family="sans-serif" font-size="13" lengthAdjust="spacing" textLength="134" x="1323" y="2254.5498">callback(500, mensaje)</text><line style="stroke:#181818;stroke-width:1.0;" x1="1005" x2="1015" y1="2289.7578" y2="2285.7578"/><line style="stroke:#181818;stroke-width:1.0;" x1="1005" x2="1015" y1="2289.7578" y2="2293.7578"/><line style="stroke:#181818;stroke-width:1.0;" x1="1005" x2="1305" y1="2289.7578" y2="2289.7578"/><text fill="#000000" font-family="sans-serif" font-size="13" lengthAdjust="spacing" textLength="134" x="1022" y="2284.9014">callback(500, mensaje)</text><line style="stroke:#181818;stroke-width:1.0;" x1="662" x2="672" y1="2320.1094" y2="2316.1094"/><line style="stroke:#181818;stroke-width:1.0;" x1="662" x2="672" y1="2320.1094" y2="2324.1094"/><line style="stroke:#181818;stroke-width:1.0;stroke-dasharray:2.0,2.0;" x1="662" x2="1004" y1="2320.1094" y2="2320.1094"/><text fill="#000000" font-family="sans-serif" font-size="13" font-weight="bold" lengthAdjust="spacing" textLength="113" x="679" y="2315.2529">INTERNAL ERROR</text><text fill="#000000" font-family="sans-serif" font-size="13" lengthAdjust="spacing" textLength="21" x="796" y="2315.2529">500</text><line style="stroke:#181818;stroke-width:1.0;" x1="384" x2="394" y1="2350.4609" y2="2346.4609"/><line style="stroke:#181818;stroke-width:1.0;" x1="384" x2="394" y1="2350.4609" y2="2354.4609"/><line style="stroke:#181818;stroke-width:1.0;stroke-dasharray:2.0,2.0;" x1="384" x2="661" y1="2350.4609" y2="2350.4609"/><text fill="#000000" font-family="sans-serif" font-size="13" lengthAdjust="spacing" textLength="20" x="401" y="2345.6045">null</text><line style="stroke:#181818;stroke-width:1.0;" x1="384" x2="426" y1="2397.1641" y2="2397.1641"/><line style="stroke:#181818;stroke-width:1.0;" x1="426" x2="426" y1="2397.1641" y2="2410.1641"/><line style="stroke:#181818;stroke-width:1.0;" x1="385" x2="426" y1="2410.1641" y2="2410.1641"/><line style="stroke:#181818;stroke-width:1.0;" x1="385" x2="395" y1="2410.1641" y2="2406.1641"/><line style="stroke:#181818;stroke-width:1.0;" x1="385" x2="395" y1="2410.1641" y2="2414.1641"/><text fill="#000000" font-family="sans-serif" font-size="13" lengthAdjust="spacing" textLength="93" x="391" y="2375.9561">mostrarMensaje</text><text fill="#000000" font-family="sans-serif" font-size="13" lengthAdjust="spacing" textLength="98" x="391" y="2392.3076">RegistrarFallido()</text><line style="stroke:#000000;stroke-width:1.0;stroke-dasharray:2.0,2.0;" x1="251" x2="2040" y1="2419.1641" y2="2419.1641"/><text fill="#000000" font-family="sans-serif" font-size="11" font-weight="bold" lengthAdjust="spacing" textLength="111" x="256" y="2430.583">[Peticion incorrecta]</text><line style="stroke:#181818;stroke-width:1.0;" x1="1306" x2="1316" y1="2456.3516" y2="2452.3516"/><line style="stroke:#181818;stroke-width:1.0;" x1="1306" x2="1316" y1="2456.3516" y2="2460.3516"/><line style="stroke:#181818;stroke-width:1.0;" x1="1306" x2="1606" y1="2456.3516" y2="2456.3516"/><text fill="#000000" font-family="sans-serif" font-size="13" lengthAdjust="spacing" textLength="134" x="1323" y="2451.4951">callback(404, mensaje)</text><line style="stroke:#181818;stroke-width:1.0;" x1="1005" x2="1015" y1="2486.7031" y2="2482.7031"/><line style="stroke:#181818;stroke-width:1.0;" x1="1005" x2="1015" y1="2486.7031" y2="2490.7031"/><line style="stroke:#181818;stroke-width:1.0;" x1="1005" x2="1305" y1="2486.7031" y2="2486.7031"/><text fill="#000000" font-family="sans-serif" font-size="13" lengthAdjust="spacing" textLength="134" x="1022" y="2481.8467">callback(404, mensaje)</text><line style="stroke:#181818;stroke-width:1.0;" x1="662" x2="672" y1="2517.0547" y2="2513.0547"/><line style="stroke:#181818;stroke-width:1.0;" x1="662" x2="672" y1="2517.0547" y2="2521.0547"/><line style="stroke:#181818;stroke-width:1.0;stroke-dasharray:2.0,2.0;" x1="662" x2="1004" y1="2517.0547" y2="2517.0547"/><text fill="#000000" font-family="sans-serif" font-size="13" font-weight="bold" lengthAdjust="spacing" textLength="76" x="679" y="2512.1982">NOT FOUND</text><text fill="#000000" font-family="sans-serif" font-size="13" lengthAdjust="spacing" textLength="21" x="759" y="2512.1982">404</text><line style="stroke:#181818;stroke-width:1.0;" x1="384" x2="394" y1="2547.4063" y2="2543.4063"/><line style="stroke:#181818;stroke-width:1.0;" x1="384" x2="394" y1="2547.4063" y2="2551.4063"/><line style="stroke:#181818;stroke-width:1.0;stroke-dasharray:2.0,2.0;" x1="384" x2="661" y1="2547.4063" y2="2547.4063"/><text fill="#000000" font-family="sans-serif" font-size="13" lengthAdjust="spacing" textLength="20" x="401" y="2542.5498">null</text><line style="stroke:#181818;stroke-width:1.0;" x1="384" x2="426" y1="2594.1094" y2="2594.1094"/><line style="stroke:#181818;stroke-width:1.0;" x1="426" x2="426" y1="2594.1094" y2="2607.1094"/><line style="stroke:#181818;stroke-width:1.0;" x1="385" x2="426" y1="2607.1094" y2="2607.1094"/><line style="stroke:#181818;stroke-width:1.0;" x1="385" x2="395" y1="2607.1094" y2="2603.1094"/><line style="stroke:#181818;stroke-width:1.0;" x1="385" x2="395" y1="2607.1094" y2="2611.1094"/><text fill="#000000" font-family="sans-serif" font-size="13" lengthAdjust="spacing" textLength="93" x="391" y="2572.9014">mostrarMensaje</text><text fill="#000000" font-family="sans-serif" font-size="13" lengthAdjust="spacing" textLength="98" x="391" y="2589.2529">RegistrarFallido()</text><!--MD5=[ae094b9b9d3ca0e9d92c32a54c240597]
@startuml RegistrarOfertaEmpleo

box Cliente
    actor Empleador as a
    participant RegistroOfertaEmpleo as b <<GUI>> 
    participant RegistroOfertaEmpleoController as c <<Controller>>
    participant OfertaEmpleoDAO as d <<DAO>>
end box

box Servidor
    participant ElCamelloAPI as e <<API>>
    participant GestionOfertasEmpleo as f <<Componente>>
    participant OfertaEmpleoDAO as g <<DAO>>
    database elCamelloDB as db
end box

a -> b : capturarDatos()
activate a
activate b

b -> c : btnguardarOfertaEmpleo_Click()
activate c

c -> d : PostOfertaEmpleo(\nofertaEmpleoNueva: OfertaEmpleo,\ntoken: string): Empleador
activate d

note right of d  
**headers**
x-access-token: string

end note

note right of d  
**payload**
idCategoriaEmpleo: int
nombre: string
Descripcion: string
Vacantes: int
DiasLaborales: string,
TipoPago: string,
CantidadPago: int,
Direccion: string,
horaInicio: time,
horaFin: time, 
fechaInicio: date, 
fechaFinalizacion: date
idPerfilEmpleador: int

end note

d -> e : **POST** /ofertasEmpleo-E
activate e

e -> f : postOfertaEmpleo(\nidEmpleador: int, \nofertaEmpleoNueva: OfertaEmpleo): Empleador
activate f

f -> g : postOfertaEmpleo(\nidEmpleador: int, \nofertaEmpleoNueva: OfertaEmpleo): Empleador
activate g

g -> db : INSERT INTO oferta_empleo(\nidCategoriaEmpleo, \nnombre, \nDescripcion,\nVacantes,\nDiasLaborales,\nTipoPago,\nCantidadPago,\nDireccion,\nhoraInicio,\nhoraFin, \nfechaInicio, \nfechaFinalizacion)
activate db

note right of db  
**PAYLOAD**
idOfertaEmpleo: int
end note

db - ->> g : response
deactivate db

alt OfertaEmpleo registrada
    g ->> f : callback(201, response)
    
    f ->> e : callback(201, response)

    e - ->> d: **CREATED** 201
    d - ->> c: idOfertaEmpleo :response

    c -> d : PostFotografiasOfertaEmpleo(\nidOfertaEmpleo: OfertaEmpleo,\nfotografias: List<byte[]>): Empleador

    note right of d  
    **payload**
    fotografia: byte[]
    end note

    d -> e : **POST** /ofertasEmpleo-E/:idOfertaEmpleo/fotografia

    e -> f : postFotografiaOfertaEmpleo(\nidOfertaEmpleo: int, \nfotografia: byte[]): Empleador

    f -> g : postFotografiaOfertaEmpleo(\nidOfertaEmpleo: int, \nfotografia: byte[]): Empleador

    g -> db : INSERT INTO fotografia(idOfertaEmpleo, fotografia)

    note right of db  
    **Status Code**
    201
    end note

    db - ->> g : response
    deactivate db

    alt Fotografia registrada
        g ->> f : callback(201, response)
        
        f ->> e : callback(201, response)

        e - ->> d: **CREATED** 201
        d - ->> c: cambios :response

    else Fotografia no registrada
        g ->> f : callback(500, mensaje)
        activate g

        f ->> e : callback(500, mensaje)
        deactivate f

        e - ->> d: **INTERNAL ERROR** 500
        deactivate e

        d - ->> c: null
        deactivate d

        c ->> c: mostrarMensaje\nRegistrarFotoFallido()
    else Peticion incorrecta
        g ->> f : callback(404, mensaje)
        deactivate g

        f ->> e : callback(404, mensaje)
        deactivate f

        e - ->> d: **NOT FOUND** 404
        deactivate e

        d - ->> c: null
        deactivate d

        c ->> c: mostrarMensaje\nRegistrarFotoFallido()

    end

    c ->> c: actualizarCambios("Registrar oferta empleo")
    c ->> c: mostrarMensaje\nRegistroExitoso()
else OfertaEmpleo no registrada
    g ->> f : callback(500, mensaje)

    f ->> e : callback(500, mensaje)

    e - ->> d: **INTERNAL ERROR** 500

    d - ->> c: null

    c ->> c: mostrarMensaje\nRegistrarFallido()
else Peticion incorrecta
    g ->> f : callback(404, mensaje)
    deactivate g

    f ->> e : callback(404, mensaje)
    deactivate f

    e - ->> d: **NOT FOUND** 404
    deactivate e

    d - ->> c: null
    deactivate d

    c ->> c: mostrarMensaje\nRegistrarFallido()

end


@enduml

PlantUML version 1.2022.5(Sat Apr 30 05:55:52 CDT 2022)
(GPL source distribution)
Java Runtime: OpenJDK Runtime Environment
JVM: OpenJDK 64-Bit Server VM
Default Encoding: Cp1252
Language: es
Country: MX
--></g></svg>