<?xml version="1.0" encoding="UTF-8" standalone="no"?><svg xmlns="http://www.w3.org/2000/svg" xmlns:xlink="http://www.w3.org/1999/xlink" contentStyleType="text/css" height="2605px" preserveAspectRatio="none" style="width:2172px;height:2605px;background:#FFFFFF;" version="1.1" viewBox="0 0 2172 2605" width="2172px" zoomAndPan="magnify"><defs/><g><rect fill="#DDDDDD" height="2593.4688" style="stroke:#181818;stroke-width:0.5;" width="576" x="1" y="6"/><text fill="#000000" font-family="sans-serif" font-size="13" font-weight="bold" lengthAdjust="spacing" textLength="45" x="266.5" y="19.4951">Cliente</text><rect fill="#DDDDDD" height="2593.4688" style="stroke:#181818;stroke-width:0.5;" width="1283.5" x="757.5" y="6"/><text fill="#000000" font-family="sans-serif" font-size="13" font-weight="bold" lengthAdjust="spacing" textLength="54" x="1372.25" y="19.4951">Servidor</text><rect fill="#FFFFFF" height="2373.5469" style="stroke:#181818;stroke-width:1.0;" width="10" x="43.5" y="136.3125"/><rect fill="#FFFFFF" height="2373.5469" style="stroke:#181818;stroke-width:1.0;" width="10" x="181.5" y="136.3125"/><rect fill="#FFFFFF" height="2343.1953" style="stroke:#181818;stroke-width:1.0;" width="10" x="344.5" y="166.6641"/><rect fill="#FFFFFF" height="1724.7109" style="stroke:#181818;stroke-width:1.0;" width="10" x="505.5" y="709.4453"/><rect fill="#FFFFFF" height="1770.0625" style="stroke:#181818;stroke-width:1.0;" width="10" x="805.5" y="739.7969"/><rect fill="#FFFFFF" height="849.0078" style="stroke:#181818;stroke-width:1.0;" width="10" x="1102.5" y="770.1484"/><rect fill="#FFFFFF" height="639.1953" style="stroke:#181818;stroke-width:1.0;" width="10" x="1399.5" y="800.5"/><rect fill="#FFFFFF" height="1433.8438" style="stroke:#181818;stroke-width:1.0;" width="10" x="1737.5" y="939.6094"/><rect fill="#FFFFFF" height="811.6563" style="stroke:#181818;stroke-width:1.0;" width="10" x="1988.5" y="969.9609"/><rect height="304.3203" style="stroke:#000000;stroke-width:1.5;fill:none;" width="257.5" x="253" y="359.4219"/><rect height="271.9688" style="stroke:#000000;stroke-width:1.5;fill:none;" width="237.5" x="263" y="384.7734"/><rect height="1016.8125" style="stroke:#000000;stroke-width:1.5;fill:none;" width="1874" x="253" y="1485.0469"/><rect height="214.2969" style="stroke:#000000;stroke-width:1.5;fill:none;" width="320" x="263" y="1947.375"/><line style="stroke:#181818;stroke-width:0.5;fill:none;stroke-dasharray:5.0,5.0;" x1="48" x2="48" y1="103.9609" y2="2518.8594"/><line style="stroke:#181818;stroke-width:0.5;fill:none;stroke-dasharray:5.0,5.0;" x1="186" x2="186" y1="103.9609" y2="2518.8594"/><line style="stroke:#181818;stroke-width:0.5;fill:none;stroke-dasharray:5.0,5.0;" x1="349" x2="349" y1="103.9609" y2="2518.8594"/><line style="stroke:#181818;stroke-width:0.5;fill:none;stroke-dasharray:5.0,5.0;" x1="510" x2="510" y1="103.9609" y2="2518.8594"/><line style="stroke:#181818;stroke-width:0.5;fill:none;stroke-dasharray:5.0,5.0;" x1="810.5" x2="810.5" y1="103.9609" y2="2518.8594"/><line style="stroke:#181818;stroke-width:0.5;fill:none;stroke-dasharray:5.0,5.0;" x1="1107.5" x2="1107.5" y1="103.9609" y2="2518.8594"/><line style="stroke:#181818;stroke-width:0.5;fill:none;stroke-dasharray:5.0,5.0;" x1="1404.5" x2="1404.5" y1="103.9609" y2="2518.8594"/><line style="stroke:#181818;stroke-width:0.5;fill:none;stroke-dasharray:5.0,5.0;" x1="1742.5" x2="1742.5" y1="103.9609" y2="2518.8594"/><line style="stroke:#181818;stroke-width:0.5;fill:none;stroke-dasharray:5.0,5.0;" x1="1993" x2="1993" y1="103.9609" y2="2518.8594"/><text fill="#000000" font-family="sans-serif" font-size="14" lengthAdjust="spacing" textLength="81" x="5" y="100.8848">Demandante</text><ellipse cx="48.5" cy="34.8516" fill="#E2E2F0" rx="8" ry="8" style="stroke:#181818;stroke-width:0.5;"/><path d="M48.5,42.8516 L48.5,69.8516 M35.5,50.8516 L61.5,50.8516 M48.5,69.8516 L35.5,84.8516 M48.5,69.8516 L61.5,84.8516 " fill="none" style="stroke:#181818;stroke-width:0.5;"/><text fill="#000000" font-family="sans-serif" font-size="14" lengthAdjust="spacing" textLength="81" x="5" y="2532.3926">Demandante</text><ellipse cx="48.5" cy="2543.9688" fill="#E2E2F0" rx="8" ry="8" style="stroke:#181818;stroke-width:0.5;"/><path d="M48.5,2551.9688 L48.5,2578.9688 M35.5,2559.9688 L61.5,2559.9688 M48.5,2578.9688 L35.5,2593.9688 M48.5,2578.9688 L61.5,2593.9688 " fill="none" style="stroke:#181818;stroke-width:0.5;"/><rect fill="#E2E2F0" height="49.2188" rx="2.5" ry="2.5" style="stroke:#181818;stroke-width:0.5;" width="153" x="110" y="53.7422"/><text fill="#000000" font-family="sans-serif" font-size="14" font-style="italic" lengthAdjust="spacing" textLength="41" x="166" y="75.2754">«GUI»</text><text fill="#000000" font-family="sans-serif" font-size="14" lengthAdjust="spacing" textLength="139" x="117" y="92.8848">RegistrarDemandante</text><rect fill="#E2E2F0" height="49.2188" rx="2.5" ry="2.5" style="stroke:#181818;stroke-width:0.5;" width="153" x="110" y="2517.8594"/><text fill="#000000" font-family="sans-serif" font-size="14" font-style="italic" lengthAdjust="spacing" textLength="41" x="166" y="2539.3926">«GUI»</text><text fill="#000000" font-family="sans-serif" font-size="14" lengthAdjust="spacing" textLength="139" x="117" y="2557.002">RegistrarDemandante</text><rect fill="#E2E2F0" height="49.2188" rx="2.5" ry="2.5" style="stroke:#181818;stroke-width:0.5;" width="153" x="273" y="53.7422"/><text fill="#000000" font-family="sans-serif" font-size="14" font-style="italic" lengthAdjust="spacing" textLength="78" x="310.5" y="75.2754">«Controller»</text><text fill="#000000" font-family="sans-serif" font-size="14" lengthAdjust="spacing" textLength="139" x="280" y="92.8848">RegistrarDemandante</text><rect fill="#E2E2F0" height="49.2188" rx="2.5" ry="2.5" style="stroke:#181818;stroke-width:0.5;" width="153" x="273" y="2517.8594"/><text fill="#000000" font-family="sans-serif" font-size="14" font-style="italic" lengthAdjust="spacing" textLength="78" x="310.5" y="2539.3926">«Controller»</text><text fill="#000000" font-family="sans-serif" font-size="14" lengthAdjust="spacing" textLength="139" x="280" y="2557.002">RegistrarDemandante</text><rect fill="#E2E2F0" height="49.2188" rx="2.5" ry="2.5" style="stroke:#181818;stroke-width:0.5;" width="125" x="448" y="53.7422"/><text fill="#000000" font-family="sans-serif" font-size="14" font-style="italic" lengthAdjust="spacing" textLength="46" x="487.5" y="75.2754">«DAO»</text><text fill="#000000" font-family="sans-serif" font-size="14" lengthAdjust="spacing" textLength="111" x="455" y="92.8848">DemandanteDAO</text><rect fill="#E2E2F0" height="49.2188" rx="2.5" ry="2.5" style="stroke:#181818;stroke-width:0.5;" width="125" x="448" y="2517.8594"/><text fill="#000000" font-family="sans-serif" font-size="14" font-style="italic" lengthAdjust="spacing" textLength="46" x="487.5" y="2539.3926">«DAO»</text><text fill="#000000" font-family="sans-serif" font-size="14" lengthAdjust="spacing" textLength="111" x="455" y="2557.002">DemandanteDAO</text><rect fill="#E2E2F0" height="49.2188" rx="2.5" ry="2.5" style="stroke:#181818;stroke-width:0.5;" width="98" x="761.5" y="53.7422"/><text fill="#000000" font-family="sans-serif" font-size="14" font-style="italic" lengthAdjust="spacing" textLength="38" x="791.5" y="75.2754">«API»</text><text fill="#000000" font-family="sans-serif" font-size="14" lengthAdjust="spacing" textLength="84" x="768.5" y="92.8848">ElCamelloAPI</text><rect fill="#E2E2F0" height="49.2188" rx="2.5" ry="2.5" style="stroke:#181818;stroke-width:0.5;" width="98" x="761.5" y="2517.8594"/><text fill="#000000" font-family="sans-serif" font-size="14" font-style="italic" lengthAdjust="spacing" textLength="38" x="791.5" y="2539.3926">«API»</text><text fill="#000000" font-family="sans-serif" font-size="14" lengthAdjust="spacing" textLength="84" x="768.5" y="2557.002">ElCamelloAPI</text><rect fill="#E2E2F0" height="49.2188" rx="2.5" ry="2.5" style="stroke:#181818;stroke-width:0.5;" width="118" x="1048.5" y="53.7422"/><text fill="#000000" font-family="sans-serif" font-size="14" font-style="italic" lengthAdjust="spacing" textLength="97" x="1059" y="75.2754">«Componente»</text><text fill="#000000" font-family="sans-serif" font-size="14" lengthAdjust="spacing" textLength="104" x="1055.5" y="92.8848">GestionUsuarios</text><rect fill="#E2E2F0" height="49.2188" rx="2.5" ry="2.5" style="stroke:#181818;stroke-width:0.5;" width="118" x="1048.5" y="2517.8594"/><text fill="#000000" font-family="sans-serif" font-size="14" font-style="italic" lengthAdjust="spacing" textLength="97" x="1059" y="2539.3926">«Componente»</text><text fill="#000000" font-family="sans-serif" font-size="14" lengthAdjust="spacing" textLength="104" x="1055.5" y="2557.002">GestionUsuarios</text><rect fill="#E2E2F0" height="49.2188" rx="2.5" ry="2.5" style="stroke:#181818;stroke-width:0.5;" width="130" x="1339.5" y="53.7422"/><text fill="#000000" font-family="sans-serif" font-size="14" font-style="italic" lengthAdjust="spacing" textLength="46" x="1381.5" y="75.2754">«DAO»</text><text fill="#000000" font-family="sans-serif" font-size="14" lengthAdjust="spacing" textLength="116" x="1346.5" y="92.8848">DermandanteDAO</text><rect fill="#E2E2F0" height="49.2188" rx="2.5" ry="2.5" style="stroke:#181818;stroke-width:0.5;" width="130" x="1339.5" y="2517.8594"/><text fill="#000000" font-family="sans-serif" font-size="14" font-style="italic" lengthAdjust="spacing" textLength="46" x="1381.5" y="2539.3926">«DAO»</text><text fill="#000000" font-family="sans-serif" font-size="14" lengthAdjust="spacing" textLength="116" x="1346.5" y="2557.002">DermandanteDAO</text><rect fill="#E2E2F0" height="49.2188" rx="2.5" ry="2.5" style="stroke:#181818;stroke-width:0.5;" width="92" x="1696.5" y="53.7422"/><text fill="#000000" font-family="sans-serif" font-size="14" font-style="italic" lengthAdjust="spacing" textLength="46" x="1719.5" y="75.2754">«DAO»</text><text fill="#000000" font-family="sans-serif" font-size="14" lengthAdjust="spacing" textLength="78" x="1703.5" y="92.8848">UsuarioDAO</text><rect fill="#E2E2F0" height="49.2188" rx="2.5" ry="2.5" style="stroke:#181818;stroke-width:0.5;" width="92" x="1696.5" y="2517.8594"/><text fill="#000000" font-family="sans-serif" font-size="14" font-style="italic" lengthAdjust="spacing" textLength="46" x="1719.5" y="2539.3926">«DAO»</text><text fill="#000000" font-family="sans-serif" font-size="14" lengthAdjust="spacing" textLength="78" x="1703.5" y="2557.002">UsuarioDAO</text><text fill="#000000" font-family="sans-serif" font-size="14" lengthAdjust="spacing" textLength="81" x="1950" y="100.8848">elCamelloDB</text><path d="M1975.5,50.3516 C1975.5,40.3516 1993.5,40.3516 1993.5,40.3516 C1993.5,40.3516 2011.5,40.3516 2011.5,50.3516 L2011.5,76.3516 C2011.5,86.3516 1993.5,86.3516 1993.5,86.3516 C1993.5,86.3516 1975.5,86.3516 1975.5,76.3516 L1975.5,50.3516 " fill="#E2E2F0" style="stroke:#181818;stroke-width:1.5;"/><path d="M1975.5,50.3516 C1975.5,60.3516 1993.5,60.3516 1993.5,60.3516 C1993.5,60.3516 2011.5,60.3516 2011.5,50.3516 " fill="none" style="stroke:#181818;stroke-width:1.5;"/><text fill="#000000" font-family="sans-serif" font-size="14" lengthAdjust="spacing" textLength="81" x="1950" y="2532.3926">elCamelloDB</text><path d="M1975.5,2545.4688 C1975.5,2535.4688 1993.5,2535.4688 1993.5,2535.4688 C1993.5,2535.4688 2011.5,2535.4688 2011.5,2545.4688 L2011.5,2571.4688 C2011.5,2581.4688 1993.5,2581.4688 1993.5,2581.4688 C1993.5,2581.4688 1975.5,2581.4688 1975.5,2571.4688 L1975.5,2545.4688 " fill="#E2E2F0" style="stroke:#181818;stroke-width:1.5;"/><path d="M1975.5,2545.4688 C1975.5,2555.4688 1993.5,2555.4688 1993.5,2555.4688 C1993.5,2555.4688 2011.5,2555.4688 2011.5,2545.4688 " fill="none" style="stroke:#181818;stroke-width:1.5;"/><rect fill="#FFFFFF" height="2373.5469" style="stroke:#181818;stroke-width:1.0;" width="10" x="43.5" y="136.3125"/><rect fill="#FFFFFF" height="2373.5469" style="stroke:#181818;stroke-width:1.0;" width="10" x="181.5" y="136.3125"/><rect fill="#FFFFFF" height="2343.1953" style="stroke:#181818;stroke-width:1.0;" width="10" x="344.5" y="166.6641"/><rect fill="#FFFFFF" height="1724.7109" style="stroke:#181818;stroke-width:1.0;" width="10" x="505.5" y="709.4453"/><rect fill="#FFFFFF" height="1770.0625" style="stroke:#181818;stroke-width:1.0;" width="10" x="805.5" y="739.7969"/><rect fill="#FFFFFF" height="849.0078" style="stroke:#181818;stroke-width:1.0;" width="10" x="1102.5" y="770.1484"/><rect fill="#FFFFFF" height="639.1953" style="stroke:#181818;stroke-width:1.0;" width="10" x="1399.5" y="800.5"/><rect fill="#FFFFFF" height="1433.8438" style="stroke:#181818;stroke-width:1.0;" width="10" x="1737.5" y="939.6094"/><rect fill="#FFFFFF" height="811.6563" style="stroke:#181818;stroke-width:1.0;" width="10" x="1988.5" y="969.9609"/><polygon fill="#181818" points="169.5,132.3125,179.5,136.3125,169.5,140.3125,173.5,136.3125" style="stroke:#181818;stroke-width:1.0;"/><line style="stroke:#181818;stroke-width:1.0;" x1="53.5" x2="175.5" y1="136.3125" y2="136.3125"/><text fill="#000000" font-family="sans-serif" font-size="13" lengthAdjust="spacing" textLength="114" x="60.5" y="131.4561">btnSiguiente_click()</text><polygon fill="#181818" points="332.5,162.6641,342.5,166.6641,332.5,170.6641,336.5,166.6641" style="stroke:#181818;stroke-width:1.0;"/><line style="stroke:#181818;stroke-width:1.0;" x1="191.5" x2="338.5" y1="166.6641" y2="166.6641"/><text fill="#000000" font-family="sans-serif" font-size="13" lengthAdjust="spacing" textLength="94" x="198.5" y="161.8076">CargarVentana()</text><line style="stroke:#181818;stroke-width:1.0;" x1="354.5" x2="396.5" y1="197.0156" y2="197.0156"/><line style="stroke:#181818;stroke-width:1.0;" x1="396.5" x2="396.5" y1="197.0156" y2="210.0156"/><line style="stroke:#181818;stroke-width:1.0;" x1="355.5" x2="396.5" y1="210.0156" y2="210.0156"/><line style="stroke:#181818;stroke-width:1.0;" x1="355.5" x2="365.5" y1="210.0156" y2="206.0156"/><line style="stroke:#181818;stroke-width:1.0;" x1="355.5" x2="365.5" y1="210.0156" y2="214.0156"/><text fill="#000000" font-family="sans-serif" font-size="13" lengthAdjust="spacing" textLength="94" x="361.5" y="192.1592">CargarVentana()</text><polygon fill="#181818" points="169.5,236.3672,179.5,240.3672,169.5,244.3672,173.5,240.3672" style="stroke:#181818;stroke-width:1.0;"/><line style="stroke:#181818;stroke-width:1.0;" x1="53.5" x2="175.5" y1="240.3672" y2="240.3672"/><text fill="#000000" font-family="sans-serif" font-size="13" lengthAdjust="spacing" textLength="81" x="60.5" y="235.5107">capturarDatos</text><polygon fill="#181818" points="169.5,266.7188,179.5,270.7188,169.5,274.7188,173.5,270.7188" style="stroke:#181818;stroke-width:1.0;"/><line style="stroke:#181818;stroke-width:1.0;" x1="53.5" x2="175.5" y1="270.7188" y2="270.7188"/><text fill="#000000" font-family="sans-serif" font-size="13" lengthAdjust="spacing" textLength="100" x="60.5" y="265.8623">btnGuardar_Click</text><polygon fill="#181818" points="332.5,297.0703,342.5,301.0703,332.5,305.0703,336.5,301.0703" style="stroke:#181818;stroke-width:1.0;"/><line style="stroke:#181818;stroke-width:1.0;" x1="191.5" x2="338.5" y1="301.0703" y2="301.0703"/><text fill="#000000" font-family="sans-serif" font-size="13" lengthAdjust="spacing" textLength="100" x="198.5" y="296.2139">btnGuardar_Click</text><line style="stroke:#181818;stroke-width:1.0;" x1="354.5" x2="396.5" y1="331.4219" y2="331.4219"/><line style="stroke:#181818;stroke-width:1.0;" x1="396.5" x2="396.5" y1="331.4219" y2="344.4219"/><line style="stroke:#181818;stroke-width:1.0;" x1="355.5" x2="396.5" y1="344.4219" y2="344.4219"/><line style="stroke:#181818;stroke-width:1.0;" x1="355.5" x2="365.5" y1="344.4219" y2="340.4219"/><line style="stroke:#181818;stroke-width:1.0;" x1="355.5" x2="365.5" y1="344.4219" y2="348.4219"/><text fill="#000000" font-family="sans-serif" font-size="13" lengthAdjust="spacing" textLength="137" x="361.5" y="326.5654">validarCampos(isNuevo)</text><path d="M253,359.4219 L326,359.4219 L326,367.7734 L316,377.7734 L253,377.7734 L253,359.4219 " fill="#EEEEEE" style="stroke:#000000;stroke-width:1.5;"/><rect fill="none" height="304.3203" style="stroke:#000000;stroke-width:1.5;" width="257.5" x="253" y="359.4219"/><text fill="#000000" font-family="sans-serif" font-size="13" font-weight="bold" lengthAdjust="spacing" textLength="28" x="268" y="373.917">loop</text><text fill="#000000" font-family="sans-serif" font-size="11" font-weight="bold" lengthAdjust="spacing" textLength="135" x="341" y="372.8408">[validarCampos == false]</text><path d="M263,384.7734 L324,384.7734 L324,393.125 L314,403.125 L263,403.125 L263,384.7734 " fill="#EEEEEE" style="stroke:#000000;stroke-width:1.5;"/><rect fill="none" height="271.9688" style="stroke:#000000;stroke-width:1.5;" width="237.5" x="263" y="384.7734"/><text fill="#000000" font-family="sans-serif" font-size="13" font-weight="bold" lengthAdjust="spacing" textLength="16" x="278" y="399.2686">alt</text><text fill="#000000" font-family="sans-serif" font-size="11" font-weight="bold" lengthAdjust="spacing" textLength="89" x="339" y="398.1924">[camposVacios]</text><line style="stroke:#181818;stroke-width:1.0;" x1="354.5" x2="396.5" y1="441.8281" y2="441.8281"/><line style="stroke:#181818;stroke-width:1.0;" x1="396.5" x2="396.5" y1="441.8281" y2="454.8281"/><line style="stroke:#181818;stroke-width:1.0;" x1="355.5" x2="396.5" y1="454.8281" y2="454.8281"/><line style="stroke:#181818;stroke-width:1.0;" x1="355.5" x2="365.5" y1="454.8281" y2="450.8281"/><line style="stroke:#181818;stroke-width:1.0;" x1="355.5" x2="365.5" y1="454.8281" y2="458.8281"/><text fill="#000000" font-family="sans-serif" font-size="13" lengthAdjust="spacing" textLength="49" x="361.5" y="420.6201">mensaje</text><text fill="#000000" font-family="sans-serif" font-size="13" lengthAdjust="spacing" textLength="88" x="361.5" y="436.9717">CamposVacios</text><line style="stroke:#000000;stroke-width:1.0;stroke-dasharray:2.0,2.0;" x1="263" x2="500.5" y1="463.8281" y2="463.8281"/><text fill="#000000" font-family="sans-serif" font-size="11" font-weight="bold" lengthAdjust="spacing" textLength="90" x="268" y="475.2471">[fotografiaVacia]</text><line style="stroke:#181818;stroke-width:1.0;" x1="354.5" x2="396.5" y1="517.3672" y2="517.3672"/><line style="stroke:#181818;stroke-width:1.0;" x1="396.5" x2="396.5" y1="517.3672" y2="530.3672"/><line style="stroke:#181818;stroke-width:1.0;" x1="355.5" x2="396.5" y1="530.3672" y2="530.3672"/><line style="stroke:#181818;stroke-width:1.0;" x1="355.5" x2="365.5" y1="530.3672" y2="526.3672"/><line style="stroke:#181818;stroke-width:1.0;" x1="355.5" x2="365.5" y1="530.3672" y2="534.3672"/><text fill="#000000" font-family="sans-serif" font-size="13" lengthAdjust="spacing" textLength="49" x="361.5" y="496.1592">mensaje</text><text fill="#000000" font-family="sans-serif" font-size="13" lengthAdjust="spacing" textLength="90" x="361.5" y="512.5107">FotografiaVacia</text><line style="stroke:#000000;stroke-width:1.0;stroke-dasharray:2.0,2.0;" x1="263" x2="500.5" y1="539.3672" y2="539.3672"/><text fill="#000000" font-family="sans-serif" font-size="11" font-weight="bold" lengthAdjust="spacing" textLength="68" x="268" y="550.7861">[videoVacio]</text><line style="stroke:#181818;stroke-width:1.0;" x1="354.5" x2="396.5" y1="576.5547" y2="576.5547"/><line style="stroke:#181818;stroke-width:1.0;" x1="396.5" x2="396.5" y1="576.5547" y2="589.5547"/><line style="stroke:#181818;stroke-width:1.0;" x1="355.5" x2="396.5" y1="589.5547" y2="589.5547"/><line style="stroke:#181818;stroke-width:1.0;" x1="355.5" x2="365.5" y1="589.5547" y2="585.5547"/><line style="stroke:#181818;stroke-width:1.0;" x1="355.5" x2="365.5" y1="589.5547" y2="593.5547"/><text fill="#000000" font-family="sans-serif" font-size="13" lengthAdjust="spacing" textLength="115" x="361.5" y="571.6982">mensajeVideoVacio</text><line style="stroke:#000000;stroke-width:1.0;stroke-dasharray:2.0,2.0;" x1="263" x2="500.5" y1="598.5547" y2="598.5547"/><text fill="#000000" font-family="sans-serif" font-size="11" font-weight="bold" lengthAdjust="spacing" textLength="79" x="268" y="609.9736">[fechaInvalida]</text><line style="stroke:#181818;stroke-width:1.0;" x1="354.5" x2="396.5" y1="635.7422" y2="635.7422"/><line style="stroke:#181818;stroke-width:1.0;" x1="396.5" x2="396.5" y1="635.7422" y2="648.7422"/><line style="stroke:#181818;stroke-width:1.0;" x1="355.5" x2="396.5" y1="648.7422" y2="648.7422"/><line style="stroke:#181818;stroke-width:1.0;" x1="355.5" x2="365.5" y1="648.7422" y2="644.7422"/><line style="stroke:#181818;stroke-width:1.0;" x1="355.5" x2="365.5" y1="648.7422" y2="652.7422"/><text fill="#000000" font-family="sans-serif" font-size="13" lengthAdjust="spacing" textLength="127" x="361.5" y="630.8857">mensajeFechaInvalida</text><polygon fill="#181818" points="493.5,705.4453,503.5,709.4453,493.5,713.4453,497.5,709.4453" style="stroke:#181818;stroke-width:1.0;"/><line style="stroke:#181818;stroke-width:1.0;" x1="354.5" x2="499.5" y1="709.4453" y2="709.4453"/><text fill="#000000" font-family="sans-serif" font-size="13" lengthAdjust="spacing" textLength="100" x="361.5" y="688.2373">PostDemandante</text><text fill="#000000" font-family="sans-serif" font-size="13" lengthAdjust="spacing" textLength="129" x="361.5" y="704.5889">(usuario, demandante)</text><polygon fill="#181818" points="793.5,735.7969,803.5,739.7969,793.5,743.7969,797.5,739.7969" style="stroke:#181818;stroke-width:1.0;"/><line style="stroke:#181818;stroke-width:1.0;" x1="515.5" x2="799.5" y1="739.7969" y2="739.7969"/><text fill="#000000" font-family="sans-serif" font-size="13" font-weight="bold" lengthAdjust="spacing" textLength="36" x="522.5" y="734.9404">POST</text><text fill="#000000" font-family="sans-serif" font-size="13" lengthAdjust="spacing" textLength="127" x="562.5" y="734.9404">/perfilDemandantes</text><polygon fill="#181818" points="1090.5,766.1484,1100.5,770.1484,1090.5,774.1484,1094.5,770.1484" style="stroke:#181818;stroke-width:1.0;"/><line style="stroke:#181818;stroke-width:1.0;" x1="815.5" x2="1096.5" y1="770.1484" y2="770.1484"/><text fill="#000000" font-family="sans-serif" font-size="13" lengthAdjust="spacing" textLength="268" x="822.5" y="765.292">postDemandante(demandanteNuevo, callback)</text><polygon fill="#181818" points="1387.5,796.5,1397.5,800.5,1387.5,804.5,1391.5,800.5" style="stroke:#181818;stroke-width:1.0;"/><line style="stroke:#181818;stroke-width:1.0;" x1="1112.5" x2="1393.5" y1="800.5" y2="800.5"/><text fill="#000000" font-family="sans-serif" font-size="13" lengthAdjust="spacing" textLength="268" x="1119.5" y="795.6436">postDemandante(demandanteNuevo, callback)</text><line style="stroke:#181818;stroke-width:1.0;" x1="1409.5" x2="1451.5" y1="879.9063" y2="879.9063"/><line style="stroke:#181818;stroke-width:1.0;" x1="1451.5" x2="1451.5" y1="879.9063" y2="892.9063"/><line style="stroke:#181818;stroke-width:1.0;" x1="1410.5" x2="1451.5" y1="892.9063" y2="892.9063"/><line style="stroke:#181818;stroke-width:1.0;" x1="1410.5" x2="1420.5" y1="892.9063" y2="888.9063"/><line style="stroke:#181818;stroke-width:1.0;" x1="1410.5" x2="1420.5" y1="892.9063" y2="896.9063"/><text fill="#000000" font-family="sans-serif" font-size="13" lengthAdjust="spacing" textLength="109" x="1416.5" y="825.9951">comprobarRegistro</text><text fill="#000000" font-family="sans-serif" font-size="13" lengthAdjust="spacing" textLength="194" x="1416.5" y="842.3467">(empleadorNuevo.nombreUsuario,</text><text fill="#000000" font-family="sans-serif" font-size="13" lengthAdjust="spacing" textLength="204" x="1416.5" y="858.6982">empleadorNuevo.correoElectronico,</text><text fill="#000000" font-family="sans-serif" font-size="13" lengthAdjust="spacing" textLength="314" x="1416.5" y="875.0498">function (codigoRespuesta, cuerpoRespuestaRegistro)</text><polygon fill="#181818" points="1725.5,935.6094,1735.5,939.6094,1725.5,943.6094,1729.5,939.6094" style="stroke:#181818;stroke-width:1.0;"/><line style="stroke:#181818;stroke-width:1.0;" x1="1409.5" x2="1731.5" y1="939.6094" y2="939.6094"/><text fill="#000000" font-family="sans-serif" font-size="13" lengthAdjust="spacing" textLength="62" x="1416.5" y="918.4014">putUsuario</text><text fill="#000000" font-family="sans-serif" font-size="13" lengthAdjust="spacing" textLength="106" x="1416.5" y="934.7529">(usuario, callback)</text><polygon fill="#181818" points="1976.5,965.9609,1986.5,969.9609,1976.5,973.9609,1980.5,969.9609" style="stroke:#181818;stroke-width:1.0;"/><line style="stroke:#181818;stroke-width:1.0;" x1="1747.5" x2="1982.5" y1="969.9609" y2="969.9609"/><text fill="#000000" font-family="sans-serif" font-size="13" lengthAdjust="spacing" textLength="159" x="1754.5" y="965.1045">INSERT INTO perfil_usuario</text><path d="M2003,982.9609 L2003,1139.9609 L2165,1139.9609 L2165,992.9609 L2155,982.9609 L2003,982.9609 " fill="#FEFFDD" style="stroke:#181818;stroke-width:0.5;"/><path d="M2155,982.9609 L2155,992.9609 L2165,992.9609 L2155,982.9609 " fill="#FEFFDD" style="stroke:#181818;stroke-width:0.5;"/><text fill="#000000" font-family="sans-serif" font-size="13" font-weight="bold" lengthAdjust="spacing" textLength="62" x="2009" y="1001.4561">PAYLOAD</text><text fill="#000000" font-family="sans-serif" font-size="13" lengthAdjust="spacing" textLength="4" x="2009" y="1017.8076"> </text><text fill="#000000" font-family="sans-serif" font-size="13" lengthAdjust="spacing" textLength="69" x="2009" y="1034.1592">clave: string</text><text fill="#000000" font-family="sans-serif" font-size="13" lengthAdjust="spacing" textLength="65" x="2009" y="1050.5107">estatus: int</text><text fill="#000000" font-family="sans-serif" font-size="13" lengthAdjust="spacing" textLength="105" x="2009" y="1066.8623">idPerfilUsuario: int</text><text fill="#000000" font-family="sans-serif" font-size="13" lengthAdjust="spacing" textLength="141" x="2009" y="1083.2139">correoElectronico: string</text><text fill="#000000" font-family="sans-serif" font-size="13" lengthAdjust="spacing" textLength="127" x="2009" y="1099.5654">nombreUsuario: string</text><text fill="#000000" font-family="sans-serif" font-size="13" lengthAdjust="spacing" textLength="105" x="2009" y="1115.917">tipoUsuario: string</text><text fill="#000000" font-family="sans-serif" font-size="13" lengthAdjust="spacing" textLength="4" x="2009" y="1132.2686"> </text><line style="stroke:#181818;stroke-width:1.0;" x1="1747.5" x2="1757.5" y1="1167.4766" y2="1163.4766"/><line style="stroke:#181818;stroke-width:1.0;" x1="1747.5" x2="1757.5" y1="1167.4766" y2="1171.4766"/><line style="stroke:#181818;stroke-width:1.0;stroke-dasharray:2.0,2.0;" x1="1747.5" x2="1987.5" y1="1167.4766" y2="1167.4766"/><text fill="#000000" font-family="sans-serif" font-size="13" lengthAdjust="spacing" textLength="99" x="1764.5" y="1162.6201">response.insertId</text><line style="stroke:#181818;stroke-width:1.0;" x1="1409.5" x2="1419.5" y1="1197.8281" y2="1193.8281"/><line style="stroke:#181818;stroke-width:1.0;" x1="1409.5" x2="1419.5" y1="1197.8281" y2="1201.8281"/><line style="stroke:#181818;stroke-width:1.0;stroke-dasharray:2.0,2.0;" x1="1409.5" x2="1736.5" y1="1197.8281" y2="1197.8281"/><text fill="#000000" font-family="sans-serif" font-size="13" lengthAdjust="spacing" textLength="99" x="1426.5" y="1192.9717">response.insertId</text><polygon fill="#181818" points="1976.5,1224.1797,1986.5,1228.1797,1976.5,1232.1797,1980.5,1228.1797" style="stroke:#181818;stroke-width:1.0;"/><line style="stroke:#181818;stroke-width:1.0;" x1="1409.5" x2="1982.5" y1="1228.1797" y2="1228.1797"/><text fill="#000000" font-family="sans-serif" font-size="13" lengthAdjust="spacing" textLength="188" x="1416.5" y="1223.3232">INSERT INTO perfil_demandante</text><path d="M2003,1241.1797 L2003,1381.1797 L2158,1381.1797 L2158,1251.1797 L2148,1241.1797 L2003,1241.1797 " fill="#FEFFDD" style="stroke:#181818;stroke-width:0.5;"/><path d="M2148,1241.1797 L2148,1251.1797 L2158,1251.1797 L2148,1241.1797 " fill="#FEFFDD" style="stroke:#181818;stroke-width:0.5;"/><text fill="#000000" font-family="sans-serif" font-size="13" font-weight="bold" lengthAdjust="spacing" textLength="62" x="2009" y="1259.6748">PAYLOAD</text><text fill="#000000" font-family="sans-serif" font-size="13" lengthAdjust="spacing" textLength="4" x="2009" y="1276.0264"> </text><text fill="#000000" font-family="sans-serif" font-size="13" lengthAdjust="spacing" textLength="134" x="2009" y="1292.3779">idPerfilDemandante: int</text><text fill="#000000" font-family="sans-serif" font-size="13" lengthAdjust="spacing" textLength="83" x="2009" y="1308.7295">nombre: string</text><text fill="#000000" font-family="sans-serif" font-size="13" lengthAdjust="spacing" textLength="129" x="2009" y="1325.0811">fechaNacimiento: date</text><text fill="#000000" font-family="sans-serif" font-size="13" lengthAdjust="spacing" textLength="85" x="2009" y="1341.4326">telefono: string</text><text fill="#000000" font-family="sans-serif" font-size="13" lengthAdjust="spacing" textLength="92" x="2009" y="1357.7842">direccion: string</text><text fill="#000000" font-family="sans-serif" font-size="13" lengthAdjust="spacing" textLength="4" x="2009" y="1374.1357"> </text><polygon fill="#181818" points="1420.5,1405.3438,1410.5,1409.3438,1420.5,1413.3438,1416.5,1409.3438" style="stroke:#181818;stroke-width:1.0;"/><line style="stroke:#181818;stroke-width:1.0;" x1="1414.5" x2="1987.5" y1="1409.3438" y2="1409.3438"/><text fill="#000000" font-family="sans-serif" font-size="13" lengthAdjust="spacing" textLength="99" x="1426.5" y="1404.4873">response.insertId</text><polygon fill="#181818" points="826.5,1435.6953,816.5,1439.6953,826.5,1443.6953,822.5,1439.6953" style="stroke:#181818;stroke-width:1.0;"/><line style="stroke:#181818;stroke-width:1.0;" x1="820.5" x2="1403.5" y1="1439.6953" y2="1439.6953"/><text fill="#000000" font-family="sans-serif" font-size="13" lengthAdjust="spacing" textLength="168" x="832.5" y="1434.8389">callback(201, idDemandante)</text><polygon fill="#181818" points="526.5,1466.0469,516.5,1470.0469,526.5,1474.0469,522.5,1470.0469" style="stroke:#181818;stroke-width:1.0;"/><line style="stroke:#181818;stroke-width:1.0;" x1="520.5" x2="804.5" y1="1470.0469" y2="1470.0469"/><text fill="#000000" font-family="sans-serif" font-size="13" font-weight="bold" lengthAdjust="spacing" textLength="85" x="532.5" y="1465.1904">201 CREATED</text><path d="M253,1485.0469 L314,1485.0469 L314,1493.3984 L304,1503.3984 L253,1503.3984 L253,1485.0469 " fill="#EEEEEE" style="stroke:#000000;stroke-width:1.5;"/><rect fill="none" height="1016.8125" style="stroke:#000000;stroke-width:1.5;" width="1874" x="253" y="1485.0469"/><text fill="#000000" font-family="sans-serif" font-size="13" font-weight="bold" lengthAdjust="spacing" textLength="16" x="268" y="1499.542">alt</text><text fill="#000000" font-family="sans-serif" font-size="11" font-weight="bold" lengthAdjust="spacing" textLength="57" x="329" y="1498.4658">[CREATED]</text><polygon fill="#181818" points="793.5,1521.75,803.5,1525.75,793.5,1529.75,797.5,1525.75" style="stroke:#181818;stroke-width:1.0;"/><line style="stroke:#181818;stroke-width:1.0;" x1="515.5" x2="799.5" y1="1525.75" y2="1525.75"/><text fill="#000000" font-family="sans-serif" font-size="13" font-weight="bold" lengthAdjust="spacing" textLength="44" x="522.5" y="1520.8936">PATCH</text><text fill="#000000" font-family="sans-serif" font-size="13" lengthAdjust="spacing" textLength="218" x="570.5" y="1520.8936">/PerfilUsuarios/:idUsuario/fotografia</text><polygon fill="#181818" points="1090.5,1568.4531,1100.5,1572.4531,1090.5,1576.4531,1094.5,1572.4531" style="stroke:#181818;stroke-width:1.0;"/><line style="stroke:#181818;stroke-width:1.0;" x1="815.5" x2="1096.5" y1="1572.4531" y2="1572.4531"/><text fill="#000000" font-family="sans-serif" font-size="13" lengthAdjust="spacing" textLength="133" x="822.5" y="1551.2451">patchFotografiaUsuario</text><text fill="#000000" font-family="sans-serif" font-size="13" lengthAdjust="spacing" textLength="178" x="822.5" y="1567.5967">(idUsuario, fotografia, callback)</text><polygon fill="#181818" points="1725.5,1615.1563,1735.5,1619.1563,1725.5,1623.1563,1729.5,1619.1563" style="stroke:#181818;stroke-width:1.0;"/><line style="stroke:#181818;stroke-width:1.0;" x1="1107.5" x2="1731.5" y1="1619.1563" y2="1619.1563"/><text fill="#000000" font-family="sans-serif" font-size="13" lengthAdjust="spacing" textLength="133" x="1114.5" y="1597.9482">patchFotografiaUsuario</text><text fill="#000000" font-family="sans-serif" font-size="13" lengthAdjust="spacing" textLength="178" x="1114.5" y="1614.2998">(idUsuario, fotografia, callback)</text><polygon fill="#181818" points="1976.5,1645.5078,1986.5,1649.5078,1976.5,1653.5078,1980.5,1649.5078" style="stroke:#181818;stroke-width:1.0;"/><line style="stroke:#181818;stroke-width:1.0;" x1="1747.5" x2="1982.5" y1="1649.5078" y2="1649.5078"/><text fill="#000000" font-family="sans-serif" font-size="13" lengthAdjust="spacing" textLength="217" x="1754.5" y="1644.6514">UPDATE perfil_usuario SET fotografia</text><path d="M2003,1662.5078 L2003,1753.5078 L2117,1753.5078 L2117,1672.5078 L2107,1662.5078 L2003,1662.5078 " fill="#FEFFDD" style="stroke:#181818;stroke-width:0.5;"/><path d="M2107,1662.5078 L2107,1672.5078 L2117,1672.5078 L2107,1662.5078 " fill="#FEFFDD" style="stroke:#181818;stroke-width:0.5;"/><text fill="#000000" font-family="sans-serif" font-size="13" lengthAdjust="spacing" textLength="4" x="2009" y="1681.0029"> </text><text fill="#000000" font-family="sans-serif" font-size="13" font-weight="bold" lengthAdjust="spacing" textLength="62" x="2009" y="1697.3545">PAYLOAD</text><text fill="#000000" font-family="sans-serif" font-size="13" lengthAdjust="spacing" textLength="4" x="2009" y="1713.7061"> </text><text fill="#000000" font-family="sans-serif" font-size="13" lengthAdjust="spacing" textLength="93" x="2009" y="1730.0576">fotografia: byte[]</text><text fill="#000000" font-family="sans-serif" font-size="13" lengthAdjust="spacing" textLength="4" x="2009" y="1746.4092"> </text><line style="stroke:#181818;stroke-width:1.0;" x1="1747.5" x2="1757.5" y1="1781.6172" y2="1777.6172"/><line style="stroke:#181818;stroke-width:1.0;" x1="1747.5" x2="1757.5" y1="1781.6172" y2="1785.6172"/><line style="stroke:#181818;stroke-width:1.0;stroke-dasharray:2.0,2.0;" x1="1747.5" x2="1992.5" y1="1781.6172" y2="1781.6172"/><text fill="#000000" font-family="sans-serif" font-size="13" lengthAdjust="spacing" textLength="53" x="1764.5" y="1776.7607">response</text><polygon fill="#181818" points="826.5,1807.9688,816.5,1811.9688,826.5,1815.9688,822.5,1811.9688" style="stroke:#181818;stroke-width:1.0;"/><line style="stroke:#181818;stroke-width:1.0;" x1="820.5" x2="1736.5" y1="1811.9688" y2="1811.9688"/><text fill="#000000" font-family="sans-serif" font-size="13" lengthAdjust="spacing" textLength="138" x="832.5" y="1807.1123">callback(200, response)</text><polygon fill="#181818" points="526.5,1838.3203,516.5,1842.3203,526.5,1846.3203,522.5,1842.3203" style="stroke:#181818;stroke-width:1.0;"/><line style="stroke:#181818;stroke-width:1.0;" x1="520.5" x2="804.5" y1="1842.3203" y2="1842.3203"/><text fill="#000000" font-family="sans-serif" font-size="13" font-weight="bold" lengthAdjust="spacing" textLength="44" x="532.5" y="1837.4639">200 OK</text><line style="stroke:#181818;stroke-width:1.0;" x1="354.5" x2="364.5" y1="1872.6719" y2="1868.6719"/><line style="stroke:#181818;stroke-width:1.0;" x1="354.5" x2="364.5" y1="1872.6719" y2="1876.6719"/><line style="stroke:#181818;stroke-width:1.0;stroke-dasharray:2.0,2.0;" x1="354.5" x2="504.5" y1="1872.6719" y2="1872.6719"/><text fill="#000000" font-family="sans-serif" font-size="13" lengthAdjust="spacing" textLength="53" x="371.5" y="1867.8154">response</text><line style="stroke:#181818;stroke-width:1.0;" x1="354.5" x2="396.5" y1="1919.375" y2="1919.375"/><line style="stroke:#181818;stroke-width:1.0;" x1="396.5" x2="396.5" y1="1919.375" y2="1932.375"/><line style="stroke:#181818;stroke-width:1.0;" x1="355.5" x2="396.5" y1="1932.375" y2="1932.375"/><line style="stroke:#181818;stroke-width:1.0;" x1="355.5" x2="365.5" y1="1932.375" y2="1928.375"/><line style="stroke:#181818;stroke-width:1.0;" x1="355.5" x2="365.5" y1="1932.375" y2="1936.375"/><text fill="#000000" font-family="sans-serif" font-size="13" lengthAdjust="spacing" textLength="49" x="361.5" y="1898.167">mensaje</text><text fill="#000000" font-family="sans-serif" font-size="13" lengthAdjust="spacing" textLength="30" x="361.5" y="1914.5186">Exito</text><path d="M263,1947.375 L324,1947.375 L324,1955.7266 L314,1965.7266 L263,1965.7266 L263,1947.375 " fill="#EEEEEE" style="stroke:#000000;stroke-width:1.5;"/><rect fill="none" height="214.2969" style="stroke:#000000;stroke-width:1.5;" width="320" x="263" y="1947.375"/><text fill="#000000" font-family="sans-serif" font-size="13" font-weight="bold" lengthAdjust="spacing" textLength="16" x="278" y="1961.8701">alt</text><text fill="#000000" font-family="sans-serif" font-size="11" font-weight="bold" lengthAdjust="spacing" textLength="142" x="339" y="1960.7939">[INTERNAL ERROR SERVER]</text><line style="stroke:#181818;stroke-width:1.0;" x1="354.5" x2="364.5" y1="1988.0781" y2="1984.0781"/><line style="stroke:#181818;stroke-width:1.0;" x1="354.5" x2="364.5" y1="1988.0781" y2="1992.0781"/><line style="stroke:#181818;stroke-width:1.0;stroke-dasharray:2.0,2.0;" x1="354.5" x2="504.5" y1="1988.0781" y2="1988.0781"/><text fill="#000000" font-family="sans-serif" font-size="13" lengthAdjust="spacing" textLength="20" x="371.5" y="1983.2217">null</text><line style="stroke:#181818;stroke-width:1.0;" x1="354.5" x2="396.5" y1="2034.7813" y2="2034.7813"/><line style="stroke:#181818;stroke-width:1.0;" x1="396.5" x2="396.5" y1="2034.7813" y2="2047.7813"/><line style="stroke:#181818;stroke-width:1.0;" x1="355.5" x2="396.5" y1="2047.7813" y2="2047.7813"/><line style="stroke:#181818;stroke-width:1.0;" x1="355.5" x2="365.5" y1="2047.7813" y2="2043.7813"/><line style="stroke:#181818;stroke-width:1.0;" x1="355.5" x2="365.5" y1="2047.7813" y2="2051.7813"/><text fill="#000000" font-family="sans-serif" font-size="13" lengthAdjust="spacing" textLength="49" x="361.5" y="2013.5732">mensaje</text><text fill="#000000" font-family="sans-serif" font-size="13" lengthAdjust="spacing" textLength="113" x="361.5" y="2029.9248">ErrorInternoServidor</text><line style="stroke:#000000;stroke-width:1.0;stroke-dasharray:2.0,2.0;" x1="263" x2="583" y1="2056.7813" y2="2056.7813"/><text fill="#000000" font-family="sans-serif" font-size="11" font-weight="bold" lengthAdjust="spacing" textLength="68" x="268" y="2068.2002">[NOT FOUND]</text><line style="stroke:#181818;stroke-width:1.0;" x1="354.5" x2="364.5" y1="2093.9688" y2="2089.9688"/><line style="stroke:#181818;stroke-width:1.0;" x1="354.5" x2="364.5" y1="2093.9688" y2="2097.9688"/><line style="stroke:#181818;stroke-width:1.0;stroke-dasharray:2.0,2.0;" x1="354.5" x2="504.5" y1="2093.9688" y2="2093.9688"/><text fill="#000000" font-family="sans-serif" font-size="13" lengthAdjust="spacing" textLength="20" x="371.5" y="2089.1123">null</text><line style="stroke:#181818;stroke-width:1.0;" x1="354.5" x2="396.5" y1="2140.6719" y2="2140.6719"/><line style="stroke:#181818;stroke-width:1.0;" x1="396.5" x2="396.5" y1="2140.6719" y2="2153.6719"/><line style="stroke:#181818;stroke-width:1.0;" x1="355.5" x2="396.5" y1="2153.6719" y2="2153.6719"/><line style="stroke:#181818;stroke-width:1.0;" x1="355.5" x2="365.5" y1="2153.6719" y2="2149.6719"/><line style="stroke:#181818;stroke-width:1.0;" x1="355.5" x2="365.5" y1="2153.6719" y2="2157.6719"/><text fill="#000000" font-family="sans-serif" font-size="13" lengthAdjust="spacing" textLength="49" x="361.5" y="2119.4639">mensaje</text><text fill="#000000" font-family="sans-serif" font-size="13" lengthAdjust="spacing" textLength="129" x="361.5" y="2135.8154">PeticionNoEncontrada</text><line style="stroke:#000000;stroke-width:1.0;stroke-dasharray:2.0,2.0;" x1="253" x2="2127" y1="2169.6719" y2="2169.6719"/><text fill="#000000" font-family="sans-serif" font-size="11" font-weight="bold" lengthAdjust="spacing" textLength="142" x="258" y="2181.0908">[INTERNAL ERROR SERVER]</text><polygon fill="#181818" points="826.5,2202.8594,816.5,2206.8594,826.5,2210.8594,822.5,2206.8594" style="stroke:#181818;stroke-width:1.0;"/><line style="stroke:#181818;stroke-width:1.0;" x1="820.5" x2="1736.5" y1="2206.8594" y2="2206.8594"/><text fill="#000000" font-family="sans-serif" font-size="13" lengthAdjust="spacing" textLength="134" x="832.5" y="2202.0029">callback(500, mensaje)</text><polygon fill="#181818" points="526.5,2233.2109,516.5,2237.2109,526.5,2241.2109,522.5,2237.2109" style="stroke:#181818;stroke-width:1.0;"/><line style="stroke:#181818;stroke-width:1.0;" x1="520.5" x2="804.5" y1="2237.2109" y2="2237.2109"/><text fill="#000000" font-family="sans-serif" font-size="13" font-weight="bold" lengthAdjust="spacing" textLength="194" x="532.5" y="2232.3545">500 INTERNAL SERVER ERROR</text><line style="stroke:#181818;stroke-width:1.0;" x1="354.5" x2="364.5" y1="2267.5625" y2="2263.5625"/><line style="stroke:#181818;stroke-width:1.0;" x1="354.5" x2="364.5" y1="2267.5625" y2="2271.5625"/><line style="stroke:#181818;stroke-width:1.0;stroke-dasharray:2.0,2.0;" x1="354.5" x2="504.5" y1="2267.5625" y2="2267.5625"/><text fill="#000000" font-family="sans-serif" font-size="13" lengthAdjust="spacing" textLength="20" x="371.5" y="2262.7061">null</text><line style="stroke:#181818;stroke-width:1.0;" x1="354.5" x2="396.5" y1="2314.2656" y2="2314.2656"/><line style="stroke:#181818;stroke-width:1.0;" x1="396.5" x2="396.5" y1="2314.2656" y2="2327.2656"/><line style="stroke:#181818;stroke-width:1.0;" x1="355.5" x2="396.5" y1="2327.2656" y2="2327.2656"/><line style="stroke:#181818;stroke-width:1.0;" x1="355.5" x2="365.5" y1="2327.2656" y2="2323.2656"/><line style="stroke:#181818;stroke-width:1.0;" x1="355.5" x2="365.5" y1="2327.2656" y2="2331.2656"/><text fill="#000000" font-family="sans-serif" font-size="13" lengthAdjust="spacing" textLength="49" x="361.5" y="2293.0576">mensaje</text><text fill="#000000" font-family="sans-serif" font-size="13" lengthAdjust="spacing" textLength="113" x="361.5" y="2309.4092">ErrorInternoServidor</text><line style="stroke:#000000;stroke-width:1.0;stroke-dasharray:2.0,2.0;" x1="253" x2="2127" y1="2336.2656" y2="2336.2656"/><text fill="#000000" font-family="sans-serif" font-size="11" font-weight="bold" lengthAdjust="spacing" textLength="68" x="258" y="2347.6846">[NOT FOUND]</text><polygon fill="#181818" points="826.5,2369.4531,816.5,2373.4531,826.5,2377.4531,822.5,2373.4531" style="stroke:#181818;stroke-width:1.0;"/><line style="stroke:#181818;stroke-width:1.0;" x1="820.5" x2="1741.5" y1="2373.4531" y2="2373.4531"/><text fill="#000000" font-family="sans-serif" font-size="13" lengthAdjust="spacing" textLength="134" x="832.5" y="2368.5967">callback(404, mensaje)</text><polygon fill="#181818" points="526.5,2399.8047,516.5,2403.8047,526.5,2407.8047,522.5,2403.8047" style="stroke:#181818;stroke-width:1.0;"/><line style="stroke:#181818;stroke-width:1.0;" x1="520.5" x2="804.5" y1="2403.8047" y2="2403.8047"/><text fill="#000000" font-family="sans-serif" font-size="13" font-weight="bold" lengthAdjust="spacing" textLength="101" x="532.5" y="2398.9482">404 NOT FOUND</text><line style="stroke:#181818;stroke-width:1.0;" x1="354.5" x2="364.5" y1="2434.1563" y2="2430.1563"/><line style="stroke:#181818;stroke-width:1.0;" x1="354.5" x2="364.5" y1="2434.1563" y2="2438.1563"/><line style="stroke:#181818;stroke-width:1.0;stroke-dasharray:2.0,2.0;" x1="354.5" x2="509.5" y1="2434.1563" y2="2434.1563"/><text fill="#000000" font-family="sans-serif" font-size="13" lengthAdjust="spacing" textLength="20" x="371.5" y="2429.2998">null</text><line style="stroke:#181818;stroke-width:1.0;" x1="354.5" x2="396.5" y1="2480.8594" y2="2480.8594"/><line style="stroke:#181818;stroke-width:1.0;" x1="396.5" x2="396.5" y1="2480.8594" y2="2493.8594"/><line style="stroke:#181818;stroke-width:1.0;" x1="355.5" x2="396.5" y1="2493.8594" y2="2493.8594"/><line style="stroke:#181818;stroke-width:1.0;" x1="355.5" x2="365.5" y1="2493.8594" y2="2489.8594"/><line style="stroke:#181818;stroke-width:1.0;" x1="355.5" x2="365.5" y1="2493.8594" y2="2497.8594"/><text fill="#000000" font-family="sans-serif" font-size="13" lengthAdjust="spacing" textLength="49" x="361.5" y="2459.6514">mensaje</text><text fill="#000000" font-family="sans-serif" font-size="13" lengthAdjust="spacing" textLength="129" x="361.5" y="2476.0029">PeticionNoEncontrada</text><!--MD5=[2bdb7695e9b9b2e19655e6a99ebc7c1d]
@startuml

box Cliente
    actor Demandante as a
    participant RegistrarDemandante as b <<GUI>> 
    participant RegistrarDemandante as c <<Controller>>
    participant DemandanteDAO as d <<DAO>>

end box

box Servidor
    participant ElCamelloAPI as e <<API>>
    participant GestionUsuarios as f <<Componente>>
    participant DermandanteDAO as g <<DAO>>
    participant UsuarioDAO as h <<DAO>>
    database elCamelloDB as db
end box

a -> b: btnSiguiente_click()
activate a
activate b

b -> c: CargarVentana()
activate c

c ->> c: CargarVentana()

a -> b: capturarDatos

a -> b : btnGuardar_Click

b -> c: btnGuardar_Click

c ->> c: validarCampos(isNuevo)

loop validarCampos == false

     alt camposVacios

        c ->> c: mensaje\nCamposVacios 

    else fotografiaVacia

        c ->> c: mensaje\nFotografiaVacia

    else videoVacio

        c ->> c: mensajeVideoVacio

    else fechaInvalida

        c ->> c: mensajeFechaInvalida

    end

end

c -> d: PostDemandante\n(usuario, demandante)
activate d

d -> e: **POST** /perfilDemandantes
activate e

e -> f: postDemandante(demandanteNuevo, callback)
activate f

f -> g: postDemandante(demandanteNuevo, callback)
activate g

g ->> g: comprobarRegistro\n(empleadorNuevo.nombreUsuario, \nempleadorNuevo.correoElectronico, \nfunction (codigoRespuesta, cuerpoRespuestaRegistro)

g -> h: putUsuario\n(usuario, callback)
activate h

h -> db: INSERT INTO perfil_usuario
activate db

note right of db
**PAYLOAD**

clave: string
estatus: int
idPerfilUsuario: int
correoElectronico: string
nombreUsuario: string 
tipoUsuario: string

end note

db - ->> h: response.insertId

h - ->> g: response.insertId

g -> db: INSERT INTO perfil_demandante

note right of db
**PAYLOAD**

idPerfilDemandante: int
nombre: string
fechaNacimiento: date
telefono: string
direccion: string

end note 

db -> g: response.insertId

g -> e: callback(201, idDemandante)
deactivate g

e -> d: **201 CREATED**

alt CREATED

    d -> e: **PATCH** /PerfilUsuarios/:idUsuario/fotografia

    e -> f: patchFotografiaUsuario\n(idUsuario, fotografia, callback)

    f -> h: patchFotografiaUsuario\n(idUsuario, fotografia, callback)
    deactivate f

    h -> db: UPDATE perfil_usuario SET fotografia

    note right of db

    **PAYLOAD**

    fotografia: byte[]

    end note

    db - ->> h: response
    deactivate db

    h -> e: callback(200, response)

    e -> d: **200 OK**

    d - ->> c: response

    c ->> c: mensaje\nExito

    alt INTERNAL ERROR SERVER

        d - ->> c: null

        c ->> c: mensaje\nErrorInternoServidor

    else NOT FOUND

        d - ->> c: null

        c ->> c: mensaje\nPeticionNoEncontrada

    end

else INTERNAL ERROR SERVER

    h -> e: callback(500, mensaje)

    e -> d: **500 INTERNAL SERVER ERROR **

    d - ->> c: null

    c ->> c: mensaje\nErrorInternoServidor



else NOT FOUND

    h -> e: callback(404, mensaje)
    deactivate h

    e -> d: **404 NOT FOUND**

    d - ->> c: null

    deactivate d

    c ->> c: mensaje\nPeticionNoEncontrada

end

@enduml

PlantUML version 1.2022.5(Sat Apr 30 05:55:52 CDT 2022)
(GPL source distribution)
Java Runtime: Java(TM) SE Runtime Environment
JVM: Java HotSpot(TM) 64-Bit Server VM
Default Encoding: Cp1252
Language: es
Country: MX
--></g></svg>