<?xml version="1.0" encoding="UTF-8" standalone="no"?><svg xmlns="http://www.w3.org/2000/svg" xmlns:xlink="http://www.w3.org/1999/xlink" contentStyleType="text/css" height="1932px" preserveAspectRatio="none" style="width:1751px;height:1932px;background:#FFFFFF;" version="1.1" viewBox="0 0 1751 1932" width="1751px" zoomAndPan="magnify"><defs/><g><rect fill="#DDDDDD" height="1920.3359" style="stroke:#181818;stroke-width:0.5;" width="625.5" x="1" y="6"/><text fill="#000000" font-family="sans-serif" font-size="13" font-weight="bold" lengthAdjust="spacing" textLength="45" x="291.25" y="19.4951">Cliente</text><rect fill="#DDDDDD" height="1920.3359" style="stroke:#181818;stroke-width:0.5;" width="869.5" x="744.5" y="6"/><text fill="#000000" font-family="sans-serif" font-size="13" font-weight="bold" lengthAdjust="spacing" textLength="54" x="1152.25" y="19.4951">Servidor</text><rect fill="#FFFFFF" height="1700.4141" style="stroke:#181818;stroke-width:1.0;" width="10" x="46.5" y="136.3125"/><rect fill="#FFFFFF" height="1700.4141" style="stroke:#181818;stroke-width:1.0;" width="10" x="166.5" y="136.3125"/><rect fill="#FFFFFF" height="1670.0625" style="stroke:#181818;stroke-width:1.0;" width="10" x="356.5" y="166.6641"/><rect fill="#FFFFFF" height="1547.6563" style="stroke:#181818;stroke-width:1.0;" width="10" x="564.5" y="213.3672"/><rect fill="#FFFFFF" height="1540.3047" style="stroke:#181818;stroke-width:1.0;" width="10" x="792.5" y="296.4219"/><rect fill="#FFFFFF" height="923.4375" style="stroke:#181818;stroke-width:1.0;" width="10" x="1045.5" y="343.125"/><rect fill="#FFFFFF" height="1310.4922" style="stroke:#181818;stroke-width:1.0;" width="10" x="1298.5" y="389.8281"/><rect fill="#FFFFFF" height="907.0859" style="stroke:#181818;stroke-width:1.0;" width="10" x="1561.5" y="420.1797"/><rect height="335.7031" style="stroke:#000000;stroke-width:1.5;fill:none;" width="1102" x="288" y="777.75"/><rect height="335.7031" style="stroke:#000000;stroke-width:1.5;fill:none;" width="1102" x="288" y="1493.0234"/><line style="stroke:#181818;stroke-width:0.5;fill:none;stroke-dasharray:5.0,5.0;" x1="51" x2="51" y1="103.9609" y2="1845.7266"/><line style="stroke:#181818;stroke-width:0.5;fill:none;stroke-dasharray:5.0,5.0;" x1="171" x2="171" y1="103.9609" y2="1845.7266"/><line style="stroke:#181818;stroke-width:0.5;fill:none;stroke-dasharray:5.0,5.0;" x1="361" x2="361" y1="103.9609" y2="1845.7266"/><line style="stroke:#181818;stroke-width:0.5;fill:none;stroke-dasharray:5.0,5.0;" x1="569.5" x2="569.5" y1="103.9609" y2="1845.7266"/><line style="stroke:#181818;stroke-width:0.5;fill:none;stroke-dasharray:5.0,5.0;" x1="797.5" x2="797.5" y1="103.9609" y2="1845.7266"/><line style="stroke:#181818;stroke-width:0.5;fill:none;stroke-dasharray:5.0,5.0;" x1="1050" x2="1050" y1="103.9609" y2="1845.7266"/><line style="stroke:#181818;stroke-width:0.5;fill:none;stroke-dasharray:5.0,5.0;" x1="1303" x2="1303" y1="103.9609" y2="1845.7266"/><line style="stroke:#181818;stroke-width:0.5;fill:none;stroke-dasharray:5.0,5.0;" x1="1566" x2="1566" y1="103.9609" y2="1845.7266"/><text fill="#000000" font-family="sans-serif" font-size="14" lengthAdjust="spacing" textLength="87" x="5" y="100.8848">Administrador</text><ellipse cx="51.5" cy="34.8516" fill="#E2E2F0" rx="8" ry="8" style="stroke:#181818;stroke-width:0.5;"/><path d="M51.5,42.8516 L51.5,69.8516 M38.5,50.8516 L64.5,50.8516 M51.5,69.8516 L38.5,84.8516 M51.5,69.8516 L64.5,84.8516 " fill="none" style="stroke:#181818;stroke-width:0.5;"/><text fill="#000000" font-family="sans-serif" font-size="14" lengthAdjust="spacing" textLength="87" x="5" y="1859.2598">Administrador</text><ellipse cx="51.5" cy="1870.8359" fill="#E2E2F0" rx="8" ry="8" style="stroke:#181818;stroke-width:0.5;"/><path d="M51.5,1878.8359 L51.5,1905.8359 M38.5,1886.8359 L64.5,1886.8359 M51.5,1905.8359 L38.5,1920.8359 M51.5,1905.8359 L64.5,1920.8359 " fill="none" style="stroke:#181818;stroke-width:0.5;"/><rect fill="#E2E2F0" height="49.2188" rx="2.5" ry="2.5" style="stroke:#181818;stroke-width:0.5;" width="127" x="108" y="53.7422"/><text fill="#000000" font-family="sans-serif" font-size="14" font-style="italic" lengthAdjust="spacing" textLength="41" x="151" y="75.2754">«GUI»</text><text fill="#000000" font-family="sans-serif" font-size="14" lengthAdjust="spacing" textLength="113" x="115" y="92.8848">categoriasEmpleo</text><rect fill="#E2E2F0" height="49.2188" rx="2.5" ry="2.5" style="stroke:#181818;stroke-width:0.5;" width="127" x="108" y="1844.7266"/><text fill="#000000" font-family="sans-serif" font-size="14" font-style="italic" lengthAdjust="spacing" textLength="41" x="151" y="1866.2598">«GUI»</text><text fill="#000000" font-family="sans-serif" font-size="14" lengthAdjust="spacing" textLength="113" x="115" y="1883.8691">categoriasEmpleo</text><rect fill="#E2E2F0" height="49.2188" rx="2.5" ry="2.5" style="stroke:#181818;stroke-width:0.5;" width="127" x="298" y="53.7422"/><text fill="#000000" font-family="sans-serif" font-size="14" font-style="italic" lengthAdjust="spacing" textLength="78" x="322.5" y="75.2754">«Controller»</text><text fill="#000000" font-family="sans-serif" font-size="14" lengthAdjust="spacing" textLength="113" x="305" y="92.8848">categoriasEmpleo</text><rect fill="#E2E2F0" height="49.2188" rx="2.5" ry="2.5" style="stroke:#181818;stroke-width:0.5;" width="127" x="298" y="1844.7266"/><text fill="#000000" font-family="sans-serif" font-size="14" font-style="italic" lengthAdjust="spacing" textLength="78" x="322.5" y="1866.2598">«Controller»</text><text fill="#000000" font-family="sans-serif" font-size="14" lengthAdjust="spacing" textLength="113" x="305" y="1883.8691">categoriasEmpleo</text><rect fill="#E2E2F0" height="49.2188" rx="2.5" ry="2.5" style="stroke:#181818;stroke-width:0.5;" width="106" x="516.5" y="53.7422"/><text fill="#000000" font-family="sans-serif" font-size="14" font-style="italic" lengthAdjust="spacing" textLength="46" x="546.5" y="75.2754">«DAO»</text><text fill="#000000" font-family="sans-serif" font-size="14" lengthAdjust="spacing" textLength="92" x="523.5" y="92.8848">CategoriaDAO</text><rect fill="#E2E2F0" height="49.2188" rx="2.5" ry="2.5" style="stroke:#181818;stroke-width:0.5;" width="106" x="516.5" y="1844.7266"/><text fill="#000000" font-family="sans-serif" font-size="14" font-style="italic" lengthAdjust="spacing" textLength="46" x="546.5" y="1866.2598">«DAO»</text><text fill="#000000" font-family="sans-serif" font-size="14" lengthAdjust="spacing" textLength="92" x="523.5" y="1883.8691">CategoriaDAO</text><rect fill="#E2E2F0" height="49.2188" rx="2.5" ry="2.5" style="stroke:#181818;stroke-width:0.5;" width="98" x="748.5" y="53.7422"/><text fill="#000000" font-family="sans-serif" font-size="14" font-style="italic" lengthAdjust="spacing" textLength="38" x="778.5" y="75.2754">«API»</text><text fill="#000000" font-family="sans-serif" font-size="14" lengthAdjust="spacing" textLength="84" x="755.5" y="92.8848">ElCamelloAPI</text><rect fill="#E2E2F0" height="49.2188" rx="2.5" ry="2.5" style="stroke:#181818;stroke-width:0.5;" width="98" x="748.5" y="1844.7266"/><text fill="#000000" font-family="sans-serif" font-size="14" font-style="italic" lengthAdjust="spacing" textLength="38" x="778.5" y="1866.2598">«API»</text><text fill="#000000" font-family="sans-serif" font-size="14" lengthAdjust="spacing" textLength="84" x="755.5" y="1883.8691">ElCamelloAPI</text><rect fill="#E2E2F0" height="49.2188" rx="2.5" ry="2.5" style="stroke:#181818;stroke-width:0.5;" width="179" x="961" y="53.7422"/><text fill="#000000" font-family="sans-serif" font-size="14" font-style="italic" lengthAdjust="spacing" textLength="97" x="1002" y="75.2754">«Componente»</text><text fill="#000000" font-family="sans-serif" font-size="14" lengthAdjust="spacing" textLength="165" x="968" y="92.8848">GestionCategoriasEmpleo</text><rect fill="#E2E2F0" height="49.2188" rx="2.5" ry="2.5" style="stroke:#181818;stroke-width:0.5;" width="179" x="961" y="1844.7266"/><text fill="#000000" font-family="sans-serif" font-size="14" font-style="italic" lengthAdjust="spacing" textLength="97" x="1002" y="1866.2598">«Componente»</text><text fill="#000000" font-family="sans-serif" font-size="14" lengthAdjust="spacing" textLength="165" x="968" y="1883.8691">GestionCategoriasEmpleo</text><rect fill="#E2E2F0" height="49.2188" rx="2.5" ry="2.5" style="stroke:#181818;stroke-width:0.5;" width="153" x="1227" y="53.7422"/><text fill="#000000" font-family="sans-serif" font-size="14" font-style="italic" lengthAdjust="spacing" textLength="46" x="1280.5" y="75.2754">«DAO»</text><text fill="#000000" font-family="sans-serif" font-size="14" lengthAdjust="spacing" textLength="139" x="1234" y="92.8848">CategoriaEmpleoDAO</text><rect fill="#E2E2F0" height="49.2188" rx="2.5" ry="2.5" style="stroke:#181818;stroke-width:0.5;" width="153" x="1227" y="1844.7266"/><text fill="#000000" font-family="sans-serif" font-size="14" font-style="italic" lengthAdjust="spacing" textLength="46" x="1280.5" y="1866.2598">«DAO»</text><text fill="#000000" font-family="sans-serif" font-size="14" lengthAdjust="spacing" textLength="139" x="1234" y="1883.8691">CategoriaEmpleoDAO</text><text fill="#000000" font-family="sans-serif" font-size="14" lengthAdjust="spacing" textLength="81" x="1523" y="100.8848">elCamelloDB</text><path d="M1548.5,50.3516 C1548.5,40.3516 1566.5,40.3516 1566.5,40.3516 C1566.5,40.3516 1584.5,40.3516 1584.5,50.3516 L1584.5,76.3516 C1584.5,86.3516 1566.5,86.3516 1566.5,86.3516 C1566.5,86.3516 1548.5,86.3516 1548.5,76.3516 L1548.5,50.3516 " fill="#E2E2F0" style="stroke:#181818;stroke-width:1.5;"/><path d="M1548.5,50.3516 C1548.5,60.3516 1566.5,60.3516 1566.5,60.3516 C1566.5,60.3516 1584.5,60.3516 1584.5,50.3516 " fill="none" style="stroke:#181818;stroke-width:1.5;"/><text fill="#000000" font-family="sans-serif" font-size="14" lengthAdjust="spacing" textLength="81" x="1523" y="1859.2598">elCamelloDB</text><path d="M1548.5,1872.3359 C1548.5,1862.3359 1566.5,1862.3359 1566.5,1862.3359 C1566.5,1862.3359 1584.5,1862.3359 1584.5,1872.3359 L1584.5,1898.3359 C1584.5,1908.3359 1566.5,1908.3359 1566.5,1908.3359 C1566.5,1908.3359 1548.5,1908.3359 1548.5,1898.3359 L1548.5,1872.3359 " fill="#E2E2F0" style="stroke:#181818;stroke-width:1.5;"/><path d="M1548.5,1872.3359 C1548.5,1882.3359 1566.5,1882.3359 1566.5,1882.3359 C1566.5,1882.3359 1584.5,1882.3359 1584.5,1872.3359 " fill="none" style="stroke:#181818;stroke-width:1.5;"/><rect fill="#FFFFFF" height="1700.4141" style="stroke:#181818;stroke-width:1.0;" width="10" x="46.5" y="136.3125"/><rect fill="#FFFFFF" height="1700.4141" style="stroke:#181818;stroke-width:1.0;" width="10" x="166.5" y="136.3125"/><rect fill="#FFFFFF" height="1670.0625" style="stroke:#181818;stroke-width:1.0;" width="10" x="356.5" y="166.6641"/><rect fill="#FFFFFF" height="1547.6563" style="stroke:#181818;stroke-width:1.0;" width="10" x="564.5" y="213.3672"/><rect fill="#FFFFFF" height="1540.3047" style="stroke:#181818;stroke-width:1.0;" width="10" x="792.5" y="296.4219"/><rect fill="#FFFFFF" height="923.4375" style="stroke:#181818;stroke-width:1.0;" width="10" x="1045.5" y="343.125"/><rect fill="#FFFFFF" height="1310.4922" style="stroke:#181818;stroke-width:1.0;" width="10" x="1298.5" y="389.8281"/><rect fill="#FFFFFF" height="907.0859" style="stroke:#181818;stroke-width:1.0;" width="10" x="1561.5" y="420.1797"/><polygon fill="#181818" points="154.5,132.3125,164.5,136.3125,154.5,140.3125,158.5,136.3125" style="stroke:#181818;stroke-width:1.0;"/><line style="stroke:#181818;stroke-width:1.0;" x1="56.5" x2="160.5" y1="136.3125" y2="136.3125"/><text fill="#000000" font-family="sans-serif" font-size="13" lengthAdjust="spacing" textLength="79" x="63.5" y="131.4561">modificarDato</text><polygon fill="#181818" points="344.5,162.6641,354.5,166.6641,344.5,170.6641,348.5,166.6641" style="stroke:#181818;stroke-width:1.0;"/><line style="stroke:#181818;stroke-width:1.0;" x1="176.5" x2="350.5" y1="166.6641" y2="166.6641"/><text fill="#000000" font-family="sans-serif" font-size="13" lengthAdjust="spacing" textLength="161" x="183.5" y="161.8076">btnModificarCategoria_Click</text><polygon fill="#181818" points="552.5,209.3672,562.5,213.3672,552.5,217.3672,556.5,213.3672" style="stroke:#181818;stroke-width:1.0;"/><line style="stroke:#181818;stroke-width:1.0;" x1="366.5" x2="558.5" y1="213.3672" y2="213.3672"/><text fill="#000000" font-family="sans-serif" font-size="13" lengthAdjust="spacing" textLength="89" x="373.5" y="192.1592">PatchCategoria</text><text fill="#000000" font-family="sans-serif" font-size="13" lengthAdjust="spacing" textLength="179" x="373.5" y="208.5107">(categoriaSeleccionada, token)</text><path d="M579,226.3672 L579,268.3672 L729,268.3672 L729,236.3672 L719,226.3672 L579,226.3672 " fill="#FEFFDD" style="stroke:#181818;stroke-width:0.5;"/><path d="M719,226.3672 L719,236.3672 L729,236.3672 L719,226.3672 " fill="#FEFFDD" style="stroke:#181818;stroke-width:0.5;"/><text fill="#000000" font-family="sans-serif" font-size="13" font-weight="bold" lengthAdjust="spacing" textLength="61" x="585" y="244.8623">HEADERS</text><text fill="#000000" font-family="sans-serif" font-size="13" lengthAdjust="spacing" textLength="129" x="585" y="261.2139">x-access-token: string</text><polygon fill="#181818" points="780.5,292.4219,790.5,296.4219,780.5,300.4219,784.5,296.4219" style="stroke:#181818;stroke-width:1.0;"/><line style="stroke:#181818;stroke-width:1.0;" x1="574.5" x2="786.5" y1="296.4219" y2="296.4219"/><text fill="#000000" font-family="sans-serif" font-size="13" font-weight="bold" lengthAdjust="spacing" textLength="44" x="581.5" y="291.5654">PATCH</text><text fill="#000000" font-family="sans-serif" font-size="13" lengthAdjust="spacing" textLength="124" x="629.5" y="291.5654">/categoriasEmpleo</text><polygon fill="#181818" points="1033.5,339.125,1043.5,343.125,1033.5,347.125,1037.5,343.125" style="stroke:#181818;stroke-width:1.0;"/><line style="stroke:#181818;stroke-width:1.0;" x1="802.5" x2="1039.5" y1="343.125" y2="343.125"/><text fill="#000000" font-family="sans-serif" font-size="13" lengthAdjust="spacing" textLength="131" x="809.5" y="321.917">patchCategoriaEmpleo</text><text fill="#000000" font-family="sans-serif" font-size="13" lengthAdjust="spacing" textLength="224" x="809.5" y="338.2686">(idCategoriaEmpleo, nombre, callback)</text><polygon fill="#181818" points="1286.5,385.8281,1296.5,389.8281,1286.5,393.8281,1290.5,389.8281" style="stroke:#181818;stroke-width:1.0;"/><line style="stroke:#181818;stroke-width:1.0;" x1="1055.5" x2="1292.5" y1="389.8281" y2="389.8281"/><text fill="#000000" font-family="sans-serif" font-size="13" lengthAdjust="spacing" textLength="131" x="1062.5" y="368.6201">patchCategoriaEmpleo</text><text fill="#000000" font-family="sans-serif" font-size="13" lengthAdjust="spacing" textLength="224" x="1062.5" y="384.9717">(idCategoriaEmpleo, nombre, callback)</text><polygon fill="#181818" points="1549.5,416.1797,1559.5,420.1797,1549.5,424.1797,1553.5,420.1797" style="stroke:#181818;stroke-width:1.0;"/><line style="stroke:#181818;stroke-width:1.0;" x1="1308.5" x2="1555.5" y1="420.1797" y2="420.1797"/><text fill="#000000" font-family="sans-serif" font-size="13" lengthAdjust="spacing" textLength="234" x="1315.5" y="415.3232">UPDATE categoria_empleo SET nombre</text><path d="M1576,433.1797 L1576,541.1797 L1744,541.1797 L1744,443.1797 L1734,433.1797 L1576,433.1797 " fill="#FEFFDD" style="stroke:#181818;stroke-width:0.5;"/><path d="M1734,433.1797 L1734,443.1797 L1744,443.1797 L1734,433.1797 " fill="#FEFFDD" style="stroke:#181818;stroke-width:0.5;"/><text fill="#000000" font-family="sans-serif" font-size="13" font-weight="bold" lengthAdjust="spacing" textLength="62" x="1582" y="451.6748">PAYLOAD</text><text fill="#000000" font-family="sans-serif" font-size="13" lengthAdjust="spacing" textLength="4" x="1582" y="468.0264"> </text><text fill="#000000" font-family="sans-serif" font-size="13" lengthAdjust="spacing" textLength="136" x="1582" y="484.3779">list&lt;CategoriaEmpleo&gt;:</text><text fill="#000000" font-family="sans-serif" font-size="13" lengthAdjust="spacing" textLength="131" x="1598" y="500.7295">idCategoriaEmpleo: int</text><text fill="#000000" font-family="sans-serif" font-size="13" lengthAdjust="spacing" textLength="83" x="1598" y="517.0811">nombre: string</text><text fill="#000000" font-family="sans-serif" font-size="13" lengthAdjust="spacing" textLength="4" x="1582" y="533.4326"> </text><line style="stroke:#181818;stroke-width:1.0;" x1="1308.5" x2="1318.5" y1="568.6406" y2="564.6406"/><line style="stroke:#181818;stroke-width:1.0;" x1="1308.5" x2="1318.5" y1="568.6406" y2="572.6406"/><line style="stroke:#181818;stroke-width:1.0;stroke-dasharray:2.0,2.0;" x1="1308.5" x2="1560.5" y1="568.6406" y2="568.6406"/><text fill="#000000" font-family="sans-serif" font-size="13" lengthAdjust="spacing" textLength="53" x="1325.5" y="563.7842">response</text><polygon fill="#181818" points="813.5,594.9922,803.5,598.9922,813.5,602.9922,809.5,598.9922" style="stroke:#181818;stroke-width:1.0;"/><line style="stroke:#181818;stroke-width:1.0;" x1="807.5" x2="1297.5" y1="598.9922" y2="598.9922"/><text fill="#000000" font-family="sans-serif" font-size="13" lengthAdjust="spacing" textLength="138" x="819.5" y="594.1357">callback(200, response)</text><polygon fill="#181818" points="585.5,625.3438,575.5,629.3438,585.5,633.3438,581.5,629.3438" style="stroke:#181818;stroke-width:1.0;"/><line style="stroke:#181818;stroke-width:1.0;" x1="579.5" x2="791.5" y1="629.3438" y2="629.3438"/><text fill="#000000" font-family="sans-serif" font-size="13" font-weight="bold" lengthAdjust="spacing" textLength="44" x="591.5" y="624.4873">200 OK</text><line style="stroke:#181818;stroke-width:1.0;" x1="366.5" x2="376.5" y1="659.6953" y2="655.6953"/><line style="stroke:#181818;stroke-width:1.0;" x1="366.5" x2="376.5" y1="659.6953" y2="663.6953"/><line style="stroke:#181818;stroke-width:1.0;stroke-dasharray:2.0,2.0;" x1="366.5" x2="563.5" y1="659.6953" y2="659.6953"/><text fill="#000000" font-family="sans-serif" font-size="13" lengthAdjust="spacing" textLength="53" x="383.5" y="654.8389">response</text><line style="stroke:#181818;stroke-width:1.0;" x1="366.5" x2="408.5" y1="706.3984" y2="706.3984"/><line style="stroke:#181818;stroke-width:1.0;" x1="408.5" x2="408.5" y1="706.3984" y2="719.3984"/><line style="stroke:#181818;stroke-width:1.0;" x1="367.5" x2="408.5" y1="719.3984" y2="719.3984"/><line style="stroke:#181818;stroke-width:1.0;" x1="367.5" x2="377.5" y1="719.3984" y2="715.3984"/><line style="stroke:#181818;stroke-width:1.0;" x1="367.5" x2="377.5" y1="719.3984" y2="723.3984"/><text fill="#000000" font-family="sans-serif" font-size="13" lengthAdjust="spacing" textLength="49" x="373.5" y="685.1904">mensaje</text><text fill="#000000" font-family="sans-serif" font-size="13" lengthAdjust="spacing" textLength="30" x="373.5" y="701.542">Exito</text><line style="stroke:#181818;stroke-width:1.0;" x1="366.5" x2="408.5" y1="749.75" y2="749.75"/><line style="stroke:#181818;stroke-width:1.0;" x1="408.5" x2="408.5" y1="749.75" y2="762.75"/><line style="stroke:#181818;stroke-width:1.0;" x1="367.5" x2="408.5" y1="762.75" y2="762.75"/><line style="stroke:#181818;stroke-width:1.0;" x1="367.5" x2="377.5" y1="762.75" y2="758.75"/><line style="stroke:#181818;stroke-width:1.0;" x1="367.5" x2="377.5" y1="762.75" y2="766.75"/><text fill="#000000" font-family="sans-serif" font-size="13" lengthAdjust="spacing" textLength="106" x="373.5" y="744.8936">cargarCategorias()</text><path d="M288,777.75 L349,777.75 L349,786.1016 L339,796.1016 L288,796.1016 L288,777.75 " fill="#EEEEEE" style="stroke:#000000;stroke-width:1.5;"/><rect fill="none" height="335.7031" style="stroke:#000000;stroke-width:1.5;" width="1102" x="288" y="777.75"/><text fill="#000000" font-family="sans-serif" font-size="13" font-weight="bold" lengthAdjust="spacing" textLength="16" x="303" y="792.2451">alt</text><text fill="#000000" font-family="sans-serif" font-size="11" font-weight="bold" lengthAdjust="spacing" textLength="142" x="364" y="791.1689">[INTERNAL ERROR SERVER]</text><polygon fill="#181818" points="813.5,814.4531,803.5,818.4531,813.5,822.4531,809.5,818.4531" style="stroke:#181818;stroke-width:1.0;"/><line style="stroke:#181818;stroke-width:1.0;" x1="807.5" x2="1297.5" y1="818.4531" y2="818.4531"/><text fill="#000000" font-family="sans-serif" font-size="13" lengthAdjust="spacing" textLength="134" x="819.5" y="813.5967">callback(500, mensaje)</text><polygon fill="#181818" points="585.5,844.8047,575.5,848.8047,585.5,852.8047,581.5,848.8047" style="stroke:#181818;stroke-width:1.0;"/><line style="stroke:#181818;stroke-width:1.0;" x1="579.5" x2="791.5" y1="848.8047" y2="848.8047"/><text fill="#000000" font-family="sans-serif" font-size="13" font-weight="bold" lengthAdjust="spacing" textLength="194" x="591.5" y="843.9482">500 INTERNAL SERVER ERROR</text><polygon fill="#181818" points="377.5,875.1563,367.5,879.1563,377.5,883.1563,373.5,879.1563" style="stroke:#181818;stroke-width:1.0;"/><line style="stroke:#181818;stroke-width:1.0;" x1="371.5" x2="563.5" y1="879.1563" y2="879.1563"/><text fill="#000000" font-family="sans-serif" font-size="13" lengthAdjust="spacing" textLength="20" x="383.5" y="874.2998">null</text><line style="stroke:#181818;stroke-width:1.0;" x1="366.5" x2="408.5" y1="925.8594" y2="925.8594"/><line style="stroke:#181818;stroke-width:1.0;" x1="408.5" x2="408.5" y1="925.8594" y2="938.8594"/><line style="stroke:#181818;stroke-width:1.0;" x1="367.5" x2="408.5" y1="938.8594" y2="938.8594"/><line style="stroke:#181818;stroke-width:1.0;" x1="367.5" x2="377.5" y1="938.8594" y2="934.8594"/><line style="stroke:#181818;stroke-width:1.0;" x1="367.5" x2="377.5" y1="938.8594" y2="942.8594"/><text fill="#000000" font-family="sans-serif" font-size="13" lengthAdjust="spacing" textLength="49" x="373.5" y="904.6514">mensaje</text><text fill="#000000" font-family="sans-serif" font-size="13" lengthAdjust="spacing" textLength="113" x="373.5" y="921.0029">ErrorInternoServidor</text><line style="stroke:#000000;stroke-width:1.0;stroke-dasharray:2.0,2.0;" x1="288" x2="1390" y1="947.8594" y2="947.8594"/><text fill="#000000" font-family="sans-serif" font-size="11" font-weight="bold" lengthAdjust="spacing" textLength="68" x="293" y="959.2783">[NOT FOUND]</text><polygon fill="#181818" points="813.5,981.0469,803.5,985.0469,813.5,989.0469,809.5,985.0469" style="stroke:#181818;stroke-width:1.0;"/><line style="stroke:#181818;stroke-width:1.0;" x1="807.5" x2="1297.5" y1="985.0469" y2="985.0469"/><text fill="#000000" font-family="sans-serif" font-size="13" lengthAdjust="spacing" textLength="131" x="819.5" y="980.1904">calback(404, mensaje)</text><polygon fill="#181818" points="585.5,1011.3984,575.5,1015.3984,585.5,1019.3984,581.5,1015.3984" style="stroke:#181818;stroke-width:1.0;"/><line style="stroke:#181818;stroke-width:1.0;" x1="579.5" x2="791.5" y1="1015.3984" y2="1015.3984"/><text fill="#000000" font-family="sans-serif" font-size="13" font-weight="bold" lengthAdjust="spacing" textLength="101" x="591.5" y="1010.542">404 NOT FOUND</text><polygon fill="#181818" points="377.5,1041.75,367.5,1045.75,377.5,1049.75,373.5,1045.75" style="stroke:#181818;stroke-width:1.0;"/><line style="stroke:#181818;stroke-width:1.0;" x1="371.5" x2="563.5" y1="1045.75" y2="1045.75"/><text fill="#000000" font-family="sans-serif" font-size="13" lengthAdjust="spacing" textLength="20" x="383.5" y="1040.8936">null</text><line style="stroke:#181818;stroke-width:1.0;" x1="366.5" x2="408.5" y1="1092.4531" y2="1092.4531"/><line style="stroke:#181818;stroke-width:1.0;" x1="408.5" x2="408.5" y1="1092.4531" y2="1105.4531"/><line style="stroke:#181818;stroke-width:1.0;" x1="367.5" x2="408.5" y1="1105.4531" y2="1105.4531"/><line style="stroke:#181818;stroke-width:1.0;" x1="367.5" x2="377.5" y1="1105.4531" y2="1101.4531"/><line style="stroke:#181818;stroke-width:1.0;" x1="367.5" x2="377.5" y1="1105.4531" y2="1109.4531"/><text fill="#000000" font-family="sans-serif" font-size="13" lengthAdjust="spacing" textLength="49" x="373.5" y="1071.2451">mensaje</text><text fill="#000000" font-family="sans-serif" font-size="13" lengthAdjust="spacing" textLength="129" x="373.5" y="1087.5967">PeticionNoEncontrada</text><polygon fill="#181818" points="552.5,1138.8047,562.5,1142.8047,552.5,1146.8047,556.5,1142.8047" style="stroke:#181818;stroke-width:1.0;"/><line style="stroke:#181818;stroke-width:1.0;" x1="366.5" x2="558.5" y1="1142.8047" y2="1142.8047"/><text fill="#000000" font-family="sans-serif" font-size="13" lengthAdjust="spacing" textLength="91" x="373.5" y="1137.9482">GetCategorias()</text><polygon fill="#181818" points="780.5,1169.1563,790.5,1173.1563,780.5,1177.1563,784.5,1173.1563" style="stroke:#181818;stroke-width:1.0;"/><line style="stroke:#181818;stroke-width:1.0;" x1="574.5" x2="786.5" y1="1173.1563" y2="1173.1563"/><text fill="#000000" font-family="sans-serif" font-size="13" font-weight="bold" lengthAdjust="spacing" textLength="26" x="581.5" y="1168.2998">GET</text><text fill="#000000" font-family="sans-serif" font-size="13" lengthAdjust="spacing" textLength="124" x="611.5" y="1168.2998">/categoriasEmpleo</text><polygon fill="#181818" points="1033.5,1215.8594,1043.5,1219.8594,1033.5,1223.8594,1037.5,1219.8594" style="stroke:#181818;stroke-width:1.0;"/><line style="stroke:#181818;stroke-width:1.0;" x1="802.5" x2="1039.5" y1="1219.8594" y2="1219.8594"/><text fill="#000000" font-family="sans-serif" font-size="13" lengthAdjust="spacing" textLength="124" x="809.5" y="1198.6514">getCategoriasEmpleo</text><text fill="#000000" font-family="sans-serif" font-size="13" lengthAdjust="spacing" textLength="56" x="809.5" y="1215.0029">(callback)</text><polygon fill="#181818" points="1286.5,1262.5625,1296.5,1266.5625,1286.5,1270.5625,1290.5,1266.5625" style="stroke:#181818;stroke-width:1.0;"/><line style="stroke:#181818;stroke-width:1.0;" x1="1050.5" x2="1292.5" y1="1266.5625" y2="1266.5625"/><text fill="#000000" font-family="sans-serif" font-size="13" lengthAdjust="spacing" textLength="124" x="1057.5" y="1245.3545">getCategoriasEmpleo</text><text fill="#000000" font-family="sans-serif" font-size="13" lengthAdjust="spacing" textLength="56" x="1057.5" y="1261.7061">(callback)</text><polygon fill="#181818" points="1549.5,1292.9141,1559.5,1296.9141,1549.5,1300.9141,1553.5,1296.9141" style="stroke:#181818;stroke-width:1.0;"/><line style="stroke:#181818;stroke-width:1.0;" x1="1308.5" x2="1555.5" y1="1296.9141" y2="1296.9141"/><text fill="#000000" font-family="sans-serif" font-size="13" lengthAdjust="spacing" textLength="207" x="1315.5" y="1292.0576">SELECT * FROM categoria_empleo</text><line style="stroke:#181818;stroke-width:1.0;" x1="1308.5" x2="1318.5" y1="1327.2656" y2="1323.2656"/><line style="stroke:#181818;stroke-width:1.0;" x1="1308.5" x2="1318.5" y1="1327.2656" y2="1331.2656"/><line style="stroke:#181818;stroke-width:1.0;stroke-dasharray:2.0,2.0;" x1="1308.5" x2="1565.5" y1="1327.2656" y2="1327.2656"/><text fill="#000000" font-family="sans-serif" font-size="13" lengthAdjust="spacing" textLength="53" x="1325.5" y="1322.4092">response</text><polygon fill="#181818" points="813.5,1353.6172,803.5,1357.6172,813.5,1361.6172,809.5,1357.6172" style="stroke:#181818;stroke-width:1.0;"/><line style="stroke:#181818;stroke-width:1.0;" x1="807.5" x2="1297.5" y1="1357.6172" y2="1357.6172"/><text fill="#000000" font-family="sans-serif" font-size="13" lengthAdjust="spacing" textLength="138" x="819.5" y="1352.7607">callback(200, response)</text><polygon fill="#181818" points="585.5,1383.9688,575.5,1387.9688,585.5,1391.9688,581.5,1387.9688" style="stroke:#181818;stroke-width:1.0;"/><line style="stroke:#181818;stroke-width:1.0;" x1="579.5" x2="791.5" y1="1387.9688" y2="1387.9688"/><text fill="#000000" font-family="sans-serif" font-size="13" font-weight="bold" lengthAdjust="spacing" textLength="44" x="591.5" y="1383.1123">200 OK</text><line style="stroke:#181818;stroke-width:1.0;" x1="366.5" x2="376.5" y1="1418.3203" y2="1414.3203"/><line style="stroke:#181818;stroke-width:1.0;" x1="366.5" x2="376.5" y1="1418.3203" y2="1422.3203"/><line style="stroke:#181818;stroke-width:1.0;stroke-dasharray:2.0,2.0;" x1="366.5" x2="563.5" y1="1418.3203" y2="1418.3203"/><text fill="#000000" font-family="sans-serif" font-size="13" lengthAdjust="spacing" textLength="53" x="383.5" y="1413.4639">response</text><line style="stroke:#181818;stroke-width:1.0;" x1="366.5" x2="408.5" y1="1465.0234" y2="1465.0234"/><line style="stroke:#181818;stroke-width:1.0;" x1="408.5" x2="408.5" y1="1465.0234" y2="1478.0234"/><line style="stroke:#181818;stroke-width:1.0;" x1="367.5" x2="408.5" y1="1478.0234" y2="1478.0234"/><line style="stroke:#181818;stroke-width:1.0;" x1="367.5" x2="377.5" y1="1478.0234" y2="1474.0234"/><line style="stroke:#181818;stroke-width:1.0;" x1="367.5" x2="377.5" y1="1478.0234" y2="1482.0234"/><text fill="#000000" font-family="sans-serif" font-size="13" lengthAdjust="spacing" textLength="49" x="373.5" y="1443.8154">mensaje</text><text fill="#000000" font-family="sans-serif" font-size="13" lengthAdjust="spacing" textLength="30" x="373.5" y="1460.167">Exito</text><path d="M288,1493.0234 L349,1493.0234 L349,1501.375 L339,1511.375 L288,1511.375 L288,1493.0234 " fill="#EEEEEE" style="stroke:#000000;stroke-width:1.5;"/><rect fill="none" height="335.7031" style="stroke:#000000;stroke-width:1.5;" width="1102" x="288" y="1493.0234"/><text fill="#000000" font-family="sans-serif" font-size="13" font-weight="bold" lengthAdjust="spacing" textLength="16" x="303" y="1507.5186">alt</text><text fill="#000000" font-family="sans-serif" font-size="11" font-weight="bold" lengthAdjust="spacing" textLength="142" x="364" y="1506.4424">[INTERNAL ERROR SERVER]</text><polygon fill="#181818" points="813.5,1529.7266,803.5,1533.7266,813.5,1537.7266,809.5,1533.7266" style="stroke:#181818;stroke-width:1.0;"/><line style="stroke:#181818;stroke-width:1.0;" x1="807.5" x2="1297.5" y1="1533.7266" y2="1533.7266"/><text fill="#000000" font-family="sans-serif" font-size="13" lengthAdjust="spacing" textLength="134" x="819.5" y="1528.8701">callback(500, mensaje)</text><polygon fill="#181818" points="585.5,1560.0781,575.5,1564.0781,585.5,1568.0781,581.5,1564.0781" style="stroke:#181818;stroke-width:1.0;"/><line style="stroke:#181818;stroke-width:1.0;" x1="579.5" x2="791.5" y1="1564.0781" y2="1564.0781"/><text fill="#000000" font-family="sans-serif" font-size="13" font-weight="bold" lengthAdjust="spacing" textLength="194" x="591.5" y="1559.2217">500 INTERNAL SERVER ERROR</text><line style="stroke:#181818;stroke-width:1.0;" x1="366.5" x2="376.5" y1="1594.4297" y2="1590.4297"/><line style="stroke:#181818;stroke-width:1.0;" x1="366.5" x2="376.5" y1="1594.4297" y2="1598.4297"/><line style="stroke:#181818;stroke-width:1.0;stroke-dasharray:2.0,2.0;" x1="366.5" x2="563.5" y1="1594.4297" y2="1594.4297"/><text fill="#000000" font-family="sans-serif" font-size="13" lengthAdjust="spacing" textLength="20" x="383.5" y="1589.5732">null</text><line style="stroke:#181818;stroke-width:1.0;" x1="366.5" x2="408.5" y1="1641.1328" y2="1641.1328"/><line style="stroke:#181818;stroke-width:1.0;" x1="408.5" x2="408.5" y1="1641.1328" y2="1654.1328"/><line style="stroke:#181818;stroke-width:1.0;" x1="367.5" x2="408.5" y1="1654.1328" y2="1654.1328"/><line style="stroke:#181818;stroke-width:1.0;" x1="367.5" x2="377.5" y1="1654.1328" y2="1650.1328"/><line style="stroke:#181818;stroke-width:1.0;" x1="367.5" x2="377.5" y1="1654.1328" y2="1658.1328"/><text fill="#000000" font-family="sans-serif" font-size="13" lengthAdjust="spacing" textLength="49" x="373.5" y="1619.9248">mensaje</text><text fill="#000000" font-family="sans-serif" font-size="13" lengthAdjust="spacing" textLength="113" x="373.5" y="1636.2764">ErrorInternoServidor</text><line style="stroke:#000000;stroke-width:1.0;stroke-dasharray:2.0,2.0;" x1="288" x2="1390" y1="1663.1328" y2="1663.1328"/><text fill="#000000" font-family="sans-serif" font-size="11" font-weight="bold" lengthAdjust="spacing" textLength="68" x="293" y="1674.5518">[NOT FOUND]</text><polygon fill="#181818" points="813.5,1696.3203,803.5,1700.3203,813.5,1704.3203,809.5,1700.3203" style="stroke:#181818;stroke-width:1.0;"/><line style="stroke:#181818;stroke-width:1.0;" x1="807.5" x2="1302.5" y1="1700.3203" y2="1700.3203"/><text fill="#000000" font-family="sans-serif" font-size="13" lengthAdjust="spacing" textLength="134" x="819.5" y="1695.4639">callback(404, mensaje)</text><polygon fill="#181818" points="585.5,1726.6719,575.5,1730.6719,585.5,1734.6719,581.5,1730.6719" style="stroke:#181818;stroke-width:1.0;"/><line style="stroke:#181818;stroke-width:1.0;" x1="579.5" x2="791.5" y1="1730.6719" y2="1730.6719"/><text fill="#000000" font-family="sans-serif" font-size="13" font-weight="bold" lengthAdjust="spacing" textLength="93" x="591.5" y="1725.8154">404 NO FOUND</text><line style="stroke:#181818;stroke-width:1.0;" x1="366.5" x2="376.5" y1="1761.0234" y2="1757.0234"/><line style="stroke:#181818;stroke-width:1.0;" x1="366.5" x2="376.5" y1="1761.0234" y2="1765.0234"/><line style="stroke:#181818;stroke-width:1.0;stroke-dasharray:2.0,2.0;" x1="366.5" x2="568.5" y1="1761.0234" y2="1761.0234"/><text fill="#000000" font-family="sans-serif" font-size="13" lengthAdjust="spacing" textLength="20" x="383.5" y="1756.167">null</text><line style="stroke:#181818;stroke-width:1.0;" x1="366.5" x2="408.5" y1="1807.7266" y2="1807.7266"/><line style="stroke:#181818;stroke-width:1.0;" x1="408.5" x2="408.5" y1="1807.7266" y2="1820.7266"/><line style="stroke:#181818;stroke-width:1.0;" x1="367.5" x2="408.5" y1="1820.7266" y2="1820.7266"/><line style="stroke:#181818;stroke-width:1.0;" x1="367.5" x2="377.5" y1="1820.7266" y2="1816.7266"/><line style="stroke:#181818;stroke-width:1.0;" x1="367.5" x2="377.5" y1="1820.7266" y2="1824.7266"/><text fill="#000000" font-family="sans-serif" font-size="13" lengthAdjust="spacing" textLength="49" x="373.5" y="1786.5186">mensaje</text><text fill="#000000" font-family="sans-serif" font-size="13" lengthAdjust="spacing" textLength="129" x="373.5" y="1802.8701">PeticionNoEncontrada</text><!--MD5=[7c31e3a83251256e37324bb98e30e256]
@startuml

box Cliente
    actor Administrador as a
    participant categoriasEmpleo as b <<GUI>> 
    participant categoriasEmpleo as c <<Controller>>
    participant CategoriaDAO as d <<DAO>>

end box

box Servidor
    participant ElCamelloAPI as e <<API>>
    participant GestionCategoriasEmpleo as f <<Componente>>
    participant CategoriaEmpleoDAO as g <<DAO>>
    database elCamelloDB as db
end box

a -> b: modificarDato
activate a
activate b

b -> c: btnModificarCategoria_Click
activate c

c -> d: PatchCategoria\n(categoriaSeleccionada, token)
activate d

note right of d  
**HEADERS**
x-access-token: string
end note

d -> e: **PATCH** /categoriasEmpleo
activate e



e -> f: patchCategoriaEmpleo\n(idCategoriaEmpleo, nombre, callback)
activate f

f -> g: patchCategoriaEmpleo\n(idCategoriaEmpleo, nombre, callback)
activate g

g -> db: UPDATE categoria_empleo SET nombre
activate db

note right of db
**PAYLOAD**

list<CategoriaEmpleo>:
    idCategoriaEmpleo: int
    nombre: string

end note

db - ->> g: response 


g -> e: callback(200, response)


e -> d: **200 OK**

d - ->> c: response

c ->> c: mensaje\nExito

c ->> c: cargarCategorias()

alt INTERNAL ERROR SERVER

     g -> e: callback(500, mensaje)

     e -> d: **500 INTERNAL SERVER ERROR**

     d -> c: null

     c ->> c: mensaje\nErrorInternoServidor


else NOT FOUND

    g -> e: calback(404, mensaje)

    e -> d: **404 NOT FOUND**

    d -> c: null

    c ->> c: mensaje\nPeticionNoEncontrada

end

c -> d: GetCategorias()

d -> e: **GET** /categoriasEmpleo

e -> f: getCategoriasEmpleo\n(callback)

f -> g: getCategoriasEmpleo\n(callback)
deactivate f

g -> db: SELECT * FROM categoria_empleo

db - ->> g: response
deactivate db

g -> e: callback(200, response)

e -> d: **200 OK**

d - ->> c: response


c ->> c: mensaje\nExito

alt INTERNAL ERROR SERVER

    g -> e: callback(500, mensaje)

    e -> d: **500 INTERNAL SERVER ERROR**

    d - ->> c: null

    c ->> c: mensaje\nErrorInternoServidor

else NOT FOUND

    g -> e: callback(404, mensaje)
    deactivate g

    e -> d: **404 NO FOUND**

    d - ->> c: null
    deactivate d

    c ->> c: mensaje\nPeticionNoEncontrada

end



@enduml

PlantUML version 1.2022.5(Sat Apr 30 05:55:52 CDT 2022)
(GPL source distribution)
Java Runtime: Java(TM) SE Runtime Environment
JVM: Java HotSpot(TM) 64-Bit Server VM
Default Encoding: Cp1252
Language: es
Country: MX
--></g></svg>